<svg width="1363" height="297" viewBox="0 0 1363 297" fill="none" xmlns="http://www.w3.org/2000/svg">
<path d="M0 15C0 6.71573 6.71573 0 15 0H37V297H15C6.71573 297 0 290.284 0 282V15Z" fill="#3292E6"/>
<path d="M37 0H1066V297H37V0Z" fill="#F0F0F0"/>
<path d="M105.691 53.7832L98.7305 75H93.123L102.633 49.4062H106.201L105.691 53.7832ZM111.475 75L104.496 53.7832L103.934 49.4062H107.537L117.1 75H111.475ZM111.158 65.4727V69.6035H97.6406V65.4727H111.158ZM124.5 48V75H119.42V48H124.5ZM134.027 55.9805V75H128.947V55.9805H134.027ZM128.631 51.0234C128.631 50.2852 128.889 49.6758 129.404 49.1953C129.92 48.7148 130.611 48.4746 131.479 48.4746C132.334 48.4746 133.02 48.7148 133.535 49.1953C134.062 49.6758 134.326 50.2852 134.326 51.0234C134.326 51.7617 134.062 52.3711 133.535 52.8516C133.02 53.332 132.334 53.5723 131.479 53.5723C130.611 53.5723 129.92 53.332 129.404 52.8516C128.889 52.3711 128.631 51.7617 128.631 51.0234ZM155.93 75.3516C154.453 75.3516 153.129 75.1172 151.957 74.6484C150.785 74.168 149.789 73.5059 148.969 72.6621C148.16 71.8184 147.539 70.8398 147.105 69.7266C146.672 68.6016 146.455 67.4062 146.455 66.1406V65.4375C146.455 63.9961 146.66 62.6777 147.07 61.4824C147.48 60.2871 148.066 59.25 148.828 58.3711C149.602 57.4922 150.539 56.8184 151.641 56.3496C152.742 55.8691 153.984 55.6289 155.367 55.6289C156.715 55.6289 157.91 55.8516 158.953 56.2969C159.996 56.7422 160.869 57.375 161.572 58.1953C162.287 59.0156 162.826 60 163.189 61.1484C163.553 62.2852 163.734 63.5508 163.734 64.9453V67.0547H148.617V63.6797H158.76V63.293C158.76 62.5898 158.631 61.9629 158.373 61.4121C158.127 60.8496 157.752 60.4043 157.248 60.0762C156.744 59.748 156.1 59.584 155.314 59.584C154.646 59.584 154.072 59.7305 153.592 60.0234C153.111 60.3164 152.719 60.7266 152.414 61.2539C152.121 61.7812 151.898 62.4023 151.746 63.1172C151.605 63.8203 151.535 64.5938 151.535 65.4375V66.1406C151.535 66.9023 151.641 67.6055 151.852 68.25C152.074 68.8945 152.385 69.4512 152.783 69.9199C153.193 70.3887 153.686 70.752 154.26 71.0098C154.846 71.2676 155.508 71.3965 156.246 71.3965C157.16 71.3965 158.01 71.2207 158.795 70.8691C159.592 70.5059 160.277 69.9609 160.852 69.2344L163.312 71.9062C162.914 72.4805 162.369 73.0312 161.678 73.5586C160.998 74.0859 160.178 74.5195 159.217 74.8594C158.256 75.1875 157.16 75.3516 155.93 75.3516ZM171.961 48V75H166.881V48H171.961ZM193.529 59.8301V63.9434H180.17V59.8301H193.529ZM181.734 49.4062V75H176.461V49.4062H181.734ZM197.291 49.4062V75H192.035V49.4062H197.291ZM211.828 70.7109V62.2383C211.828 61.6289 211.729 61.1074 211.529 60.6738C211.33 60.2285 211.02 59.8828 210.598 59.6367C210.188 59.3906 209.654 59.2676 208.998 59.2676C208.436 59.2676 207.949 59.3672 207.539 59.5664C207.129 59.7539 206.812 60.0293 206.59 60.3926C206.367 60.7441 206.256 61.1602 206.256 61.6406H201.193C201.193 60.832 201.381 60.0645 201.756 59.3379C202.131 58.6113 202.676 57.9727 203.391 57.4219C204.105 56.8594 204.955 56.4199 205.939 56.1035C206.936 55.7871 208.049 55.6289 209.279 55.6289C210.756 55.6289 212.068 55.875 213.217 56.3672C214.365 56.8594 215.268 57.5977 215.924 58.582C216.592 59.5664 216.926 60.7969 216.926 62.2734V70.4121C216.926 71.4551 216.99 72.3105 217.119 72.9785C217.248 73.6348 217.436 74.209 217.682 74.7012V75H212.566C212.32 74.4844 212.133 73.8398 212.004 73.0664C211.887 72.2812 211.828 71.4961 211.828 70.7109ZM212.496 63.416L212.531 66.2812H209.701C209.033 66.2812 208.453 66.3574 207.961 66.5098C207.469 66.6621 207.064 66.8789 206.748 67.1602C206.432 67.4297 206.197 67.7461 206.045 68.1094C205.904 68.4727 205.834 68.8711 205.834 69.3047C205.834 69.7383 205.934 70.1309 206.133 70.4824C206.332 70.8223 206.619 71.0918 206.994 71.291C207.369 71.4785 207.809 71.5723 208.312 71.5723C209.074 71.5723 209.736 71.4199 210.299 71.1152C210.861 70.8105 211.295 70.4355 211.6 69.9902C211.916 69.5449 212.08 69.123 212.092 68.7246L213.428 70.8691C213.24 71.3496 212.982 71.8477 212.654 72.3633C212.338 72.8789 211.934 73.3652 211.441 73.8223C210.949 74.2676 210.357 74.6367 209.666 74.9297C208.975 75.2109 208.154 75.3516 207.205 75.3516C205.998 75.3516 204.902 75.1113 203.918 74.6309C202.945 74.1387 202.172 73.4648 201.598 72.6094C201.035 71.7422 200.754 70.7578 200.754 69.6562C200.754 68.6602 200.941 67.7754 201.316 67.002C201.691 66.2285 202.242 65.5781 202.969 65.0508C203.707 64.5117 204.627 64.1074 205.729 63.8379C206.83 63.5566 208.107 63.416 209.561 63.416H212.496ZM232.061 70.8516V48H237.158V75H232.57L232.061 70.8516ZM220.037 65.7188V65.3496C220.037 63.8965 220.201 62.5781 220.529 61.3945C220.857 60.1992 221.338 59.1738 221.971 58.3184C222.604 57.4629 223.383 56.8008 224.309 56.332C225.234 55.8633 226.289 55.6289 227.473 55.6289C228.586 55.6289 229.559 55.8633 230.391 56.332C231.234 56.8008 231.949 57.4688 232.535 58.3359C233.133 59.1914 233.613 60.2051 233.977 61.377C234.34 62.5371 234.604 63.8086 234.768 65.1914V66C234.604 67.3242 234.34 68.5547 233.977 69.6914C233.613 70.8281 233.133 71.8242 232.535 72.6797C231.949 73.5234 231.234 74.1797 230.391 74.6484C229.547 75.1172 228.562 75.3516 227.438 75.3516C226.254 75.3516 225.199 75.1113 224.273 74.6309C223.359 74.1504 222.586 73.4766 221.953 72.6094C221.332 71.7422 220.857 70.7227 220.529 69.5508C220.201 68.3789 220.037 67.1016 220.037 65.7188ZM225.1 65.3496V65.7188C225.1 66.5039 225.158 67.2363 225.275 67.916C225.404 68.5957 225.609 69.1992 225.891 69.7266C226.184 70.2422 226.559 70.6465 227.016 70.9395C227.484 71.2207 228.053 71.3613 228.721 71.3613C229.588 71.3613 230.303 71.168 230.865 70.7812C231.428 70.3828 231.855 69.8379 232.148 69.1465C232.453 68.4551 232.629 67.6582 232.676 66.7559V64.4531C232.641 63.7148 232.535 63.0527 232.359 62.4668C232.195 61.8691 231.949 61.3594 231.621 60.9375C231.305 60.5156 230.906 60.1875 230.426 59.9531C229.957 59.7188 229.4 59.6016 228.756 59.6016C228.1 59.6016 227.537 59.7539 227.068 60.0586C226.6 60.3516 226.219 60.7559 225.926 61.2715C225.645 61.7871 225.434 62.3965 225.293 63.0996C225.164 63.791 225.1 64.541 225.1 65.3496ZM246.457 55.9805V75H241.377V55.9805H246.457ZM241.061 51.0234C241.061 50.2852 241.318 49.6758 241.834 49.1953C242.35 48.7148 243.041 48.4746 243.908 48.4746C244.764 48.4746 245.449 48.7148 245.965 49.1953C246.492 49.6758 246.756 50.2852 246.756 51.0234C246.756 51.7617 246.492 52.3711 245.965 52.8516C245.449 53.332 244.764 53.5723 243.908 53.5723C243.041 53.5723 242.35 53.332 241.834 52.8516C241.318 52.3711 241.061 51.7617 241.061 51.0234ZM273.246 68.3027C273.246 67.8457 273.176 67.4355 273.035 67.0723C272.906 66.6973 272.66 66.3574 272.297 66.0527C271.934 65.7363 271.424 65.4258 270.768 65.1211C270.111 64.8164 269.262 64.5 268.219 64.1719C267.059 63.7969 265.957 63.375 264.914 62.9062C263.883 62.4375 262.969 61.8926 262.172 61.2715C261.387 60.6387 260.766 59.9062 260.309 59.0742C259.863 58.2422 259.641 57.2754 259.641 56.1738C259.641 55.1074 259.875 54.1406 260.344 53.2734C260.812 52.3945 261.469 51.6445 262.312 51.0234C263.156 50.3906 264.152 49.9043 265.301 49.5645C266.461 49.2246 267.732 49.0547 269.115 49.0547C271.002 49.0547 272.648 49.3945 274.055 50.0742C275.461 50.7539 276.551 51.6855 277.324 52.8691C278.109 54.0527 278.502 55.4062 278.502 56.9297H273.264C273.264 56.1797 273.105 55.5234 272.789 54.9609C272.484 54.3867 272.016 53.9355 271.383 53.6074C270.762 53.2793 269.977 53.1152 269.027 53.1152C268.113 53.1152 267.352 53.2559 266.742 53.5371C266.133 53.8066 265.676 54.1758 265.371 54.6445C265.066 55.1016 264.914 55.6172 264.914 56.1914C264.914 56.625 265.02 57.0176 265.23 57.3691C265.453 57.7207 265.781 58.0488 266.215 58.3535C266.648 58.6582 267.182 58.9453 267.814 59.2148C268.447 59.4844 269.18 59.748 270.012 60.0059C271.406 60.4277 272.631 60.9023 273.686 61.4297C274.752 61.957 275.643 62.5488 276.357 63.2051C277.072 63.8613 277.611 64.6055 277.975 65.4375C278.338 66.2695 278.52 67.2129 278.52 68.2676C278.52 69.3809 278.303 70.377 277.869 71.2559C277.436 72.1348 276.809 72.8789 275.988 73.4883C275.168 74.0977 274.189 74.5605 273.053 74.877C271.916 75.1934 270.645 75.3516 269.238 75.3516C267.973 75.3516 266.725 75.1875 265.494 74.8594C264.264 74.5195 263.145 74.0098 262.137 73.3301C261.141 72.6504 260.344 71.7832 259.746 70.7285C259.148 69.6738 258.85 68.4258 258.85 66.9844H264.141C264.141 67.7812 264.264 68.4551 264.51 69.0059C264.756 69.5566 265.102 70.002 265.547 70.3418C266.004 70.6816 266.543 70.9277 267.164 71.0801C267.797 71.2324 268.488 71.3086 269.238 71.3086C270.152 71.3086 270.902 71.1797 271.488 70.9219C272.086 70.6641 272.525 70.3066 272.807 69.8496C273.1 69.3926 273.246 68.877 273.246 68.3027ZM292.055 70.7109V62.2383C292.055 61.6289 291.955 61.1074 291.756 60.6738C291.557 60.2285 291.246 59.8828 290.824 59.6367C290.414 59.3906 289.881 59.2676 289.225 59.2676C288.662 59.2676 288.176 59.3672 287.766 59.5664C287.355 59.7539 287.039 60.0293 286.816 60.3926C286.594 60.7441 286.482 61.1602 286.482 61.6406H281.42C281.42 60.832 281.607 60.0645 281.982 59.3379C282.357 58.6113 282.902 57.9727 283.617 57.4219C284.332 56.8594 285.182 56.4199 286.166 56.1035C287.162 55.7871 288.275 55.6289 289.506 55.6289C290.982 55.6289 292.295 55.875 293.443 56.3672C294.592 56.8594 295.494 57.5977 296.15 58.582C296.818 59.5664 297.152 60.7969 297.152 62.2734V70.4121C297.152 71.4551 297.217 72.3105 297.346 72.9785C297.475 73.6348 297.662 74.209 297.908 74.7012V75H292.793C292.547 74.4844 292.359 73.8398 292.23 73.0664C292.113 72.2812 292.055 71.4961 292.055 70.7109ZM292.723 63.416L292.758 66.2812H289.928C289.26 66.2812 288.68 66.3574 288.188 66.5098C287.695 66.6621 287.291 66.8789 286.975 67.1602C286.658 67.4297 286.424 67.7461 286.271 68.1094C286.131 68.4727 286.061 68.8711 286.061 69.3047C286.061 69.7383 286.16 70.1309 286.359 70.4824C286.559 70.8223 286.846 71.0918 287.221 71.291C287.596 71.4785 288.035 71.5723 288.539 71.5723C289.301 71.5723 289.963 71.4199 290.525 71.1152C291.088 70.8105 291.521 70.4355 291.826 69.9902C292.143 69.5449 292.307 69.123 292.318 68.7246L293.654 70.8691C293.467 71.3496 293.209 71.8477 292.881 72.3633C292.564 72.8789 292.16 73.3652 291.668 73.8223C291.176 74.2676 290.584 74.6367 289.893 74.9297C289.201 75.2109 288.381 75.3516 287.432 75.3516C286.225 75.3516 285.129 75.1113 284.145 74.6309C283.172 74.1387 282.398 73.4648 281.824 72.6094C281.262 71.7422 280.98 70.7578 280.98 69.6562C280.98 68.6602 281.168 67.7754 281.543 67.002C281.918 66.2285 282.469 65.5781 283.195 65.0508C283.934 64.5117 284.854 64.1074 285.955 63.8379C287.057 63.5566 288.334 63.416 289.787 63.416H292.723ZM306.117 47.9824V75H301.055V47.9824H306.117ZM318.105 55.9805L309.844 65.4023L305.414 69.8848L303.568 66.2285L307.084 61.7637L312.023 55.9805H318.105ZM312.85 75L307.225 66.2109L310.723 63.1523L318.686 75H312.85ZM328.688 75.3516C327.211 75.3516 325.887 75.1172 324.715 74.6484C323.543 74.168 322.547 73.5059 321.727 72.6621C320.918 71.8184 320.297 70.8398 319.863 69.7266C319.43 68.6016 319.213 67.4062 319.213 66.1406V65.4375C319.213 63.9961 319.418 62.6777 319.828 61.4824C320.238 60.2871 320.824 59.25 321.586 58.3711C322.359 57.4922 323.297 56.8184 324.398 56.3496C325.5 55.8691 326.742 55.6289 328.125 55.6289C329.473 55.6289 330.668 55.8516 331.711 56.2969C332.754 56.7422 333.627 57.375 334.33 58.1953C335.045 59.0156 335.584 60 335.947 61.1484C336.311 62.2852 336.492 63.5508 336.492 64.9453V67.0547H321.375V63.6797H331.518V63.293C331.518 62.5898 331.389 61.9629 331.131 61.4121C330.885 60.8496 330.51 60.4043 330.006 60.0762C329.502 59.748 328.857 59.584 328.072 59.584C327.404 59.584 326.83 59.7305 326.35 60.0234C325.869 60.3164 325.477 60.7266 325.172 61.2539C324.879 61.7812 324.656 62.4023 324.504 63.1172C324.363 63.8203 324.293 64.5938 324.293 65.4375V66.1406C324.293 66.9023 324.398 67.6055 324.609 68.25C324.832 68.8945 325.143 69.4512 325.541 69.9199C325.951 70.3887 326.443 70.752 327.018 71.0098C327.604 71.2676 328.266 71.3965 329.004 71.3965C329.918 71.3965 330.768 71.2207 331.553 70.8691C332.35 70.5059 333.035 69.9609 333.609 69.2344L336.07 71.9062C335.672 72.4805 335.127 73.0312 334.436 73.5586C333.756 74.0859 332.936 74.5195 331.975 74.8594C331.014 75.1875 329.918 75.3516 328.688 75.3516ZM344.438 60.1289V75H339.375V55.9805H344.139L344.438 60.1289ZM350.168 55.8574L350.08 60.5508C349.834 60.5156 349.535 60.4863 349.184 60.4629C348.844 60.4277 348.533 60.4102 348.252 60.4102C347.537 60.4102 346.916 60.5039 346.389 60.6914C345.873 60.8672 345.439 61.1309 345.088 61.4824C344.748 61.834 344.49 62.2617 344.314 62.7656C344.15 63.2695 344.057 63.8438 344.033 64.4883L343.014 64.1719C343.014 62.9414 343.137 61.8105 343.383 60.7793C343.629 59.7363 343.986 58.8281 344.455 58.0547C344.936 57.2812 345.521 56.6836 346.213 56.2617C346.904 55.8398 347.695 55.6289 348.586 55.6289C348.867 55.6289 349.154 55.6523 349.447 55.6992C349.74 55.7344 349.98 55.7871 350.168 55.8574Z" fill="#888888"/>
<path d="M116.543 129.418C116.543 128.798 116.452 128.242 116.27 127.75C116.087 127.24 115.75 126.766 115.258 126.328C114.766 125.891 114.055 125.453 113.125 125.016C112.214 124.56 111.01 124.086 109.516 123.594C107.766 123.01 106.079 122.354 104.457 121.625C102.835 120.878 101.385 120.012 100.109 119.027C98.8333 118.025 97.8216 116.858 97.0742 115.527C96.3268 114.178 95.9531 112.611 95.9531 110.824C95.9531 109.111 96.3359 107.57 97.1016 106.203C97.8672 104.818 98.9336 103.642 100.301 102.676C101.686 101.691 103.309 100.944 105.168 100.434C107.027 99.9049 109.06 99.6406 111.266 99.6406C114.182 99.6406 116.753 100.151 118.977 101.172C121.219 102.174 122.969 103.605 124.227 105.465C125.503 107.306 126.141 109.484 126.141 112H116.598C116.598 110.997 116.388 110.113 115.969 109.348C115.568 108.582 114.957 107.98 114.137 107.543C113.316 107.105 112.286 106.887 111.047 106.887C109.844 106.887 108.832 107.069 108.012 107.434C107.191 107.798 106.572 108.29 106.152 108.91C105.733 109.512 105.523 110.177 105.523 110.906C105.523 111.508 105.688 112.055 106.016 112.547C106.362 113.021 106.845 113.467 107.465 113.887C108.103 114.306 108.868 114.707 109.762 115.09C110.673 115.473 111.694 115.846 112.824 116.211C114.939 116.885 116.816 117.642 118.457 118.48C120.116 119.301 121.51 120.24 122.641 121.297C123.789 122.336 124.655 123.521 125.238 124.852C125.84 126.182 126.141 127.686 126.141 129.363C126.141 131.15 125.794 132.736 125.102 134.121C124.409 135.507 123.415 136.682 122.121 137.648C120.827 138.596 119.277 139.316 117.473 139.809C115.668 140.301 113.654 140.547 111.43 140.547C109.388 140.547 107.374 140.292 105.387 139.781C103.418 139.253 101.632 138.451 100.027 137.375C98.4232 136.281 97.138 134.887 96.1719 133.191C95.224 131.478 94.75 129.445 94.75 127.094H104.375C104.375 128.26 104.53 129.245 104.84 130.047C105.15 130.849 105.605 131.496 106.207 131.988C106.809 132.462 107.547 132.809 108.422 133.027C109.297 133.228 110.299 133.328 111.43 133.328C112.651 133.328 113.635 133.155 114.383 132.809C115.13 132.444 115.677 131.97 116.023 131.387C116.37 130.785 116.543 130.129 116.543 129.418ZM143.148 133.438C144.005 133.438 144.734 133.283 145.336 132.973C145.956 132.645 146.421 132.189 146.73 131.605C147.059 131.004 147.214 130.284 147.195 129.445H155.863C155.882 131.669 155.335 133.62 154.223 135.297C153.129 136.956 151.634 138.25 149.738 139.18C147.861 140.091 145.737 140.547 143.367 140.547C141.052 140.547 139.029 140.173 137.297 139.426C135.565 138.66 134.116 137.603 132.949 136.254C131.801 134.887 130.935 133.292 130.352 131.469C129.786 129.646 129.504 127.668 129.504 125.535V124.906C129.504 122.773 129.786 120.796 130.352 118.973C130.935 117.132 131.801 115.536 132.949 114.188C134.116 112.82 135.556 111.763 137.27 111.016C139.001 110.25 141.016 109.867 143.312 109.867C145.773 109.867 147.943 110.332 149.82 111.262C151.716 112.191 153.202 113.54 154.277 115.309C155.353 117.077 155.882 119.219 155.863 121.734H147.195C147.214 120.841 147.077 120.039 146.785 119.328C146.493 118.617 146.038 118.052 145.418 117.633C144.816 117.195 144.042 116.977 143.094 116.977C142.146 116.977 141.38 117.186 140.797 117.605C140.214 118.025 139.767 118.608 139.457 119.355C139.165 120.085 138.965 120.923 138.855 121.871C138.764 122.819 138.719 123.831 138.719 124.906V125.535C138.719 126.629 138.764 127.659 138.855 128.625C138.965 129.573 139.174 130.411 139.484 131.141C139.794 131.852 140.241 132.417 140.824 132.836C141.408 133.237 142.182 133.438 143.148 133.438ZM158.652 125.508V124.934C158.652 122.764 158.962 120.768 159.582 118.945C160.202 117.104 161.113 115.509 162.316 114.16C163.52 112.811 165.005 111.763 166.773 111.016C168.542 110.25 170.583 109.867 172.898 109.867C175.232 109.867 177.283 110.25 179.051 111.016C180.837 111.763 182.332 112.811 183.535 114.16C184.738 115.509 185.65 117.104 186.27 118.945C186.889 120.768 187.199 122.764 187.199 124.934V125.508C187.199 127.659 186.889 129.655 186.27 131.496C185.65 133.319 184.738 134.914 183.535 136.281C182.332 137.63 180.846 138.678 179.078 139.426C177.31 140.173 175.268 140.547 172.953 140.547C170.638 140.547 168.587 140.173 166.801 139.426C165.014 138.678 163.52 137.63 162.316 136.281C161.113 134.914 160.202 133.319 159.582 131.496C158.962 129.655 158.652 127.659 158.652 125.508ZM167.867 124.934V125.508C167.867 126.62 167.949 127.659 168.113 128.625C168.277 129.591 168.551 130.439 168.934 131.168C169.316 131.879 169.836 132.435 170.492 132.836C171.148 133.237 171.969 133.438 172.953 133.438C173.919 133.438 174.721 133.237 175.359 132.836C176.016 132.435 176.535 131.879 176.918 131.168C177.301 130.439 177.574 129.591 177.738 128.625C177.902 127.659 177.984 126.62 177.984 125.508V124.934C177.984 123.858 177.902 122.846 177.738 121.898C177.574 120.932 177.301 120.085 176.918 119.355C176.535 118.608 176.016 118.025 175.359 117.605C174.703 117.186 173.883 116.977 172.898 116.977C171.932 116.977 171.121 117.186 170.465 117.605C169.827 118.025 169.316 118.608 168.934 119.355C168.551 120.085 168.277 120.932 168.113 121.898C167.949 122.846 167.867 123.858 167.867 124.934ZM208.582 132.809V110.414H217.824V140H209.184L208.582 132.809ZM209.457 126.793L211.863 126.738C211.863 128.725 211.626 130.566 211.152 132.262C210.678 133.939 209.977 135.397 209.047 136.637C208.135 137.876 207.005 138.842 205.656 139.535C204.326 140.21 202.785 140.547 201.035 140.547C199.577 140.547 198.237 140.346 197.016 139.945C195.812 139.526 194.773 138.879 193.898 138.004C193.023 137.111 192.34 135.971 191.848 134.586C191.374 133.182 191.137 131.505 191.137 129.555V110.414H200.352V129.609C200.352 130.266 200.434 130.831 200.598 131.305C200.762 131.779 200.999 132.18 201.309 132.508C201.618 132.818 202.001 133.055 202.457 133.219C202.931 133.365 203.469 133.438 204.07 133.438C205.456 133.438 206.54 133.146 207.324 132.562C208.108 131.979 208.655 131.186 208.965 130.184C209.293 129.181 209.457 128.051 209.457 126.793ZM238.496 110.414V116.812H220.668V110.414H238.496ZM224.414 103.059H233.629V130.348C233.629 131.132 233.72 131.742 233.902 132.18C234.085 132.599 234.395 132.9 234.832 133.082C235.288 133.246 235.889 133.328 236.637 133.328C237.165 133.328 237.603 133.319 237.949 133.301C238.296 133.264 238.624 133.219 238.934 133.164V139.754C238.15 140.009 237.329 140.201 236.473 140.328C235.616 140.474 234.704 140.547 233.738 140.547C231.77 140.547 230.083 140.237 228.68 139.617C227.294 138.997 226.237 138.022 225.508 136.691C224.779 135.361 224.414 133.629 224.414 131.496V103.059ZM273.414 108.555L263.707 140H253.398L268.027 100.188H274.562L273.414 108.555ZM281.453 140L271.719 108.555L270.461 100.188H277.078L291.789 140H281.453ZM281.07 125.152V132.562H260.645V125.152H281.07ZM304.914 100.188V140H295.344V100.188H304.914Z" fill="black"/>
<rect x="93" y="178" width="917" height="77" rx="10" fill="#D3D3D3"/>
<rect x="111" y="196" width="98" height="41" rx="3" fill="#424242"/>
<rect x="111" y="196" width="98" height="41" rx="3" stroke="#424242" stroke-width="4"/>
<path d="M137.078 210.203V223H133.993V210.203H137.078ZM142.053 215.529V217.902H136.199V215.529H142.053ZM142.554 210.203V212.585H136.199V210.203H142.554ZM146.825 209.5V223H143.854V209.5H146.825ZM154.208 220.688V213.49H157.179V223H154.401L154.208 220.688ZM154.489 218.755L155.263 218.737C155.263 219.376 155.187 219.968 155.034 220.513C154.882 221.052 154.656 221.521 154.357 221.919C154.064 222.317 153.701 222.628 153.268 222.851C152.84 223.067 152.345 223.176 151.782 223.176C151.313 223.176 150.883 223.111 150.49 222.982C150.104 222.848 149.77 222.64 149.488 222.358C149.207 222.071 148.987 221.705 148.829 221.26C148.677 220.809 148.601 220.27 148.601 219.643V213.49H151.562V219.66C151.562 219.871 151.589 220.053 151.642 220.205C151.694 220.357 151.771 220.486 151.87 220.592C151.97 220.691 152.093 220.768 152.239 220.82C152.392 220.867 152.564 220.891 152.758 220.891C153.203 220.891 153.552 220.797 153.804 220.609C154.056 220.422 154.231 220.167 154.331 219.845C154.437 219.522 154.489 219.159 154.489 218.755ZM163.823 213.49V215.547H158.093V213.49H163.823ZM159.297 211.126H162.259V219.897C162.259 220.149 162.288 220.346 162.347 220.486C162.405 220.621 162.505 220.718 162.646 220.776C162.792 220.829 162.985 220.855 163.226 220.855C163.396 220.855 163.536 220.853 163.647 220.847C163.759 220.835 163.864 220.82 163.964 220.803V222.921C163.712 223.003 163.448 223.064 163.173 223.105C162.897 223.152 162.604 223.176 162.294 223.176C161.661 223.176 161.119 223.076 160.668 222.877C160.223 222.678 159.883 222.364 159.648 221.937C159.414 221.509 159.297 220.952 159.297 220.267V211.126ZM170.011 213.49V215.547H164.28V213.49H170.011ZM165.484 211.126H168.446V219.897C168.446 220.149 168.476 220.346 168.534 220.486C168.593 220.621 168.692 220.718 168.833 220.776C168.979 220.829 169.173 220.855 169.413 220.855C169.583 220.855 169.724 220.853 169.835 220.847C169.946 220.835 170.052 220.82 170.151 220.803V222.921C169.899 223.003 169.636 223.064 169.36 223.105C169.085 223.152 168.792 223.176 168.481 223.176C167.849 223.176 167.307 223.076 166.855 222.877C166.41 222.678 166.07 222.364 165.836 221.937C165.602 221.509 165.484 220.952 165.484 220.267V211.126ZM175.794 223.176C175.021 223.176 174.329 223.056 173.72 222.815C173.11 222.569 172.595 222.232 172.173 221.805C171.757 221.377 171.438 220.885 171.215 220.328C170.998 219.771 170.89 219.183 170.89 218.562V218.228C170.89 217.53 170.986 216.886 171.18 216.294C171.373 215.696 171.66 215.175 172.041 214.729C172.422 214.284 172.899 213.938 173.474 213.692C174.048 213.44 174.716 213.314 175.478 213.314C176.151 213.314 176.755 213.423 177.288 213.64C177.821 213.856 178.272 214.167 178.642 214.571C179.017 214.976 179.301 215.465 179.494 216.039C179.693 216.613 179.793 217.258 179.793 217.973V219.177H172.023V217.322H176.901V217.094C176.907 216.777 176.852 216.508 176.734 216.285C176.623 216.062 176.459 215.893 176.242 215.775C176.025 215.658 175.762 215.6 175.451 215.6C175.129 215.6 174.862 215.67 174.651 215.811C174.446 215.951 174.285 216.145 174.168 216.391C174.057 216.631 173.978 216.909 173.931 217.226C173.884 217.542 173.86 217.876 173.86 218.228V218.562C173.86 218.913 173.907 219.232 174.001 219.52C174.101 219.807 174.241 220.053 174.423 220.258C174.61 220.457 174.833 220.612 175.091 220.724C175.354 220.835 175.653 220.891 175.987 220.891C176.392 220.891 176.79 220.814 177.183 220.662C177.575 220.51 177.912 220.258 178.193 219.906L179.538 221.506C179.345 221.781 179.069 222.048 178.712 222.306C178.36 222.563 177.938 222.774 177.446 222.938C176.954 223.097 176.403 223.176 175.794 223.176ZM183.985 215.846V223H181.023V213.49H183.792L183.985 215.846ZM186.798 213.42L186.745 216.171C186.628 216.159 186.47 216.145 186.271 216.127C186.071 216.109 185.904 216.101 185.77 216.101C185.424 216.101 185.125 216.142 184.873 216.224C184.627 216.3 184.422 216.417 184.258 216.575C184.1 216.728 183.982 216.921 183.906 217.155C183.836 217.39 183.804 217.662 183.81 217.973L183.273 217.621C183.273 216.982 183.335 216.402 183.458 215.881C183.587 215.354 183.769 214.899 184.003 214.519C184.237 214.132 184.521 213.836 184.855 213.631C185.189 213.42 185.564 213.314 185.98 213.314C186.127 213.314 186.271 213.323 186.411 213.341C186.558 213.358 186.687 213.385 186.798 213.42Z" fill="white"/>
<rect x="229" y="196" width="130" height="41" rx="3" fill="#424242"/>
<rect x="229" y="196" width="130" height="41" rx="3" stroke="#424242" stroke-width="4"/>
<path d="M260.883 220.627V223H254.062V220.627H260.883ZM255.161 210.203V223H252.076V210.203H255.161ZM260.004 215.283V217.577H254.062V215.283H260.004ZM260.909 210.203V212.585H254.062V210.203H260.909ZM264.521 213.49L265.857 216.109L267.237 213.49H270.313L267.817 218.122L270.445 223H267.343L265.857 220.188L264.381 223H261.278L263.906 218.122L261.419 213.49H264.521ZM274.277 215.318V226.656H271.315V213.49H274.075L274.277 215.318ZM280.113 218.131V218.315C280.113 219.007 280.034 219.648 279.876 220.24C279.718 220.832 279.483 221.348 279.173 221.787C278.862 222.227 278.476 222.569 278.013 222.815C277.556 223.056 277.025 223.176 276.422 223.176C275.854 223.176 275.364 223.05 274.954 222.798C274.544 222.546 274.201 222.197 273.926 221.752C273.65 221.307 273.428 220.797 273.258 220.223C273.088 219.648 272.953 219.042 272.854 218.403V218.166C272.953 217.48 273.088 216.845 273.258 216.259C273.428 215.667 273.65 215.151 273.926 214.712C274.201 214.272 274.541 213.93 274.945 213.684C275.355 213.438 275.845 213.314 276.413 213.314C277.017 213.314 277.547 213.429 278.004 213.657C278.467 213.886 278.854 214.214 279.164 214.642C279.48 215.063 279.718 215.57 279.876 216.162C280.034 216.754 280.113 217.41 280.113 218.131ZM277.151 218.315V218.131C277.151 217.762 277.125 217.425 277.072 217.12C277.02 216.81 276.935 216.54 276.817 216.312C276.706 216.083 276.557 215.907 276.369 215.784C276.182 215.661 275.95 215.6 275.675 215.6C275.358 215.6 275.092 215.649 274.875 215.749C274.664 215.843 274.494 215.989 274.365 216.188C274.242 216.382 274.154 216.625 274.102 216.918C274.055 217.205 274.034 217.542 274.04 217.929V218.649C274.028 219.095 274.072 219.487 274.172 219.827C274.271 220.161 274.444 220.422 274.69 220.609C274.937 220.797 275.271 220.891 275.692 220.891C275.974 220.891 276.208 220.826 276.396 220.697C276.583 220.562 276.732 220.378 276.844 220.144C276.955 219.903 277.034 219.628 277.081 219.317C277.128 219.007 277.151 218.673 277.151 218.315ZM284.42 215.846V223H281.458V213.49H284.227L284.42 215.846ZM287.232 213.42L287.18 216.171C287.062 216.159 286.904 216.145 286.705 216.127C286.506 216.109 286.339 216.101 286.204 216.101C285.858 216.101 285.56 216.142 285.308 216.224C285.062 216.3 284.856 216.417 284.692 216.575C284.534 216.728 284.417 216.921 284.341 217.155C284.271 217.39 284.238 217.662 284.244 217.973L283.708 217.621C283.708 216.982 283.77 216.402 283.893 215.881C284.021 215.354 284.203 214.899 284.438 214.519C284.672 214.132 284.956 213.836 285.29 213.631C285.624 213.42 285.999 213.314 286.415 213.314C286.562 213.314 286.705 213.323 286.846 213.341C286.992 213.358 287.121 213.385 287.232 213.42ZM292.682 223.176C291.908 223.176 291.217 223.056 290.607 222.815C289.998 222.569 289.482 222.232 289.061 221.805C288.645 221.377 288.325 220.885 288.103 220.328C287.886 219.771 287.777 219.183 287.777 218.562V218.228C287.777 217.53 287.874 216.886 288.067 216.294C288.261 215.696 288.548 215.175 288.929 214.729C289.31 214.284 289.787 213.938 290.361 213.692C290.936 213.44 291.604 213.314 292.365 213.314C293.039 213.314 293.643 213.423 294.176 213.64C294.709 213.856 295.16 214.167 295.529 214.571C295.904 214.976 296.188 215.465 296.382 216.039C296.581 216.613 296.681 217.258 296.681 217.973V219.177H288.911V217.322H293.789V217.094C293.795 216.777 293.739 216.508 293.622 216.285C293.511 216.062 293.347 215.893 293.13 215.775C292.913 215.658 292.649 215.6 292.339 215.6C292.017 215.6 291.75 215.67 291.539 215.811C291.334 215.951 291.173 216.145 291.056 216.391C290.944 216.631 290.865 216.909 290.818 217.226C290.771 217.542 290.748 217.876 290.748 218.228V218.562C290.748 218.913 290.795 219.232 290.889 219.52C290.988 219.807 291.129 220.053 291.311 220.258C291.498 220.457 291.721 220.612 291.979 220.724C292.242 220.835 292.541 220.891 292.875 220.891C293.279 220.891 293.678 220.814 294.07 220.662C294.463 220.51 294.8 220.258 295.081 219.906L296.426 221.506C296.232 221.781 295.957 222.048 295.6 222.306C295.248 222.563 294.826 222.774 294.334 222.938C293.842 223.097 293.291 223.176 292.682 223.176ZM302.868 220.328C302.868 220.164 302.812 220.023 302.701 219.906C302.596 219.783 302.408 219.672 302.139 219.572C301.869 219.467 301.491 219.361 301.005 219.256C300.542 219.156 300.105 219.024 299.695 218.86C299.291 218.696 298.937 218.497 298.632 218.263C298.327 218.028 298.087 217.75 297.911 217.428C297.741 217.105 297.656 216.736 297.656 216.32C297.656 215.916 297.741 215.535 297.911 215.178C298.087 214.814 298.342 214.495 298.676 214.22C299.016 213.938 299.429 213.719 299.915 213.561C300.401 213.396 300.955 213.314 301.576 213.314C302.432 213.314 303.17 213.446 303.791 213.71C304.412 213.968 304.89 214.331 305.224 214.8C305.563 215.263 305.733 215.799 305.733 216.408H302.771C302.771 216.168 302.73 215.963 302.648 215.793C302.572 215.623 302.446 215.494 302.271 215.406C302.095 215.312 301.86 215.266 301.567 215.266C301.362 215.266 301.175 215.304 301.005 215.38C300.841 215.456 300.709 215.562 300.609 215.696C300.51 215.831 300.46 215.989 300.46 216.171C300.46 216.3 300.489 216.417 300.548 216.522C300.612 216.622 300.709 216.716 300.838 216.804C300.967 216.886 301.131 216.962 301.33 217.032C301.529 217.097 301.77 217.155 302.051 217.208C302.689 217.325 303.287 217.492 303.844 217.709C304.4 217.926 304.852 218.233 305.197 218.632C305.549 219.03 305.725 219.566 305.725 220.24C305.725 220.662 305.628 221.052 305.435 221.409C305.241 221.761 304.963 222.071 304.6 222.341C304.236 222.604 303.8 222.81 303.29 222.956C302.78 223.103 302.206 223.176 301.567 223.176C300.659 223.176 299.892 223.015 299.265 222.692C298.638 222.364 298.163 221.954 297.841 221.462C297.524 220.964 297.366 220.46 297.366 219.95H300.126C300.138 220.243 300.208 220.483 300.337 220.671C300.472 220.858 300.65 220.996 300.873 221.084C301.096 221.172 301.354 221.216 301.646 221.216C301.916 221.216 302.139 221.178 302.314 221.102C302.496 221.025 302.634 220.923 302.728 220.794C302.821 220.659 302.868 220.504 302.868 220.328ZM312.097 220.328C312.097 220.164 312.041 220.023 311.93 219.906C311.824 219.783 311.637 219.672 311.367 219.572C311.098 219.467 310.72 219.361 310.233 219.256C309.771 219.156 309.334 219.024 308.924 218.86C308.52 218.696 308.165 218.497 307.86 218.263C307.556 218.028 307.315 217.75 307.14 217.428C306.97 217.105 306.885 216.736 306.885 216.32C306.885 215.916 306.97 215.535 307.14 215.178C307.315 214.814 307.57 214.495 307.904 214.22C308.244 213.938 308.657 213.719 309.144 213.561C309.63 213.396 310.184 213.314 310.805 213.314C311.66 213.314 312.398 213.446 313.02 213.71C313.641 213.968 314.118 214.331 314.452 214.8C314.792 215.263 314.962 215.799 314.962 216.408H312C312 216.168 311.959 215.963 311.877 215.793C311.801 215.623 311.675 215.494 311.499 215.406C311.323 215.312 311.089 215.266 310.796 215.266C310.591 215.266 310.403 215.304 310.233 215.38C310.069 215.456 309.938 215.562 309.838 215.696C309.738 215.831 309.688 215.989 309.688 216.171C309.688 216.3 309.718 216.417 309.776 216.522C309.841 216.622 309.938 216.716 310.066 216.804C310.195 216.886 310.359 216.962 310.559 217.032C310.758 217.097 310.998 217.155 311.279 217.208C311.918 217.325 312.516 217.492 313.072 217.709C313.629 217.926 314.08 218.233 314.426 218.632C314.777 219.03 314.953 219.566 314.953 220.24C314.953 220.662 314.856 221.052 314.663 221.409C314.47 221.761 314.191 222.071 313.828 222.341C313.465 222.604 313.028 222.81 312.519 222.956C312.009 223.103 311.435 223.176 310.796 223.176C309.888 223.176 309.12 223.015 308.493 222.692C307.866 222.364 307.392 221.954 307.069 221.462C306.753 220.964 306.595 220.46 306.595 219.95H309.354C309.366 220.243 309.437 220.483 309.565 220.671C309.7 220.858 309.879 220.996 310.102 221.084C310.324 221.172 310.582 221.216 310.875 221.216C311.145 221.216 311.367 221.178 311.543 221.102C311.725 221.025 311.862 220.923 311.956 220.794C312.05 220.659 312.097 220.504 312.097 220.328ZM321.571 218.983V210.203H324.647V218.983C324.647 219.839 324.451 220.58 324.059 221.207C323.672 221.834 323.145 222.32 322.477 222.666C321.814 223.006 321.07 223.176 320.244 223.176C319.389 223.176 318.627 223.032 317.959 222.745C317.297 222.458 316.775 222.016 316.395 221.418C316.02 220.82 315.832 220.059 315.832 219.133H318.926C318.926 219.566 318.976 219.906 319.075 220.152C319.175 220.393 319.321 220.562 319.515 220.662C319.714 220.756 319.957 220.803 320.244 220.803C320.525 220.803 320.763 220.732 320.956 220.592C321.155 220.445 321.308 220.237 321.413 219.968C321.519 219.692 321.571 219.364 321.571 218.983ZM333.199 219.599C333.199 219.399 333.17 219.221 333.111 219.062C333.053 218.898 332.944 218.746 332.786 218.605C332.628 218.465 332.399 218.324 332.101 218.184C331.808 218.037 331.421 217.885 330.94 217.727C330.378 217.539 329.836 217.328 329.314 217.094C328.793 216.854 328.327 216.575 327.917 216.259C327.507 215.937 327.182 215.562 326.941 215.134C326.701 214.7 326.581 214.196 326.581 213.622C326.581 213.071 326.704 212.576 326.95 212.137C327.196 211.691 327.539 211.313 327.979 211.003C328.424 210.687 328.945 210.446 329.543 210.282C330.141 210.112 330.794 210.027 331.503 210.027C332.44 210.027 333.267 210.191 333.981 210.52C334.702 210.842 335.265 211.302 335.669 211.899C336.079 212.491 336.284 213.191 336.284 214H333.217C333.217 213.678 333.149 213.394 333.015 213.147C332.886 212.901 332.689 212.708 332.426 212.567C332.162 212.427 331.831 212.356 331.433 212.356C331.046 212.356 330.721 212.415 330.457 212.532C330.193 212.649 329.994 212.808 329.859 213.007C329.725 213.2 329.657 213.414 329.657 213.648C329.657 213.842 329.71 214.018 329.815 214.176C329.927 214.328 330.082 214.472 330.281 214.606C330.486 214.741 330.732 214.87 331.02 214.993C331.312 215.116 331.641 215.236 332.004 215.354C332.684 215.57 333.287 215.813 333.814 216.083C334.348 216.347 334.796 216.648 335.159 216.988C335.528 217.322 335.807 217.703 335.994 218.131C336.188 218.559 336.284 219.042 336.284 219.581C336.284 220.155 336.173 220.665 335.95 221.11C335.728 221.556 335.408 221.934 334.992 222.244C334.576 222.549 334.078 222.78 333.498 222.938C332.918 223.097 332.271 223.176 331.556 223.176C330.899 223.176 330.252 223.094 329.613 222.93C328.98 222.76 328.406 222.502 327.891 222.156C327.375 221.805 326.962 221.356 326.651 220.812C326.347 220.261 326.194 219.607 326.194 218.852H329.288C329.288 219.227 329.338 219.543 329.438 219.801C329.537 220.059 329.684 220.267 329.877 220.425C330.07 220.577 330.308 220.688 330.589 220.759C330.87 220.823 331.192 220.855 331.556 220.855C331.948 220.855 332.265 220.8 332.505 220.688C332.745 220.571 332.921 220.419 333.032 220.231C333.144 220.038 333.199 219.827 333.199 219.599Z" fill="white"/>
<rect x="379" y="196" width="104" height="41" rx="3" fill="#424242"/>
<rect x="379" y="196" width="104" height="41" rx="3" stroke="#424242" stroke-width="4"/>
<path d="M410.812 220.627V223H404.343V220.627H410.812ZM405.441 210.203V223H402.356V210.203H405.441ZM416.911 220.609V216.689C416.911 216.42 416.873 216.188 416.797 215.995C416.721 215.802 416.601 215.652 416.437 215.547C416.272 215.436 416.053 215.38 415.777 215.38C415.555 215.38 415.364 215.418 415.206 215.494C415.048 215.57 414.928 215.685 414.846 215.837C414.764 215.989 414.723 216.183 414.723 216.417H411.761C411.761 215.978 411.857 215.57 412.051 215.195C412.25 214.814 412.531 214.483 412.895 214.202C413.264 213.921 413.703 213.704 414.213 213.552C414.729 213.394 415.303 213.314 415.936 213.314C416.691 213.314 417.365 213.44 417.957 213.692C418.555 213.944 419.026 214.322 419.372 214.826C419.718 215.324 419.891 215.951 419.891 216.707V220.601C419.891 221.222 419.926 221.693 419.996 222.016C420.066 222.332 420.166 222.61 420.295 222.851V223H417.324C417.184 222.707 417.078 222.35 417.008 221.928C416.943 221.5 416.911 221.061 416.911 220.609ZM417.271 217.19L417.289 218.772H415.979C415.704 218.772 415.47 218.811 415.276 218.887C415.089 218.963 414.937 219.068 414.819 219.203C414.708 219.332 414.626 219.479 414.573 219.643C414.526 219.807 414.503 219.979 414.503 220.161C414.503 220.337 414.544 220.495 414.626 220.636C414.714 220.771 414.831 220.876 414.978 220.952C415.124 221.028 415.288 221.066 415.47 221.066C415.798 221.066 416.076 221.005 416.305 220.882C416.539 220.753 416.718 220.598 416.841 220.416C416.964 220.234 417.025 220.064 417.025 219.906L417.676 221.119C417.559 221.354 417.424 221.591 417.271 221.831C417.125 222.071 416.94 222.294 416.718 222.499C416.501 222.698 416.234 222.862 415.918 222.991C415.602 223.114 415.218 223.176 414.767 223.176C414.181 223.176 413.642 223.056 413.149 222.815C412.663 222.575 412.273 222.241 411.98 221.813C411.688 221.38 411.541 220.882 411.541 220.319C411.541 219.827 411.629 219.388 411.805 219.001C411.986 218.614 412.259 218.286 412.622 218.017C412.985 217.747 413.448 217.542 414.011 217.401C414.573 217.261 415.235 217.19 415.997 217.19H417.271ZM424.522 215.846V223H421.561V213.49H424.329L424.522 215.846ZM427.335 213.42L427.282 216.171C427.165 216.159 427.007 216.145 426.808 216.127C426.608 216.109 426.441 216.101 426.307 216.101C425.961 216.101 425.662 216.142 425.41 216.224C425.164 216.3 424.959 216.417 424.795 216.575C424.637 216.728 424.52 216.921 424.443 217.155C424.373 217.39 424.341 217.662 424.347 217.973L423.811 217.621C423.811 216.982 423.872 216.402 423.995 215.881C424.124 215.354 424.306 214.899 424.54 214.519C424.774 214.132 425.059 213.836 425.393 213.631C425.727 213.42 426.102 213.314 426.518 213.314C426.664 213.314 426.808 213.323 426.948 213.341C427.095 213.358 427.224 213.385 427.335 213.42ZM433.03 220.609V216.689C433.03 216.42 432.992 216.188 432.916 215.995C432.84 215.802 432.72 215.652 432.556 215.547C432.392 215.436 432.172 215.38 431.896 215.38C431.674 215.38 431.483 215.418 431.325 215.494C431.167 215.57 431.047 215.685 430.965 215.837C430.883 215.989 430.842 216.183 430.842 216.417H427.88C427.88 215.978 427.977 215.57 428.17 215.195C428.369 214.814 428.65 214.483 429.014 214.202C429.383 213.921 429.822 213.704 430.332 213.552C430.848 213.394 431.422 213.314 432.055 213.314C432.811 213.314 433.484 213.44 434.076 213.692C434.674 213.944 435.146 214.322 435.491 214.826C435.837 215.324 436.01 215.951 436.01 216.707V220.601C436.01 221.222 436.045 221.693 436.115 222.016C436.186 222.332 436.285 222.61 436.414 222.851V223H433.443C433.303 222.707 433.197 222.35 433.127 221.928C433.062 221.5 433.03 221.061 433.03 220.609ZM433.391 217.19L433.408 218.772H432.099C431.823 218.772 431.589 218.811 431.396 218.887C431.208 218.963 431.056 219.068 430.938 219.203C430.827 219.332 430.745 219.479 430.692 219.643C430.646 219.807 430.622 219.979 430.622 220.161C430.622 220.337 430.663 220.495 430.745 220.636C430.833 220.771 430.95 220.876 431.097 220.952C431.243 221.028 431.407 221.066 431.589 221.066C431.917 221.066 432.195 221.005 432.424 220.882C432.658 220.753 432.837 220.598 432.96 220.416C433.083 220.234 433.145 220.064 433.145 219.906L433.795 221.119C433.678 221.354 433.543 221.591 433.391 221.831C433.244 222.071 433.06 222.294 432.837 222.499C432.62 222.698 432.354 222.862 432.037 222.991C431.721 223.114 431.337 223.176 430.886 223.176C430.3 223.176 429.761 223.056 429.269 222.815C428.782 222.575 428.393 222.241 428.1 221.813C427.807 221.38 427.66 220.882 427.66 220.319C427.66 219.827 427.748 219.388 427.924 219.001C428.105 218.614 428.378 218.286 428.741 218.017C429.104 217.747 429.567 217.542 430.13 217.401C430.692 217.261 431.354 217.19 432.116 217.19H433.391ZM440.94 220.97L442.812 213.49H445.933L442.821 223H440.976L440.94 220.97ZM439.833 213.49L441.679 220.97L441.661 223H439.807L436.704 213.49H439.833ZM451.294 223.176C450.521 223.176 449.829 223.056 449.22 222.815C448.61 222.569 448.095 222.232 447.673 221.805C447.257 221.377 446.938 220.885 446.715 220.328C446.498 219.771 446.39 219.183 446.39 218.562V218.228C446.39 217.53 446.486 216.886 446.68 216.294C446.873 215.696 447.16 215.175 447.541 214.729C447.922 214.284 448.399 213.938 448.974 213.692C449.548 213.44 450.216 213.314 450.978 213.314C451.651 213.314 452.255 213.423 452.788 213.64C453.321 213.856 453.772 214.167 454.142 214.571C454.517 214.976 454.801 215.465 454.994 216.039C455.193 216.613 455.293 217.258 455.293 217.973V219.177H447.523V217.322H452.401V217.094C452.407 216.777 452.352 216.508 452.234 216.285C452.123 216.062 451.959 215.893 451.742 215.775C451.525 215.658 451.262 215.6 450.951 215.6C450.629 215.6 450.362 215.67 450.151 215.811C449.946 215.951 449.785 216.145 449.668 216.391C449.557 216.631 449.478 216.909 449.431 217.226C449.384 217.542 449.36 217.876 449.36 218.228V218.562C449.36 218.913 449.407 219.232 449.501 219.52C449.601 219.807 449.741 220.053 449.923 220.258C450.11 220.457 450.333 220.612 450.591 220.724C450.854 220.835 451.153 220.891 451.487 220.891C451.892 220.891 452.29 220.814 452.683 220.662C453.075 220.51 453.412 220.258 453.693 219.906L455.038 221.506C454.845 221.781 454.569 222.048 454.212 222.306C453.86 222.563 453.438 222.774 452.946 222.938C452.454 223.097 451.903 223.176 451.294 223.176ZM459.626 209.5V223H456.655V209.5H459.626Z" fill="white"/>
<rect x="503" y="196" width="190" height="41" rx="3" fill="#424242"/>
<rect x="503" y="196" width="190" height="41" rx="3" stroke="#424242" stroke-width="4"/>
<path d="M527.564 210.203H530.078L532.935 219.106L535.791 210.203H538.305L533.954 223H531.915L527.564 210.203ZM526.035 210.203H528.637L529.12 220.012V223H526.035V210.203ZM537.232 210.203H539.843V223H536.749V220.012L537.232 210.203ZM546.619 220.609V216.689C546.619 216.42 546.581 216.188 546.505 215.995C546.429 215.802 546.309 215.652 546.145 215.547C545.98 215.436 545.761 215.38 545.485 215.38C545.263 215.38 545.072 215.418 544.914 215.494C544.756 215.57 544.636 215.685 544.554 215.837C544.472 215.989 544.431 216.183 544.431 216.417H541.469C541.469 215.978 541.565 215.57 541.759 215.195C541.958 214.814 542.239 214.483 542.603 214.202C542.972 213.921 543.411 213.704 543.921 213.552C544.437 213.394 545.011 213.314 545.644 213.314C546.399 213.314 547.073 213.44 547.665 213.692C548.263 213.944 548.734 214.322 549.08 214.826C549.426 215.324 549.599 215.951 549.599 216.707V220.601C549.599 221.222 549.634 221.693 549.704 222.016C549.774 222.332 549.874 222.61 550.003 222.851V223H547.032C546.892 222.707 546.786 222.35 546.716 221.928C546.651 221.5 546.619 221.061 546.619 220.609ZM546.979 217.19L546.997 218.772H545.688C545.412 218.772 545.178 218.811 544.984 218.887C544.797 218.963 544.645 219.068 544.527 219.203C544.416 219.332 544.334 219.479 544.281 219.643C544.234 219.807 544.211 219.979 544.211 220.161C544.211 220.337 544.252 220.495 544.334 220.636C544.422 220.771 544.539 220.876 544.686 220.952C544.832 221.028 544.996 221.066 545.178 221.066C545.506 221.066 545.784 221.005 546.013 220.882C546.247 220.753 546.426 220.598 546.549 220.416C546.672 220.234 546.733 220.064 546.733 219.906L547.384 221.119C547.267 221.354 547.132 221.591 546.979 221.831C546.833 222.071 546.648 222.294 546.426 222.499C546.209 222.698 545.942 222.862 545.626 222.991C545.31 223.114 544.926 223.176 544.475 223.176C543.889 223.176 543.35 223.056 542.857 222.815C542.371 222.575 541.981 222.241 541.688 221.813C541.396 221.38 541.249 220.882 541.249 220.319C541.249 219.827 541.337 219.388 541.513 219.001C541.694 218.614 541.967 218.286 542.33 218.017C542.693 217.747 543.156 217.542 543.719 217.401C544.281 217.261 544.943 217.19 545.705 217.19H546.979ZM555.259 220.891C555.534 220.891 555.769 220.841 555.962 220.741C556.161 220.636 556.311 220.489 556.41 220.302C556.516 220.108 556.565 219.877 556.56 219.607H559.346C559.352 220.322 559.176 220.949 558.818 221.488C558.467 222.021 557.986 222.438 557.377 222.736C556.773 223.029 556.091 223.176 555.329 223.176C554.585 223.176 553.935 223.056 553.378 222.815C552.821 222.569 552.355 222.229 551.98 221.796C551.611 221.356 551.333 220.844 551.146 220.258C550.964 219.672 550.873 219.036 550.873 218.351V218.148C550.873 217.463 550.964 216.827 551.146 216.241C551.333 215.649 551.611 215.137 551.98 214.703C552.355 214.264 552.818 213.924 553.369 213.684C553.926 213.438 554.573 213.314 555.312 213.314C556.103 213.314 556.8 213.464 557.403 213.763C558.013 214.062 558.49 214.495 558.836 215.063C559.182 215.632 559.352 216.32 559.346 217.129H556.56C556.565 216.842 556.521 216.584 556.428 216.355C556.334 216.127 556.188 215.945 555.988 215.811C555.795 215.67 555.546 215.6 555.241 215.6C554.937 215.6 554.69 215.667 554.503 215.802C554.315 215.937 554.172 216.124 554.072 216.364C553.979 216.599 553.914 216.868 553.879 217.173C553.85 217.478 553.835 217.803 553.835 218.148V218.351C553.835 218.702 553.85 219.033 553.879 219.344C553.914 219.648 553.981 219.918 554.081 220.152C554.181 220.381 554.324 220.562 554.512 220.697C554.699 220.826 554.948 220.891 555.259 220.891ZM563.512 209.5V223H560.55V209.5H563.512ZM563.16 217.92L562.466 217.938C562.466 217.27 562.548 216.654 562.712 216.092C562.876 215.529 563.11 215.04 563.415 214.624C563.72 214.208 564.086 213.886 564.514 213.657C564.941 213.429 565.416 213.314 565.938 213.314C566.406 213.314 566.834 213.382 567.221 213.517C567.613 213.651 567.95 213.868 568.231 214.167C568.519 214.466 568.738 214.855 568.891 215.336C569.049 215.816 569.128 216.402 569.128 217.094V223H566.148V217.076C566.148 216.689 566.093 216.391 565.981 216.18C565.876 215.963 565.724 215.813 565.524 215.731C565.325 215.644 565.082 215.6 564.795 215.6C564.449 215.6 564.168 215.658 563.951 215.775C563.734 215.893 563.567 216.057 563.45 216.268C563.339 216.473 563.263 216.716 563.222 216.997C563.181 217.278 563.16 217.586 563.16 217.92ZM573.9 213.49V223H570.93V213.49H573.9ZM570.754 211.038C570.754 210.616 570.906 210.271 571.211 210.001C571.516 209.731 571.911 209.597 572.397 209.597C572.884 209.597 573.279 209.731 573.584 210.001C573.889 210.271 574.041 210.616 574.041 211.038C574.041 211.46 573.889 211.806 573.584 212.075C573.279 212.345 572.884 212.479 572.397 212.479C571.911 212.479 571.516 212.345 571.211 212.075C570.906 211.806 570.754 211.46 570.754 211.038ZM578.638 215.521V223H575.676V213.49H578.453L578.638 215.521ZM578.286 217.92L577.592 217.938C577.592 217.211 577.68 216.563 577.855 215.995C578.031 215.421 578.28 214.935 578.603 214.536C578.925 214.138 579.309 213.836 579.754 213.631C580.205 213.42 580.706 213.314 581.257 213.314C581.696 213.314 582.098 213.379 582.461 213.508C582.83 213.637 583.146 213.845 583.41 214.132C583.68 214.419 583.885 214.8 584.025 215.274C584.172 215.743 584.245 216.323 584.245 217.015V223H581.266V217.006C581.266 216.625 581.213 216.335 581.107 216.136C581.002 215.931 580.85 215.79 580.65 215.714C580.451 215.638 580.208 215.6 579.921 215.6C579.616 215.6 579.358 215.658 579.147 215.775C578.937 215.893 578.767 216.057 578.638 216.268C578.515 216.473 578.424 216.716 578.365 216.997C578.312 217.278 578.286 217.586 578.286 217.92ZM590.494 223.176C589.721 223.176 589.029 223.056 588.42 222.815C587.811 222.569 587.295 222.232 586.873 221.805C586.457 221.377 586.138 220.885 585.915 220.328C585.698 219.771 585.59 219.183 585.59 218.562V218.228C585.59 217.53 585.687 216.886 585.88 216.294C586.073 215.696 586.36 215.175 586.741 214.729C587.122 214.284 587.6 213.938 588.174 213.692C588.748 213.44 589.416 213.314 590.178 213.314C590.852 213.314 591.455 213.423 591.988 213.64C592.521 213.856 592.973 214.167 593.342 214.571C593.717 214.976 594.001 215.465 594.194 216.039C594.394 216.613 594.493 217.258 594.493 217.973V219.177H586.724V217.322H591.602V217.094C591.607 216.777 591.552 216.508 591.435 216.285C591.323 216.062 591.159 215.893 590.942 215.775C590.726 215.658 590.462 215.6 590.151 215.6C589.829 215.6 589.562 215.67 589.352 215.811C589.146 215.951 588.985 216.145 588.868 216.391C588.757 216.631 588.678 216.909 588.631 217.226C588.584 217.542 588.561 217.876 588.561 218.228V218.562C588.561 218.913 588.607 219.232 588.701 219.52C588.801 219.807 588.941 220.053 589.123 220.258C589.311 220.457 589.533 220.612 589.791 220.724C590.055 220.835 590.354 220.891 590.688 220.891C591.092 220.891 591.49 220.814 591.883 220.662C592.275 220.51 592.612 220.258 592.894 219.906L594.238 221.506C594.045 221.781 593.77 222.048 593.412 222.306C593.061 222.563 592.639 222.774 592.146 222.938C591.654 223.097 591.104 223.176 590.494 223.176ZM608.775 220.627V223H602.307V220.627H608.775ZM603.405 210.203V223H600.32V210.203H603.405ZM614.541 223.176C613.768 223.176 613.076 223.056 612.467 222.815C611.857 222.569 611.342 222.232 610.92 221.805C610.504 221.377 610.185 220.885 609.962 220.328C609.745 219.771 609.637 219.183 609.637 218.562V218.228C609.637 217.53 609.733 216.886 609.927 216.294C610.12 215.696 610.407 215.175 610.788 214.729C611.169 214.284 611.646 213.938 612.221 213.692C612.795 213.44 613.463 213.314 614.225 213.314C614.898 213.314 615.502 213.423 616.035 213.64C616.568 213.856 617.02 214.167 617.389 214.571C617.764 214.976 618.048 215.465 618.241 216.039C618.44 216.613 618.54 217.258 618.54 217.973V219.177H610.771V217.322H615.648V217.094C615.654 216.777 615.599 216.508 615.481 216.285C615.37 216.062 615.206 215.893 614.989 215.775C614.772 215.658 614.509 215.6 614.198 215.6C613.876 215.6 613.609 215.67 613.398 215.811C613.193 215.951 613.032 216.145 612.915 216.391C612.804 216.631 612.725 216.909 612.678 217.226C612.631 217.542 612.607 217.876 612.607 218.228V218.562C612.607 218.913 612.654 219.232 612.748 219.52C612.848 219.807 612.988 220.053 613.17 220.258C613.357 220.457 613.58 220.612 613.838 220.724C614.102 220.835 614.4 220.891 614.734 220.891C615.139 220.891 615.537 220.814 615.93 220.662C616.322 220.51 616.659 220.258 616.94 219.906L618.285 221.506C618.092 221.781 617.816 222.048 617.459 222.306C617.107 222.563 616.686 222.774 616.193 222.938C615.701 223.097 615.15 223.176 614.541 223.176ZM624.684 220.609V216.689C624.684 216.42 624.646 216.188 624.569 215.995C624.493 215.802 624.373 215.652 624.209 215.547C624.045 215.436 623.825 215.38 623.55 215.38C623.327 215.38 623.137 215.418 622.979 215.494C622.82 215.57 622.7 215.685 622.618 215.837C622.536 215.989 622.495 216.183 622.495 216.417H619.533C619.533 215.978 619.63 215.57 619.823 215.195C620.022 214.814 620.304 214.483 620.667 214.202C621.036 213.921 621.476 213.704 621.985 213.552C622.501 213.394 623.075 213.314 623.708 213.314C624.464 213.314 625.138 213.44 625.729 213.692C626.327 213.944 626.799 214.322 627.145 214.826C627.49 215.324 627.663 215.951 627.663 216.707V220.601C627.663 221.222 627.698 221.693 627.769 222.016C627.839 222.332 627.938 222.61 628.067 222.851V223H625.097C624.956 222.707 624.851 222.35 624.78 221.928C624.716 221.5 624.684 221.061 624.684 220.609ZM625.044 217.19L625.062 218.772H623.752C623.477 218.772 623.242 218.811 623.049 218.887C622.861 218.963 622.709 219.068 622.592 219.203C622.48 219.332 622.398 219.479 622.346 219.643C622.299 219.807 622.275 219.979 622.275 220.161C622.275 220.337 622.316 220.495 622.398 220.636C622.486 220.771 622.604 220.876 622.75 220.952C622.896 221.028 623.061 221.066 623.242 221.066C623.57 221.066 623.849 221.005 624.077 220.882C624.312 220.753 624.49 220.598 624.613 220.416C624.736 220.234 624.798 220.064 624.798 219.906L625.448 221.119C625.331 221.354 625.196 221.591 625.044 221.831C624.897 222.071 624.713 222.294 624.49 222.499C624.273 222.698 624.007 222.862 623.69 222.991C623.374 223.114 622.99 223.176 622.539 223.176C621.953 223.176 621.414 223.056 620.922 222.815C620.436 222.575 620.046 222.241 619.753 221.813C619.46 221.38 619.313 220.882 619.313 220.319C619.313 219.827 619.401 219.388 619.577 219.001C619.759 218.614 620.031 218.286 620.395 218.017C620.758 217.747 621.221 217.542 621.783 217.401C622.346 217.261 623.008 217.19 623.77 217.19H625.044ZM632.295 215.846V223H629.333V213.49H632.102L632.295 215.846ZM635.107 213.42L635.055 216.171C634.938 216.159 634.779 216.145 634.58 216.127C634.381 216.109 634.214 216.101 634.079 216.101C633.733 216.101 633.435 216.142 633.183 216.224C632.937 216.3 632.731 216.417 632.567 216.575C632.409 216.728 632.292 216.921 632.216 217.155C632.146 217.39 632.113 217.662 632.119 217.973L631.583 217.621C631.583 216.982 631.645 216.402 631.768 215.881C631.896 215.354 632.078 214.899 632.312 214.519C632.547 214.132 632.831 213.836 633.165 213.631C633.499 213.42 633.874 213.314 634.29 213.314C634.437 213.314 634.58 213.323 634.721 213.341C634.867 213.358 634.996 213.385 635.107 213.42ZM639.036 215.521V223H636.074V213.49H638.852L639.036 215.521ZM638.685 217.92L637.99 217.938C637.99 217.211 638.078 216.563 638.254 215.995C638.43 215.421 638.679 214.935 639.001 214.536C639.323 214.138 639.707 213.836 640.152 213.631C640.604 213.42 641.104 213.314 641.655 213.314C642.095 213.314 642.496 213.379 642.859 213.508C643.229 213.637 643.545 213.845 643.809 214.132C644.078 214.419 644.283 214.8 644.424 215.274C644.57 215.743 644.644 216.323 644.644 217.015V223H641.664V217.006C641.664 216.625 641.611 216.335 641.506 216.136C641.4 215.931 641.248 215.79 641.049 215.714C640.85 215.638 640.606 215.6 640.319 215.6C640.015 215.6 639.757 215.658 639.546 215.775C639.335 215.893 639.165 216.057 639.036 216.268C638.913 216.473 638.822 216.716 638.764 216.997C638.711 217.278 638.685 217.586 638.685 217.92ZM649.416 213.49V223H646.445V213.49H649.416ZM646.27 211.038C646.27 210.616 646.422 210.271 646.727 210.001C647.031 209.731 647.427 209.597 647.913 209.597C648.399 209.597 648.795 209.731 649.1 210.001C649.404 210.271 649.557 210.616 649.557 211.038C649.557 211.46 649.404 211.806 649.1 212.075C648.795 212.345 648.399 212.479 647.913 212.479C647.427 212.479 647.031 212.345 646.727 212.075C646.422 211.806 646.27 211.46 646.27 211.038ZM654.153 215.521V223H651.191V213.49H653.969L654.153 215.521ZM653.802 217.92L653.107 217.938C653.107 217.211 653.195 216.563 653.371 215.995C653.547 215.421 653.796 214.935 654.118 214.536C654.44 214.138 654.824 213.836 655.27 213.631C655.721 213.42 656.222 213.314 656.772 213.314C657.212 213.314 657.613 213.379 657.977 213.508C658.346 213.637 658.662 213.845 658.926 214.132C659.195 214.419 659.4 214.8 659.541 215.274C659.688 215.743 659.761 216.323 659.761 217.015V223H656.781V217.006C656.781 216.625 656.729 216.335 656.623 216.136C656.518 215.931 656.365 215.79 656.166 215.714C655.967 215.638 655.724 215.6 655.437 215.6C655.132 215.6 654.874 215.658 654.663 215.775C654.452 215.893 654.282 216.057 654.153 216.268C654.03 216.473 653.939 216.716 653.881 216.997C653.828 217.278 653.802 217.586 653.802 217.92ZM667.381 213.49H670.07V222.631C670.07 223.51 669.868 224.254 669.464 224.863C669.06 225.479 668.494 225.944 667.768 226.261C667.047 226.583 666.203 226.744 665.236 226.744C664.809 226.744 664.372 226.688 663.927 226.577C663.481 226.472 663.065 226.313 662.679 226.103C662.292 225.892 661.967 225.631 661.703 225.32L662.942 223.58C663.183 223.85 663.484 224.078 663.848 224.266C664.211 224.459 664.639 224.556 665.131 224.556C665.559 224.556 665.916 224.479 666.203 224.327C666.496 224.175 666.719 223.952 666.871 223.659C667.023 223.372 667.1 223.023 667.1 222.613V215.74L667.381 213.49ZM661.062 218.359V218.175C661.062 217.454 661.149 216.798 661.325 216.206C661.507 215.608 661.765 215.096 662.099 214.668C662.438 214.234 662.849 213.9 663.329 213.666C663.81 213.432 664.352 213.314 664.955 213.314C665.605 213.314 666.139 213.44 666.555 213.692C666.977 213.938 667.313 214.284 667.565 214.729C667.823 215.175 668.022 215.696 668.163 216.294C668.31 216.886 668.433 217.524 668.532 218.21V218.43C668.433 219.074 668.295 219.684 668.119 220.258C667.949 220.826 667.727 221.33 667.451 221.77C667.176 222.209 666.83 222.555 666.414 222.807C666.004 223.053 665.512 223.176 664.938 223.176C664.34 223.176 663.801 223.056 663.32 222.815C662.846 222.575 662.438 222.238 662.099 221.805C661.765 221.371 661.507 220.861 661.325 220.275C661.149 219.689 661.062 219.051 661.062 218.359ZM664.023 218.175V218.359C664.023 218.717 664.056 219.048 664.12 219.353C664.19 219.657 664.296 219.927 664.437 220.161C664.577 220.39 664.75 220.568 664.955 220.697C665.166 220.826 665.412 220.891 665.693 220.891C666.121 220.891 666.467 220.8 666.73 220.618C666.994 220.437 667.185 220.179 667.302 219.845C667.419 219.511 667.469 219.118 667.451 218.667V217.973C667.463 217.586 667.437 217.246 667.372 216.953C667.308 216.654 667.205 216.405 667.064 216.206C666.93 216.007 666.748 215.857 666.52 215.758C666.297 215.652 666.027 215.6 665.711 215.6C665.436 215.6 665.192 215.664 664.981 215.793C664.771 215.922 664.595 216.104 664.454 216.338C664.313 216.566 664.205 216.839 664.129 217.155C664.059 217.466 664.023 217.806 664.023 218.175Z" fill="white"/>
<rect x="713" y="196" width="131" height="41" rx="3" fill="#424242"/>
<rect x="713" y="196" width="131" height="41" rx="3" stroke="#424242" stroke-width="4"/>
<path d="M742.359 210.203V223H739.274V210.203H742.359ZM746.209 210.203V212.585H735.513V210.203H746.209ZM749.575 221.884L752.036 213.49H755.218L751.395 224.415C751.312 224.655 751.204 224.913 751.069 225.188C750.935 225.47 750.75 225.736 750.516 225.988C750.281 226.24 749.979 226.445 749.61 226.604C749.247 226.762 748.796 226.841 748.257 226.841C747.97 226.841 747.759 226.826 747.624 226.797C747.495 226.773 747.296 226.729 747.026 226.665V224.547C747.103 224.547 747.167 224.547 747.22 224.547C747.278 224.547 747.343 224.547 747.413 224.547C747.729 224.547 747.981 224.515 748.169 224.45C748.362 224.386 748.509 224.292 748.608 224.169C748.714 224.046 748.796 223.896 748.854 223.721L749.575 221.884ZM748.951 213.49L750.823 220.144L751.148 223.281H749.162L745.778 213.49H748.951ZM758.979 215.318V226.656H756.018V213.49H758.777L758.979 215.318ZM764.815 218.131V218.315C764.815 219.007 764.736 219.648 764.578 220.24C764.42 220.832 764.186 221.348 763.875 221.787C763.564 222.227 763.178 222.569 762.715 222.815C762.258 223.056 761.728 223.176 761.124 223.176C760.556 223.176 760.066 223.05 759.656 222.798C759.246 222.546 758.903 222.197 758.628 221.752C758.353 221.307 758.13 220.797 757.96 220.223C757.79 219.648 757.655 219.042 757.556 218.403V218.166C757.655 217.48 757.79 216.845 757.96 216.259C758.13 215.667 758.353 215.151 758.628 214.712C758.903 214.272 759.243 213.93 759.647 213.684C760.058 213.438 760.547 213.314 761.115 213.314C761.719 213.314 762.249 213.429 762.706 213.657C763.169 213.886 763.556 214.214 763.866 214.642C764.183 215.063 764.42 215.57 764.578 216.162C764.736 216.754 764.815 217.41 764.815 218.131ZM761.854 218.315V218.131C761.854 217.762 761.827 217.425 761.774 217.12C761.722 216.81 761.637 216.54 761.52 216.312C761.408 216.083 761.259 215.907 761.071 215.784C760.884 215.661 760.652 215.6 760.377 215.6C760.061 215.6 759.794 215.649 759.577 215.749C759.366 215.843 759.196 215.989 759.067 216.188C758.944 216.382 758.856 216.625 758.804 216.918C758.757 217.205 758.736 217.542 758.742 217.929V218.649C758.73 219.095 758.774 219.487 758.874 219.827C758.974 220.161 759.146 220.422 759.393 220.609C759.639 220.797 759.973 220.891 760.395 220.891C760.676 220.891 760.91 220.826 761.098 220.697C761.285 220.562 761.435 220.378 761.546 220.144C761.657 219.903 761.736 219.628 761.783 219.317C761.83 219.007 761.854 218.673 761.854 218.315ZM770.739 223.176C769.966 223.176 769.274 223.056 768.665 222.815C768.056 222.569 767.54 222.232 767.118 221.805C766.702 221.377 766.383 220.885 766.16 220.328C765.943 219.771 765.835 219.183 765.835 218.562V218.228C765.835 217.53 765.932 216.886 766.125 216.294C766.318 215.696 766.605 215.175 766.986 214.729C767.367 214.284 767.845 213.938 768.419 213.692C768.993 213.44 769.661 213.314 770.423 213.314C771.097 213.314 771.7 213.423 772.233 213.64C772.767 213.856 773.218 214.167 773.587 214.571C773.962 214.976 774.246 215.465 774.439 216.039C774.639 216.613 774.738 217.258 774.738 217.973V219.177H766.969V217.322H771.847V217.094C771.853 216.777 771.797 216.508 771.68 216.285C771.568 216.062 771.404 215.893 771.188 215.775C770.971 215.658 770.707 215.6 770.396 215.6C770.074 215.6 769.808 215.67 769.597 215.811C769.392 215.951 769.23 216.145 769.113 216.391C769.002 216.631 768.923 216.909 768.876 217.226C768.829 217.542 768.806 217.876 768.806 218.228V218.562C768.806 218.913 768.853 219.232 768.946 219.52C769.046 219.807 769.187 220.053 769.368 220.258C769.556 220.457 769.778 220.612 770.036 220.724C770.3 220.835 770.599 220.891 770.933 220.891C771.337 220.891 771.735 220.814 772.128 220.662C772.521 220.51 772.857 220.258 773.139 219.906L774.483 221.506C774.29 221.781 774.015 222.048 773.657 222.306C773.306 222.563 772.884 222.774 772.392 222.938C771.899 223.097 771.349 223.176 770.739 223.176ZM780.926 220.328C780.926 220.164 780.87 220.023 780.759 219.906C780.653 219.783 780.466 219.672 780.196 219.572C779.927 219.467 779.549 219.361 779.062 219.256C778.6 219.156 778.163 219.024 777.753 218.86C777.349 218.696 776.994 218.497 776.689 218.263C776.385 218.028 776.145 217.75 775.969 217.428C775.799 217.105 775.714 216.736 775.714 216.32C775.714 215.916 775.799 215.535 775.969 215.178C776.145 214.814 776.399 214.495 776.733 214.22C777.073 213.938 777.486 213.719 777.973 213.561C778.459 213.396 779.013 213.314 779.634 213.314C780.489 213.314 781.228 213.446 781.849 213.71C782.47 213.968 782.947 214.331 783.281 214.8C783.621 215.263 783.791 215.799 783.791 216.408H780.829C780.829 216.168 780.788 215.963 780.706 215.793C780.63 215.623 780.504 215.494 780.328 215.406C780.152 215.312 779.918 215.266 779.625 215.266C779.42 215.266 779.232 215.304 779.062 215.38C778.898 215.456 778.767 215.562 778.667 215.696C778.567 215.831 778.518 215.989 778.518 216.171C778.518 216.3 778.547 216.417 778.605 216.522C778.67 216.622 778.767 216.716 778.896 216.804C779.024 216.886 779.188 216.962 779.388 217.032C779.587 217.097 779.827 217.155 780.108 217.208C780.747 217.325 781.345 217.492 781.901 217.709C782.458 217.926 782.909 218.233 783.255 218.632C783.606 219.03 783.782 219.566 783.782 220.24C783.782 220.662 783.686 221.052 783.492 221.409C783.299 221.761 783.021 222.071 782.657 222.341C782.294 222.604 781.857 222.81 781.348 222.956C780.838 223.103 780.264 223.176 779.625 223.176C778.717 223.176 777.949 223.015 777.322 222.692C776.695 222.364 776.221 221.954 775.898 221.462C775.582 220.964 775.424 220.46 775.424 219.95H778.184C778.195 220.243 778.266 220.483 778.395 220.671C778.529 220.858 778.708 220.996 778.931 221.084C779.153 221.172 779.411 221.216 779.704 221.216C779.974 221.216 780.196 221.178 780.372 221.102C780.554 221.025 780.691 220.923 780.785 220.794C780.879 220.659 780.926 220.504 780.926 220.328ZM789.188 220.891C789.463 220.891 789.697 220.841 789.891 220.741C790.09 220.636 790.239 220.489 790.339 220.302C790.444 220.108 790.494 219.877 790.488 219.607H793.274C793.28 220.322 793.104 220.949 792.747 221.488C792.396 222.021 791.915 222.438 791.306 222.736C790.702 223.029 790.02 223.176 789.258 223.176C788.514 223.176 787.863 223.056 787.307 222.815C786.75 222.569 786.284 222.229 785.909 221.796C785.54 221.356 785.262 220.844 785.074 220.258C784.893 219.672 784.802 219.036 784.802 218.351V218.148C784.802 217.463 784.893 216.827 785.074 216.241C785.262 215.649 785.54 215.137 785.909 214.703C786.284 214.264 786.747 213.924 787.298 213.684C787.854 213.438 788.502 213.314 789.24 213.314C790.031 213.314 790.729 213.464 791.332 213.763C791.941 214.062 792.419 214.495 792.765 215.063C793.11 215.632 793.28 216.32 793.274 217.129H790.488C790.494 216.842 790.45 216.584 790.356 216.355C790.263 216.127 790.116 215.945 789.917 215.811C789.724 215.67 789.475 215.6 789.17 215.6C788.865 215.6 788.619 215.667 788.432 215.802C788.244 215.937 788.101 216.124 788.001 216.364C787.907 216.599 787.843 216.868 787.808 217.173C787.778 217.478 787.764 217.803 787.764 218.148V218.351C787.764 218.702 787.778 219.033 787.808 219.344C787.843 219.648 787.91 219.918 788.01 220.152C788.109 220.381 788.253 220.562 788.44 220.697C788.628 220.826 788.877 220.891 789.188 220.891ZM797.528 215.846V223H794.566V213.49H797.335L797.528 215.846ZM800.341 213.42L800.288 216.171C800.171 216.159 800.013 216.145 799.813 216.127C799.614 216.109 799.447 216.101 799.312 216.101C798.967 216.101 798.668 216.142 798.416 216.224C798.17 216.3 797.965 216.417 797.801 216.575C797.643 216.728 797.525 216.921 797.449 217.155C797.379 217.39 797.347 217.662 797.353 217.973L796.816 217.621C796.816 216.982 796.878 216.402 797.001 215.881C797.13 215.354 797.312 214.899 797.546 214.519C797.78 214.132 798.064 213.836 798.398 213.631C798.732 213.42 799.107 213.314 799.523 213.314C799.67 213.314 799.813 213.323 799.954 213.341C800.101 213.358 800.229 213.385 800.341 213.42ZM804.489 213.49V223H801.519V213.49H804.489ZM801.343 211.038C801.343 210.616 801.495 210.271 801.8 210.001C802.104 209.731 802.5 209.597 802.986 209.597C803.473 209.597 803.868 209.731 804.173 210.001C804.478 210.271 804.63 210.616 804.63 211.038C804.63 211.46 804.478 211.806 804.173 212.075C803.868 212.345 803.473 212.479 802.986 212.479C802.5 212.479 802.104 212.345 801.8 212.075C801.495 211.806 801.343 211.46 801.343 211.038ZM809.306 215.318V226.656H806.344V213.49H809.104L809.306 215.318ZM815.142 218.131V218.315C815.142 219.007 815.062 219.648 814.904 220.24C814.746 220.832 814.512 221.348 814.201 221.787C813.891 222.227 813.504 222.569 813.041 222.815C812.584 223.056 812.054 223.176 811.45 223.176C810.882 223.176 810.393 223.05 809.982 222.798C809.572 222.546 809.229 222.197 808.954 221.752C808.679 221.307 808.456 220.797 808.286 220.223C808.116 219.648 807.981 219.042 807.882 218.403V218.166C807.981 217.48 808.116 216.845 808.286 216.259C808.456 215.667 808.679 215.151 808.954 214.712C809.229 214.272 809.569 213.93 809.974 213.684C810.384 213.438 810.873 213.314 811.441 213.314C812.045 213.314 812.575 213.429 813.032 213.657C813.495 213.886 813.882 214.214 814.192 214.642C814.509 215.063 814.746 215.57 814.904 216.162C815.062 216.754 815.142 217.41 815.142 218.131ZM812.18 218.315V218.131C812.18 217.762 812.153 217.425 812.101 217.12C812.048 216.81 811.963 216.54 811.846 216.312C811.734 216.083 811.585 215.907 811.397 215.784C811.21 215.661 810.979 215.6 810.703 215.6C810.387 215.6 810.12 215.649 809.903 215.749C809.692 215.843 809.522 215.989 809.394 216.188C809.271 216.382 809.183 216.625 809.13 216.918C809.083 217.205 809.062 217.542 809.068 217.929V218.649C809.057 219.095 809.101 219.487 809.2 219.827C809.3 220.161 809.473 220.422 809.719 220.609C809.965 220.797 810.299 220.891 810.721 220.891C811.002 220.891 811.236 220.826 811.424 220.697C811.611 220.562 811.761 220.378 811.872 220.144C811.983 219.903 812.062 219.628 812.109 219.317C812.156 219.007 812.18 218.673 812.18 218.315ZM821.47 213.49V215.547H815.739V213.49H821.47ZM816.943 211.126H819.905V219.897C819.905 220.149 819.935 220.346 819.993 220.486C820.052 220.621 820.151 220.718 820.292 220.776C820.438 220.829 820.632 220.855 820.872 220.855C821.042 220.855 821.183 220.853 821.294 220.847C821.405 220.835 821.511 220.82 821.61 220.803V222.921C821.358 223.003 821.095 223.064 820.819 223.105C820.544 223.152 820.251 223.176 819.94 223.176C819.308 223.176 818.766 223.076 818.314 222.877C817.869 222.678 817.529 222.364 817.295 221.937C817.061 221.509 816.943 220.952 816.943 220.267V211.126Z" fill="white"/>
<path d="M1066 0H1348C1356.28 0 1363 6.71573 1363 15V282C1363 290.284 1356.28 297 1348 297H1066V0Z" fill="white"/>
<path d="M1229.07 200.056V217.633C1229.07 219.186 1228.45 220.677 1227.35 221.777C1226.26 222.877 1224.77 223.497 1223.22 223.5H1211.5C1206.85 223.493 1202.38 221.637 1199.09 218.34C1195.8 215.042 1193.94 210.572 1193.94 205.911V202.97C1193.93 202.576 1193.81 202.194 1193.58 201.874C1193.35 201.554 1193.02 201.311 1192.65 201.178H1192.58C1192.22 201.021 1191.82 200.974 1191.44 201.043C1191.06 201.112 1190.7 201.294 1190.42 201.565L1188.34 203.654C1185.04 206.942 1180.57 208.788 1175.92 208.788C1171.27 208.788 1166.8 206.942 1163.51 203.654L1159.36 199.502C1156.07 196.206 1154.22 191.737 1154.22 187.077C1154.22 182.417 1156.07 177.948 1159.36 174.652L1161.44 172.563C1161.72 172.283 1161.9 171.929 1161.97 171.545C1162.03 171.162 1161.99 170.766 1161.83 170.409V170.293C1161.7 169.924 1161.46 169.604 1161.14 169.374C1160.82 169.143 1160.44 169.015 1160.05 169.004H1157.06C1152.41 169 1147.94 167.147 1144.65 163.852C1141.35 160.556 1139.5 156.088 1139.5 151.427V145.573C1139.5 140.911 1141.35 136.441 1144.65 133.143C1147.94 129.846 1152.4 127.99 1157.06 127.983H1160.01C1160.41 127.973 1160.79 127.845 1161.11 127.615C1161.43 127.385 1161.67 127.064 1161.8 126.694V126.591C1161.96 126.232 1162.01 125.834 1161.94 125.448C1161.88 125.062 1161.69 124.705 1161.42 124.424L1159.33 122.348C1156.04 119.05 1154.19 114.579 1154.19 109.917C1154.19 105.255 1156.04 100.784 1159.33 97.4856L1163.48 93.3461C1165.11 91.7105 1167.04 90.4127 1169.17 89.5271C1171.3 88.6416 1173.59 88.1857 1175.9 88.1857C1178.2 88.1857 1180.49 88.6416 1182.62 89.5271C1184.75 90.4127 1186.68 91.7105 1188.31 93.3461L1190.4 95.4223C1190.68 95.6951 1191.03 95.8778 1191.41 95.9468C1191.8 96.0158 1192.19 95.9678 1192.55 95.8091H1192.64C1193.01 95.6784 1193.33 95.4381 1193.56 95.1203C1193.79 94.8024 1193.92 94.422 1193.93 94.0296V91.0765C1193.94 86.4148 1195.79 81.9462 1199.08 78.651C1202.38 75.3559 1206.85 73.5034 1211.5 73.5H1223.22C1224.77 73.5 1226.26 74.1164 1227.36 75.214C1228.46 76.3115 1229.08 77.8006 1229.08 79.3545V96.9311C1229.12 97.7239 1228.99 98.516 1228.72 99.2595C1228.44 100.003 1228.01 100.682 1227.47 101.257C1226.92 101.831 1226.26 102.288 1225.53 102.6C1224.8 102.912 1224.02 103.073 1223.22 103.073C1222.43 103.073 1221.65 102.912 1220.92 102.6C1220.19 102.288 1219.53 101.831 1218.98 101.257C1218.43 100.682 1218.01 100.003 1217.73 99.2595C1217.45 98.516 1217.33 97.7239 1217.37 96.9311V85.222H1211.5C1209.95 85.222 1208.46 85.8388 1207.37 86.9367C1206.27 88.0347 1205.65 89.5238 1205.65 91.0765V94.0296C1205.65 96.7385 1204.85 99.3858 1203.34 101.634C1201.83 103.882 1199.68 105.63 1197.18 106.654H1197.07C1194.59 107.699 1191.85 107.982 1189.21 107.468C1186.56 106.954 1184.13 105.665 1182.22 103.766L1180.13 101.677C1179.03 100.578 1177.54 99.9611 1175.99 99.9611C1174.43 99.9611 1172.94 100.578 1171.84 101.677L1167.65 105.829C1166.56 106.927 1165.94 108.416 1165.94 109.968C1165.94 111.521 1166.56 113.01 1167.65 114.108L1169.74 116.197C1171.66 118.114 1172.96 120.559 1173.47 123.219C1173.99 125.879 1173.71 128.633 1172.65 131.13V131.207C1171.63 133.717 1169.89 135.866 1167.64 137.38C1165.39 138.894 1162.75 139.703 1160.04 139.705H1157.06C1155.51 139.705 1154.02 140.323 1152.92 141.424C1151.82 142.524 1151.2 144.017 1151.2 145.573V151.427C1151.2 152.981 1151.82 154.47 1152.92 155.568C1154.02 156.665 1155.51 157.282 1157.06 157.282H1160.01C1162.72 157.283 1165.36 158.089 1167.6 159.598C1169.85 161.107 1171.59 163.25 1172.62 165.754V165.857C1173.66 168.354 1173.94 171.106 1173.42 173.763C1172.9 176.42 1171.6 178.862 1169.69 180.777L1167.65 182.879C1166.56 183.979 1165.94 185.471 1165.94 187.025C1165.94 188.58 1166.56 190.071 1167.65 191.171L1171.79 195.311C1172.89 196.406 1174.38 197.021 1175.93 197.021C1177.49 197.021 1178.98 196.406 1180.08 195.311L1182.22 193.221C1184.12 191.311 1186.55 190.008 1189.19 189.48C1191.84 188.952 1194.58 189.222 1197.07 190.256H1197.15C1199.66 191.277 1201.81 193.024 1203.33 195.276C1204.84 197.527 1205.65 200.179 1205.65 202.893V205.833C1205.65 207.387 1206.27 208.878 1207.37 209.978C1208.46 211.078 1209.95 211.697 1211.5 211.701H1217.37V200.056C1217.37 198.503 1217.98 197.014 1219.08 195.916C1220.18 194.818 1221.67 194.202 1223.22 194.202C1224.77 194.202 1226.26 194.818 1227.35 195.916C1228.45 197.014 1229.07 198.503 1229.07 200.056ZM1279.13 138.248C1277.48 138.246 1275.85 138.643 1274.39 139.407C1272.92 140.17 1271.67 141.277 1270.73 142.633H1225.19C1223.94 140.822 1222.15 139.459 1220.07 138.741C1217.99 138.024 1215.74 137.99 1213.64 138.644C1211.54 139.299 1209.71 140.608 1208.4 142.38C1207.1 144.151 1206.4 146.294 1206.4 148.494C1206.4 150.693 1207.1 152.836 1208.4 154.608C1209.71 156.379 1211.54 157.688 1213.64 158.343C1215.74 158.997 1217.99 158.963 1220.07 158.246C1222.15 157.528 1223.94 156.165 1225.19 154.355H1270.73C1271.73 155.802 1273.09 156.965 1274.68 157.732C1276.27 158.499 1278.03 158.843 1279.78 158.731C1281.54 158.62 1283.24 158.056 1284.72 157.095C1286.2 156.134 1287.4 154.807 1288.22 153.244C1289.03 151.681 1289.43 149.934 1289.37 148.171C1289.32 146.409 1288.81 144.691 1287.89 143.183C1286.98 141.676 1285.69 140.429 1284.16 139.565C1282.62 138.7 1280.89 138.247 1279.13 138.248ZM1279.13 186.284C1278.41 186.282 1277.7 186.36 1277 186.516L1262.75 172.447C1261.65 171.365 1260.18 170.758 1258.64 170.758H1214.43C1211.46 170.829 1208.51 170.306 1205.75 169.219C1202.99 168.132 1200.47 166.504 1198.35 164.429C1196.23 162.355 1194.54 159.876 1193.39 157.14C1192.23 154.403 1191.64 151.463 1191.64 148.494C1191.64 145.524 1192.23 142.584 1193.39 139.847C1194.54 137.111 1196.23 134.632 1198.35 132.558C1200.47 130.483 1202.99 128.855 1205.75 127.768C1208.51 126.681 1211.46 126.158 1214.43 126.23H1258.63C1259.4 126.227 1260.16 126.072 1260.87 125.773C1261.59 125.474 1262.23 125.038 1262.78 124.489L1277.08 110.175C1277.75 110.315 1278.44 110.385 1279.13 110.381C1281.21 110.376 1283.25 109.732 1284.96 108.536C1286.67 107.341 1287.97 105.65 1288.69 103.692C1289.41 101.734 1289.52 99.6014 1288.99 97.5814C1288.47 95.5615 1287.34 93.7507 1285.75 92.3921C1284.17 91.0335 1282.21 90.1922 1280.13 89.9812C1278.06 89.7702 1275.97 90.1996 1274.15 91.2117C1272.32 92.2239 1270.85 93.7702 1269.93 95.6432C1269.01 97.5162 1268.69 99.626 1269 101.689L1256.22 114.482H1214.43C1205.41 114.482 1196.77 118.066 1190.39 124.445C1184.02 130.825 1180.44 139.478 1180.44 148.5C1180.44 157.522 1184.02 166.175 1190.39 172.555C1196.77 178.934 1205.41 182.518 1214.43 182.518H1256.24L1268.99 195.104C1268.92 195.591 1268.89 196.083 1268.88 196.574C1268.88 198.617 1269.49 200.615 1270.63 202.312C1271.76 204.01 1273.37 205.332 1275.26 206.111C1277.15 206.89 1279.23 207.091 1281.23 206.687C1283.23 206.284 1285.06 205.295 1286.5 203.846C1287.94 202.397 1288.92 200.553 1289.31 198.547C1289.7 196.542 1289.49 194.465 1288.7 192.581C1287.91 190.698 1286.58 189.091 1284.87 187.965C1283.17 186.839 1281.17 186.245 1279.13 186.258V186.284Z" fill="url(#paint0_linear_3_61)"/>
<defs>
<linearGradient id="paint0_linear_3_61" x1="1139.5" y1="148.487" x2="1289.37" y2="148.487" gradientUnits="userSpaceOnUse">
<stop stop-color="#00F2FE"/>
<stop offset="0.02" stop-color="#03EFFE"/>
<stop offset="0.29" stop-color="#24D2FE"/>
<stop offset="0.55" stop-color="#3CBDFE"/>
<stop offset="0.8" stop-color="#4AB0FE"/>
<stop offset="1" stop-color="#4FACFE"/>
</linearGradient>
</defs>
</svg>
