<svg width="1363" height="297" viewBox="0 0 1363 297" fill="none" xmlns="http://www.w3.org/2000/svg">
<path d="M0 15C0 6.71573 6.71573 0 15 0H37V297H15C6.71573 297 0 290.284 0 282V15Z" fill="#3292E6"/>
<path d="M37 0H1066V297H37V0Z" fill="#F0F0F0"/>
<path d="M105.691 53.7832L98.7305 75H93.123L102.633 49.4062H106.201L105.691 53.7832ZM111.475 75L104.496 53.7832L103.934 49.4062H107.537L117.1 75H111.475ZM111.158 65.4727V69.6035H97.6406V65.4727H111.158ZM124.5 48V75H119.42V48H124.5ZM134.027 55.9805V75H128.947V55.9805H134.027ZM128.631 51.0234C128.631 50.2852 128.889 49.6758 129.404 49.1953C129.92 48.7148 130.611 48.4746 131.479 48.4746C132.334 48.4746 133.02 48.7148 133.535 49.1953C134.062 49.6758 134.326 50.2852 134.326 51.0234C134.326 51.7617 134.062 52.3711 133.535 52.8516C133.02 53.332 132.334 53.5723 131.479 53.5723C130.611 53.5723 129.92 53.332 129.404 52.8516C128.889 52.3711 128.631 51.7617 128.631 51.0234ZM155.93 75.3516C154.453 75.3516 153.129 75.1172 151.957 74.6484C150.785 74.168 149.789 73.5059 148.969 72.6621C148.16 71.8184 147.539 70.8398 147.105 69.7266C146.672 68.6016 146.455 67.4062 146.455 66.1406V65.4375C146.455 63.9961 146.66 62.6777 147.07 61.4824C147.48 60.2871 148.066 59.25 148.828 58.3711C149.602 57.4922 150.539 56.8184 151.641 56.3496C152.742 55.8691 153.984 55.6289 155.367 55.6289C156.715 55.6289 157.91 55.8516 158.953 56.2969C159.996 56.7422 160.869 57.375 161.572 58.1953C162.287 59.0156 162.826 60 163.189 61.1484C163.553 62.2852 163.734 63.5508 163.734 64.9453V67.0547H148.617V63.6797H158.76V63.293C158.76 62.5898 158.631 61.9629 158.373 61.4121C158.127 60.8496 157.752 60.4043 157.248 60.0762C156.744 59.748 156.1 59.584 155.314 59.584C154.646 59.584 154.072 59.7305 153.592 60.0234C153.111 60.3164 152.719 60.7266 152.414 61.2539C152.121 61.7812 151.898 62.4023 151.746 63.1172C151.605 63.8203 151.535 64.5938 151.535 65.4375V66.1406C151.535 66.9023 151.641 67.6055 151.852 68.25C152.074 68.8945 152.385 69.4512 152.783 69.9199C153.193 70.3887 153.686 70.752 154.26 71.0098C154.846 71.2676 155.508 71.3965 156.246 71.3965C157.16 71.3965 158.01 71.2207 158.795 70.8691C159.592 70.5059 160.277 69.9609 160.852 69.2344L163.312 71.9062C162.914 72.4805 162.369 73.0312 161.678 73.5586C160.998 74.0859 160.178 74.5195 159.217 74.8594C158.256 75.1875 157.16 75.3516 155.93 75.3516ZM171.961 48V75H166.881V48H171.961ZM193.529 59.8301V63.9434H180.17V59.8301H193.529ZM181.734 49.4062V75H176.461V49.4062H181.734ZM197.291 49.4062V75H192.035V49.4062H197.291ZM211.828 70.7109V62.2383C211.828 61.6289 211.729 61.1074 211.529 60.6738C211.33 60.2285 211.02 59.8828 210.598 59.6367C210.188 59.3906 209.654 59.2676 208.998 59.2676C208.436 59.2676 207.949 59.3672 207.539 59.5664C207.129 59.7539 206.812 60.0293 206.59 60.3926C206.367 60.7441 206.256 61.1602 206.256 61.6406H201.193C201.193 60.832 201.381 60.0645 201.756 59.3379C202.131 58.6113 202.676 57.9727 203.391 57.4219C204.105 56.8594 204.955 56.4199 205.939 56.1035C206.936 55.7871 208.049 55.6289 209.279 55.6289C210.756 55.6289 212.068 55.875 213.217 56.3672C214.365 56.8594 215.268 57.5977 215.924 58.582C216.592 59.5664 216.926 60.7969 216.926 62.2734V70.4121C216.926 71.4551 216.99 72.3105 217.119 72.9785C217.248 73.6348 217.436 74.209 217.682 74.7012V75H212.566C212.32 74.4844 212.133 73.8398 212.004 73.0664C211.887 72.2812 211.828 71.4961 211.828 70.7109ZM212.496 63.416L212.531 66.2812H209.701C209.033 66.2812 208.453 66.3574 207.961 66.5098C207.469 66.6621 207.064 66.8789 206.748 67.1602C206.432 67.4297 206.197 67.7461 206.045 68.1094C205.904 68.4727 205.834 68.8711 205.834 69.3047C205.834 69.7383 205.934 70.1309 206.133 70.4824C206.332 70.8223 206.619 71.0918 206.994 71.291C207.369 71.4785 207.809 71.5723 208.312 71.5723C209.074 71.5723 209.736 71.4199 210.299 71.1152C210.861 70.8105 211.295 70.4355 211.6 69.9902C211.916 69.5449 212.08 69.123 212.092 68.7246L213.428 70.8691C213.24 71.3496 212.982 71.8477 212.654 72.3633C212.338 72.8789 211.934 73.3652 211.441 73.8223C210.949 74.2676 210.357 74.6367 209.666 74.9297C208.975 75.2109 208.154 75.3516 207.205 75.3516C205.998 75.3516 204.902 75.1113 203.918 74.6309C202.945 74.1387 202.172 73.4648 201.598 72.6094C201.035 71.7422 200.754 70.7578 200.754 69.6562C200.754 68.6602 200.941 67.7754 201.316 67.002C201.691 66.2285 202.242 65.5781 202.969 65.0508C203.707 64.5117 204.627 64.1074 205.729 63.8379C206.83 63.5566 208.107 63.416 209.561 63.416H212.496ZM232.061 70.8516V48H237.158V75H232.57L232.061 70.8516ZM220.037 65.7188V65.3496C220.037 63.8965 220.201 62.5781 220.529 61.3945C220.857 60.1992 221.338 59.1738 221.971 58.3184C222.604 57.4629 223.383 56.8008 224.309 56.332C225.234 55.8633 226.289 55.6289 227.473 55.6289C228.586 55.6289 229.559 55.8633 230.391 56.332C231.234 56.8008 231.949 57.4688 232.535 58.3359C233.133 59.1914 233.613 60.2051 233.977 61.377C234.34 62.5371 234.604 63.8086 234.768 65.1914V66C234.604 67.3242 234.34 68.5547 233.977 69.6914C233.613 70.8281 233.133 71.8242 232.535 72.6797C231.949 73.5234 231.234 74.1797 230.391 74.6484C229.547 75.1172 228.562 75.3516 227.438 75.3516C226.254 75.3516 225.199 75.1113 224.273 74.6309C223.359 74.1504 222.586 73.4766 221.953 72.6094C221.332 71.7422 220.857 70.7227 220.529 69.5508C220.201 68.3789 220.037 67.1016 220.037 65.7188ZM225.1 65.3496V65.7188C225.1 66.5039 225.158 67.2363 225.275 67.916C225.404 68.5957 225.609 69.1992 225.891 69.7266C226.184 70.2422 226.559 70.6465 227.016 70.9395C227.484 71.2207 228.053 71.3613 228.721 71.3613C229.588 71.3613 230.303 71.168 230.865 70.7812C231.428 70.3828 231.855 69.8379 232.148 69.1465C232.453 68.4551 232.629 67.6582 232.676 66.7559V64.4531C232.641 63.7148 232.535 63.0527 232.359 62.4668C232.195 61.8691 231.949 61.3594 231.621 60.9375C231.305 60.5156 230.906 60.1875 230.426 59.9531C229.957 59.7188 229.4 59.6016 228.756 59.6016C228.1 59.6016 227.537 59.7539 227.068 60.0586C226.6 60.3516 226.219 60.7559 225.926 61.2715C225.645 61.7871 225.434 62.3965 225.293 63.0996C225.164 63.791 225.1 64.541 225.1 65.3496ZM246.457 55.9805V75H241.377V55.9805H246.457ZM241.061 51.0234C241.061 50.2852 241.318 49.6758 241.834 49.1953C242.35 48.7148 243.041 48.4746 243.908 48.4746C244.764 48.4746 245.449 48.7148 245.965 49.1953C246.492 49.6758 246.756 50.2852 246.756 51.0234C246.756 51.7617 246.492 52.3711 245.965 52.8516C245.449 53.332 244.764 53.5723 243.908 53.5723C243.041 53.5723 242.35 53.332 241.834 52.8516C241.318 52.3711 241.061 51.7617 241.061 51.0234ZM273.246 68.3027C273.246 67.8457 273.176 67.4355 273.035 67.0723C272.906 66.6973 272.66 66.3574 272.297 66.0527C271.934 65.7363 271.424 65.4258 270.768 65.1211C270.111 64.8164 269.262 64.5 268.219 64.1719C267.059 63.7969 265.957 63.375 264.914 62.9062C263.883 62.4375 262.969 61.8926 262.172 61.2715C261.387 60.6387 260.766 59.9062 260.309 59.0742C259.863 58.2422 259.641 57.2754 259.641 56.1738C259.641 55.1074 259.875 54.1406 260.344 53.2734C260.812 52.3945 261.469 51.6445 262.312 51.0234C263.156 50.3906 264.152 49.9043 265.301 49.5645C266.461 49.2246 267.732 49.0547 269.115 49.0547C271.002 49.0547 272.648 49.3945 274.055 50.0742C275.461 50.7539 276.551 51.6855 277.324 52.8691C278.109 54.0527 278.502 55.4062 278.502 56.9297H273.264C273.264 56.1797 273.105 55.5234 272.789 54.9609C272.484 54.3867 272.016 53.9355 271.383 53.6074C270.762 53.2793 269.977 53.1152 269.027 53.1152C268.113 53.1152 267.352 53.2559 266.742 53.5371C266.133 53.8066 265.676 54.1758 265.371 54.6445C265.066 55.1016 264.914 55.6172 264.914 56.1914C264.914 56.625 265.02 57.0176 265.23 57.3691C265.453 57.7207 265.781 58.0488 266.215 58.3535C266.648 58.6582 267.182 58.9453 267.814 59.2148C268.447 59.4844 269.18 59.748 270.012 60.0059C271.406 60.4277 272.631 60.9023 273.686 61.4297C274.752 61.957 275.643 62.5488 276.357 63.2051C277.072 63.8613 277.611 64.6055 277.975 65.4375C278.338 66.2695 278.52 67.2129 278.52 68.2676C278.52 69.3809 278.303 70.377 277.869 71.2559C277.436 72.1348 276.809 72.8789 275.988 73.4883C275.168 74.0977 274.189 74.5605 273.053 74.877C271.916 75.1934 270.645 75.3516 269.238 75.3516C267.973 75.3516 266.725 75.1875 265.494 74.8594C264.264 74.5195 263.145 74.0098 262.137 73.3301C261.141 72.6504 260.344 71.7832 259.746 70.7285C259.148 69.6738 258.85 68.4258 258.85 66.9844H264.141C264.141 67.7812 264.264 68.4551 264.51 69.0059C264.756 69.5566 265.102 70.002 265.547 70.3418C266.004 70.6816 266.543 70.9277 267.164 71.0801C267.797 71.2324 268.488 71.3086 269.238 71.3086C270.152 71.3086 270.902 71.1797 271.488 70.9219C272.086 70.6641 272.525 70.3066 272.807 69.8496C273.1 69.3926 273.246 68.877 273.246 68.3027ZM292.055 70.7109V62.2383C292.055 61.6289 291.955 61.1074 291.756 60.6738C291.557 60.2285 291.246 59.8828 290.824 59.6367C290.414 59.3906 289.881 59.2676 289.225 59.2676C288.662 59.2676 288.176 59.3672 287.766 59.5664C287.355 59.7539 287.039 60.0293 286.816 60.3926C286.594 60.7441 286.482 61.1602 286.482 61.6406H281.42C281.42 60.832 281.607 60.0645 281.982 59.3379C282.357 58.6113 282.902 57.9727 283.617 57.4219C284.332 56.8594 285.182 56.4199 286.166 56.1035C287.162 55.7871 288.275 55.6289 289.506 55.6289C290.982 55.6289 292.295 55.875 293.443 56.3672C294.592 56.8594 295.494 57.5977 296.15 58.582C296.818 59.5664 297.152 60.7969 297.152 62.2734V70.4121C297.152 71.4551 297.217 72.3105 297.346 72.9785C297.475 73.6348 297.662 74.209 297.908 74.7012V75H292.793C292.547 74.4844 292.359 73.8398 292.23 73.0664C292.113 72.2812 292.055 71.4961 292.055 70.7109ZM292.723 63.416L292.758 66.2812H289.928C289.26 66.2812 288.68 66.3574 288.188 66.5098C287.695 66.6621 287.291 66.8789 286.975 67.1602C286.658 67.4297 286.424 67.7461 286.271 68.1094C286.131 68.4727 286.061 68.8711 286.061 69.3047C286.061 69.7383 286.16 70.1309 286.359 70.4824C286.559 70.8223 286.846 71.0918 287.221 71.291C287.596 71.4785 288.035 71.5723 288.539 71.5723C289.301 71.5723 289.963 71.4199 290.525 71.1152C291.088 70.8105 291.521 70.4355 291.826 69.9902C292.143 69.5449 292.307 69.123 292.318 68.7246L293.654 70.8691C293.467 71.3496 293.209 71.8477 292.881 72.3633C292.564 72.8789 292.16 73.3652 291.668 73.8223C291.176 74.2676 290.584 74.6367 289.893 74.9297C289.201 75.2109 288.381 75.3516 287.432 75.3516C286.225 75.3516 285.129 75.1113 284.145 74.6309C283.172 74.1387 282.398 73.4648 281.824 72.6094C281.262 71.7422 280.98 70.7578 280.98 69.6562C280.98 68.6602 281.168 67.7754 281.543 67.002C281.918 66.2285 282.469 65.5781 283.195 65.0508C283.934 64.5117 284.854 64.1074 285.955 63.8379C287.057 63.5566 288.334 63.416 289.787 63.416H292.723ZM306.117 47.9824V75H301.055V47.9824H306.117ZM318.105 55.9805L309.844 65.4023L305.414 69.8848L303.568 66.2285L307.084 61.7637L312.023 55.9805H318.105ZM312.85 75L307.225 66.2109L310.723 63.1523L318.686 75H312.85ZM328.688 75.3516C327.211 75.3516 325.887 75.1172 324.715 74.6484C323.543 74.168 322.547 73.5059 321.727 72.6621C320.918 71.8184 320.297 70.8398 319.863 69.7266C319.43 68.6016 319.213 67.4062 319.213 66.1406V65.4375C319.213 63.9961 319.418 62.6777 319.828 61.4824C320.238 60.2871 320.824 59.25 321.586 58.3711C322.359 57.4922 323.297 56.8184 324.398 56.3496C325.5 55.8691 326.742 55.6289 328.125 55.6289C329.473 55.6289 330.668 55.8516 331.711 56.2969C332.754 56.7422 333.627 57.375 334.33 58.1953C335.045 59.0156 335.584 60 335.947 61.1484C336.311 62.2852 336.492 63.5508 336.492 64.9453V67.0547H321.375V63.6797H331.518V63.293C331.518 62.5898 331.389 61.9629 331.131 61.4121C330.885 60.8496 330.51 60.4043 330.006 60.0762C329.502 59.748 328.857 59.584 328.072 59.584C327.404 59.584 326.83 59.7305 326.35 60.0234C325.869 60.3164 325.477 60.7266 325.172 61.2539C324.879 61.7812 324.656 62.4023 324.504 63.1172C324.363 63.8203 324.293 64.5938 324.293 65.4375V66.1406C324.293 66.9023 324.398 67.6055 324.609 68.25C324.832 68.8945 325.143 69.4512 325.541 69.9199C325.951 70.3887 326.443 70.752 327.018 71.0098C327.604 71.2676 328.266 71.3965 329.004 71.3965C329.918 71.3965 330.768 71.2207 331.553 70.8691C332.35 70.5059 333.035 69.9609 333.609 69.2344L336.07 71.9062C335.672 72.4805 335.127 73.0312 334.436 73.5586C333.756 74.0859 332.936 74.5195 331.975 74.8594C331.014 75.1875 329.918 75.3516 328.688 75.3516ZM344.438 60.1289V75H339.375V55.9805H344.139L344.438 60.1289ZM350.168 55.8574L350.08 60.5508C349.834 60.5156 349.535 60.4863 349.184 60.4629C348.844 60.4277 348.533 60.4102 348.252 60.4102C347.537 60.4102 346.916 60.5039 346.389 60.6914C345.873 60.8672 345.439 61.1309 345.088 61.4824C344.748 61.834 344.49 62.2617 344.314 62.7656C344.15 63.2695 344.057 63.8438 344.033 64.4883L343.014 64.1719C343.014 62.9414 343.137 61.8105 343.383 60.7793C343.629 59.7363 343.986 58.8281 344.455 58.0547C344.936 57.2812 345.521 56.6836 346.213 56.2617C346.904 55.8398 347.695 55.6289 348.586 55.6289C348.867 55.6289 349.154 55.6523 349.447 55.6992C349.74 55.7344 349.98 55.7871 350.168 55.8574Z" fill="#888888"/>
<path d="M116.543 129.418C116.543 128.798 116.452 128.242 116.27 127.75C116.087 127.24 115.75 126.766 115.258 126.328C114.766 125.891 114.055 125.453 113.125 125.016C112.214 124.56 111.01 124.086 109.516 123.594C107.766 123.01 106.079 122.354 104.457 121.625C102.835 120.878 101.385 120.012 100.109 119.027C98.8333 118.025 97.8216 116.858 97.0742 115.527C96.3268 114.178 95.9531 112.611 95.9531 110.824C95.9531 109.111 96.3359 107.57 97.1016 106.203C97.8672 104.818 98.9336 103.642 100.301 102.676C101.686 101.691 103.309 100.944 105.168 100.434C107.027 99.9049 109.06 99.6406 111.266 99.6406C114.182 99.6406 116.753 100.151 118.977 101.172C121.219 102.174 122.969 103.605 124.227 105.465C125.503 107.306 126.141 109.484 126.141 112H116.598C116.598 110.997 116.388 110.113 115.969 109.348C115.568 108.582 114.957 107.98 114.137 107.543C113.316 107.105 112.286 106.887 111.047 106.887C109.844 106.887 108.832 107.069 108.012 107.434C107.191 107.798 106.572 108.29 106.152 108.91C105.733 109.512 105.523 110.177 105.523 110.906C105.523 111.508 105.688 112.055 106.016 112.547C106.362 113.021 106.845 113.467 107.465 113.887C108.103 114.306 108.868 114.707 109.762 115.09C110.673 115.473 111.694 115.846 112.824 116.211C114.939 116.885 116.816 117.642 118.457 118.48C120.116 119.301 121.51 120.24 122.641 121.297C123.789 122.336 124.655 123.521 125.238 124.852C125.84 126.182 126.141 127.686 126.141 129.363C126.141 131.15 125.794 132.736 125.102 134.121C124.409 135.507 123.415 136.682 122.121 137.648C120.827 138.596 119.277 139.316 117.473 139.809C115.668 140.301 113.654 140.547 111.43 140.547C109.388 140.547 107.374 140.292 105.387 139.781C103.418 139.253 101.632 138.451 100.027 137.375C98.4232 136.281 97.138 134.887 96.1719 133.191C95.224 131.478 94.75 129.445 94.75 127.094H104.375C104.375 128.26 104.53 129.245 104.84 130.047C105.15 130.849 105.605 131.496 106.207 131.988C106.809 132.462 107.547 132.809 108.422 133.027C109.297 133.228 110.299 133.328 111.43 133.328C112.651 133.328 113.635 133.155 114.383 132.809C115.13 132.444 115.677 131.97 116.023 131.387C116.37 130.785 116.543 130.129 116.543 129.418ZM143.148 133.438C144.005 133.438 144.734 133.283 145.336 132.973C145.956 132.645 146.421 132.189 146.73 131.605C147.059 131.004 147.214 130.284 147.195 129.445H155.863C155.882 131.669 155.335 133.62 154.223 135.297C153.129 136.956 151.634 138.25 149.738 139.18C147.861 140.091 145.737 140.547 143.367 140.547C141.052 140.547 139.029 140.173 137.297 139.426C135.565 138.66 134.116 137.603 132.949 136.254C131.801 134.887 130.935 133.292 130.352 131.469C129.786 129.646 129.504 127.668 129.504 125.535V124.906C129.504 122.773 129.786 120.796 130.352 118.973C130.935 117.132 131.801 115.536 132.949 114.188C134.116 112.82 135.556 111.763 137.27 111.016C139.001 110.25 141.016 109.867 143.312 109.867C145.773 109.867 147.943 110.332 149.82 111.262C151.716 112.191 153.202 113.54 154.277 115.309C155.353 117.077 155.882 119.219 155.863 121.734H147.195C147.214 120.841 147.077 120.039 146.785 119.328C146.493 118.617 146.038 118.052 145.418 117.633C144.816 117.195 144.042 116.977 143.094 116.977C142.146 116.977 141.38 117.186 140.797 117.605C140.214 118.025 139.767 118.608 139.457 119.355C139.165 120.085 138.965 120.923 138.855 121.871C138.764 122.819 138.719 123.831 138.719 124.906V125.535C138.719 126.629 138.764 127.659 138.855 128.625C138.965 129.573 139.174 130.411 139.484 131.141C139.794 131.852 140.241 132.417 140.824 132.836C141.408 133.237 142.182 133.438 143.148 133.438ZM158.652 125.508V124.934C158.652 122.764 158.962 120.768 159.582 118.945C160.202 117.104 161.113 115.509 162.316 114.16C163.52 112.811 165.005 111.763 166.773 111.016C168.542 110.25 170.583 109.867 172.898 109.867C175.232 109.867 177.283 110.25 179.051 111.016C180.837 111.763 182.332 112.811 183.535 114.16C184.738 115.509 185.65 117.104 186.27 118.945C186.889 120.768 187.199 122.764 187.199 124.934V125.508C187.199 127.659 186.889 129.655 186.27 131.496C185.65 133.319 184.738 134.914 183.535 136.281C182.332 137.63 180.846 138.678 179.078 139.426C177.31 140.173 175.268 140.547 172.953 140.547C170.638 140.547 168.587 140.173 166.801 139.426C165.014 138.678 163.52 137.63 162.316 136.281C161.113 134.914 160.202 133.319 159.582 131.496C158.962 129.655 158.652 127.659 158.652 125.508ZM167.867 124.934V125.508C167.867 126.62 167.949 127.659 168.113 128.625C168.277 129.591 168.551 130.439 168.934 131.168C169.316 131.879 169.836 132.435 170.492 132.836C171.148 133.237 171.969 133.438 172.953 133.438C173.919 133.438 174.721 133.237 175.359 132.836C176.016 132.435 176.535 131.879 176.918 131.168C177.301 130.439 177.574 129.591 177.738 128.625C177.902 127.659 177.984 126.62 177.984 125.508V124.934C177.984 123.858 177.902 122.846 177.738 121.898C177.574 120.932 177.301 120.085 176.918 119.355C176.535 118.608 176.016 118.025 175.359 117.605C174.703 117.186 173.883 116.977 172.898 116.977C171.932 116.977 171.121 117.186 170.465 117.605C169.827 118.025 169.316 118.608 168.934 119.355C168.551 120.085 168.277 120.932 168.113 121.898C167.949 122.846 167.867 123.858 167.867 124.934ZM208.582 132.809V110.414H217.824V140H209.184L208.582 132.809ZM209.457 126.793L211.863 126.738C211.863 128.725 211.626 130.566 211.152 132.262C210.678 133.939 209.977 135.397 209.047 136.637C208.135 137.876 207.005 138.842 205.656 139.535C204.326 140.21 202.785 140.547 201.035 140.547C199.577 140.547 198.237 140.346 197.016 139.945C195.812 139.526 194.773 138.879 193.898 138.004C193.023 137.111 192.34 135.971 191.848 134.586C191.374 133.182 191.137 131.505 191.137 129.555V110.414H200.352V129.609C200.352 130.266 200.434 130.831 200.598 131.305C200.762 131.779 200.999 132.18 201.309 132.508C201.618 132.818 202.001 133.055 202.457 133.219C202.931 133.365 203.469 133.438 204.07 133.438C205.456 133.438 206.54 133.146 207.324 132.562C208.108 131.979 208.655 131.186 208.965 130.184C209.293 129.181 209.457 128.051 209.457 126.793ZM238.496 110.414V116.812H220.668V110.414H238.496ZM224.414 103.059H233.629V130.348C233.629 131.132 233.72 131.742 233.902 132.18C234.085 132.599 234.395 132.9 234.832 133.082C235.288 133.246 235.889 133.328 236.637 133.328C237.165 133.328 237.603 133.319 237.949 133.301C238.296 133.264 238.624 133.219 238.934 133.164V139.754C238.15 140.009 237.329 140.201 236.473 140.328C235.616 140.474 234.704 140.547 233.738 140.547C231.77 140.547 230.083 140.237 228.68 139.617C227.294 138.997 226.237 138.022 225.508 136.691C224.779 135.361 224.414 133.629 224.414 131.496V103.059ZM273.414 108.555L263.707 140H253.398L268.027 100.188H274.562L273.414 108.555ZM281.453 140L271.719 108.555L270.461 100.188H277.078L291.789 140H281.453ZM281.07 125.152V132.562H260.645V125.152H281.07ZM304.914 100.188V140H295.344V100.188H304.914Z" fill="black"/>
<rect x="93" y="178" width="917" height="77" rx="10" fill="#D3D3D3"/>
<rect x="111" y="196" width="98" height="41" rx="3" fill="#424242"/>
<rect x="111" y="196" width="98" height="41" rx="3" stroke="#424242" stroke-width="4"/>
<path d="M137.078 210.203V223H133.993V210.203H137.078ZM142.053 215.529V217.902H136.199V215.529H142.053ZM142.554 210.203V212.585H136.199V210.203H142.554ZM146.825 209.5V223H143.854V209.5H146.825ZM154.208 220.688V213.49H157.179V223H154.401L154.208 220.688ZM154.489 218.755L155.263 218.737C155.263 219.376 155.187 219.968 155.034 220.513C154.882 221.052 154.656 221.521 154.357 221.919C154.064 222.317 153.701 222.628 153.268 222.851C152.84 223.067 152.345 223.176 151.782 223.176C151.313 223.176 150.883 223.111 150.49 222.982C150.104 222.848 149.77 222.64 149.488 222.358C149.207 222.071 148.987 221.705 148.829 221.26C148.677 220.809 148.601 220.27 148.601 219.643V213.49H151.562V219.66C151.562 219.871 151.589 220.053 151.642 220.205C151.694 220.357 151.771 220.486 151.87 220.592C151.97 220.691 152.093 220.768 152.239 220.82C152.392 220.867 152.564 220.891 152.758 220.891C153.203 220.891 153.552 220.797 153.804 220.609C154.056 220.422 154.231 220.167 154.331 219.845C154.437 219.522 154.489 219.159 154.489 218.755ZM163.823 213.49V215.547H158.093V213.49H163.823ZM159.297 211.126H162.259V219.897C162.259 220.149 162.288 220.346 162.347 220.486C162.405 220.621 162.505 220.718 162.646 220.776C162.792 220.829 162.985 220.855 163.226 220.855C163.396 220.855 163.536 220.853 163.647 220.847C163.759 220.835 163.864 220.82 163.964 220.803V222.921C163.712 223.003 163.448 223.064 163.173 223.105C162.897 223.152 162.604 223.176 162.294 223.176C161.661 223.176 161.119 223.076 160.668 222.877C160.223 222.678 159.883 222.364 159.648 221.937C159.414 221.509 159.297 220.952 159.297 220.267V211.126ZM170.011 213.49V215.547H164.28V213.49H170.011ZM165.484 211.126H168.446V219.897C168.446 220.149 168.476 220.346 168.534 220.486C168.593 220.621 168.692 220.718 168.833 220.776C168.979 220.829 169.173 220.855 169.413 220.855C169.583 220.855 169.724 220.853 169.835 220.847C169.946 220.835 170.052 220.82 170.151 220.803V222.921C169.899 223.003 169.636 223.064 169.36 223.105C169.085 223.152 168.792 223.176 168.481 223.176C167.849 223.176 167.307 223.076 166.855 222.877C166.41 222.678 166.07 222.364 165.836 221.937C165.602 221.509 165.484 220.952 165.484 220.267V211.126ZM175.794 223.176C175.021 223.176 174.329 223.056 173.72 222.815C173.11 222.569 172.595 222.232 172.173 221.805C171.757 221.377 171.438 220.885 171.215 220.328C170.998 219.771 170.89 219.183 170.89 218.562V218.228C170.89 217.53 170.986 216.886 171.18 216.294C171.373 215.696 171.66 215.175 172.041 214.729C172.422 214.284 172.899 213.938 173.474 213.692C174.048 213.44 174.716 213.314 175.478 213.314C176.151 213.314 176.755 213.423 177.288 213.64C177.821 213.856 178.272 214.167 178.642 214.571C179.017 214.976 179.301 215.465 179.494 216.039C179.693 216.613 179.793 217.258 179.793 217.973V219.177H172.023V217.322H176.901V217.094C176.907 216.777 176.852 216.508 176.734 216.285C176.623 216.062 176.459 215.893 176.242 215.775C176.025 215.658 175.762 215.6 175.451 215.6C175.129 215.6 174.862 215.67 174.651 215.811C174.446 215.951 174.285 216.145 174.168 216.391C174.057 216.631 173.978 216.909 173.931 217.226C173.884 217.542 173.86 217.876 173.86 218.228V218.562C173.86 218.913 173.907 219.232 174.001 219.52C174.101 219.807 174.241 220.053 174.423 220.258C174.61 220.457 174.833 220.612 175.091 220.724C175.354 220.835 175.653 220.891 175.987 220.891C176.392 220.891 176.79 220.814 177.183 220.662C177.575 220.51 177.912 220.258 178.193 219.906L179.538 221.506C179.345 221.781 179.069 222.048 178.712 222.306C178.36 222.563 177.938 222.774 177.446 222.938C176.954 223.097 176.403 223.176 175.794 223.176ZM183.985 215.846V223H181.023V213.49H183.792L183.985 215.846ZM186.798 213.42L186.745 216.171C186.628 216.159 186.47 216.145 186.271 216.127C186.071 216.109 185.904 216.101 185.77 216.101C185.424 216.101 185.125 216.142 184.873 216.224C184.627 216.3 184.422 216.417 184.258 216.575C184.1 216.728 183.982 216.921 183.906 217.155C183.836 217.39 183.804 217.662 183.81 217.973L183.273 217.621C183.273 216.982 183.335 216.402 183.458 215.881C183.587 215.354 183.769 214.899 184.003 214.519C184.237 214.132 184.521 213.836 184.855 213.631C185.189 213.42 185.564 213.314 185.98 213.314C186.127 213.314 186.271 213.323 186.411 213.341C186.558 213.358 186.687 213.385 186.798 213.42Z" fill="white"/>
<rect x="229" y="196" width="107" height="41" rx="3" fill="#424242"/>
<rect x="229" y="196" width="107" height="41" rx="3" stroke="#424242" stroke-width="4"/>
<path d="M263.041 210.203V223H259.965L255.438 215.037V223H252.354V210.203H255.438L259.965 218.166V210.203H263.041ZM264.482 218.342V218.157C264.482 217.46 264.582 216.818 264.781 216.232C264.98 215.641 265.273 215.128 265.66 214.694C266.047 214.261 266.524 213.924 267.093 213.684C267.661 213.438 268.317 213.314 269.062 213.314C269.812 213.314 270.471 213.438 271.039 213.684C271.613 213.924 272.094 214.261 272.48 214.694C272.867 215.128 273.16 215.641 273.359 216.232C273.559 216.818 273.658 217.46 273.658 218.157V218.342C273.658 219.033 273.559 219.675 273.359 220.267C273.16 220.853 272.867 221.365 272.48 221.805C272.094 222.238 271.616 222.575 271.048 222.815C270.479 223.056 269.823 223.176 269.079 223.176C268.335 223.176 267.676 223.056 267.102 222.815C266.527 222.575 266.047 222.238 265.66 221.805C265.273 221.365 264.98 220.853 264.781 220.267C264.582 219.675 264.482 219.033 264.482 218.342ZM267.444 218.157V218.342C267.444 218.699 267.471 219.033 267.523 219.344C267.576 219.654 267.664 219.927 267.787 220.161C267.91 220.39 268.077 220.568 268.288 220.697C268.499 220.826 268.763 220.891 269.079 220.891C269.39 220.891 269.647 220.826 269.853 220.697C270.063 220.568 270.23 220.39 270.354 220.161C270.477 219.927 270.564 219.654 270.617 219.344C270.67 219.033 270.696 218.699 270.696 218.342V218.157C270.696 217.812 270.67 217.486 270.617 217.182C270.564 216.871 270.477 216.599 270.354 216.364C270.23 216.124 270.063 215.937 269.853 215.802C269.642 215.667 269.378 215.6 269.062 215.6C268.751 215.6 268.49 215.667 268.279 215.802C268.074 215.937 267.91 216.124 267.787 216.364C267.664 216.599 267.576 216.871 267.523 217.182C267.471 217.486 267.444 217.812 267.444 218.157ZM280.443 220.82V209.5H283.423V223H280.751L280.443 220.82ZM274.607 218.359V218.175C274.607 217.454 274.687 216.798 274.845 216.206C275.003 215.608 275.237 215.096 275.548 214.668C275.858 214.234 276.245 213.9 276.708 213.666C277.171 213.432 277.704 213.314 278.308 213.314C278.847 213.314 279.318 213.44 279.723 213.692C280.127 213.938 280.473 214.284 280.76 214.729C281.047 215.175 281.281 215.696 281.463 216.294C281.645 216.886 281.782 217.524 281.876 218.21V218.43C281.782 219.074 281.645 219.684 281.463 220.258C281.281 220.826 281.047 221.33 280.76 221.77C280.473 222.209 280.124 222.555 279.714 222.807C279.31 223.053 278.835 223.176 278.29 223.176C277.687 223.176 277.153 223.056 276.69 222.815C276.233 222.575 275.85 222.238 275.539 221.805C275.234 221.371 275.003 220.861 274.845 220.275C274.687 219.689 274.607 219.051 274.607 218.359ZM277.569 218.175V218.359C277.569 218.717 277.593 219.048 277.64 219.353C277.687 219.657 277.766 219.927 277.877 220.161C277.994 220.39 278.146 220.568 278.334 220.697C278.527 220.826 278.765 220.891 279.046 220.891C279.427 220.891 279.74 220.8 279.986 220.618C280.238 220.437 280.423 220.179 280.54 219.845C280.663 219.511 280.716 219.118 280.698 218.667V217.973C280.71 217.586 280.684 217.246 280.619 216.953C280.555 216.654 280.452 216.405 280.312 216.206C280.177 216.007 280.004 215.857 279.793 215.758C279.588 215.652 279.345 215.6 279.063 215.6C278.788 215.6 278.554 215.664 278.36 215.793C278.173 215.922 278.021 216.104 277.903 216.338C277.786 216.566 277.701 216.839 277.648 217.155C277.596 217.466 277.569 217.806 277.569 218.175ZM289.707 223.176C288.934 223.176 288.242 223.056 287.633 222.815C287.023 222.569 286.508 222.232 286.086 221.805C285.67 221.377 285.351 220.885 285.128 220.328C284.911 219.771 284.803 219.183 284.803 218.562V218.228C284.803 217.53 284.899 216.886 285.093 216.294C285.286 215.696 285.573 215.175 285.954 214.729C286.335 214.284 286.812 213.938 287.387 213.692C287.961 213.44 288.629 213.314 289.391 213.314C290.064 213.314 290.668 213.423 291.201 213.64C291.734 213.856 292.186 214.167 292.555 214.571C292.93 214.976 293.214 215.465 293.407 216.039C293.606 216.613 293.706 217.258 293.706 217.973V219.177H285.937V217.322H290.814V217.094C290.82 216.777 290.765 216.508 290.647 216.285C290.536 216.062 290.372 215.893 290.155 215.775C289.938 215.658 289.675 215.6 289.364 215.6C289.042 215.6 288.775 215.67 288.564 215.811C288.359 215.951 288.198 216.145 288.081 216.391C287.97 216.631 287.891 216.909 287.844 217.226C287.797 217.542 287.773 217.876 287.773 218.228V218.562C287.773 218.913 287.82 219.232 287.914 219.52C288.014 219.807 288.154 220.053 288.336 220.258C288.523 220.457 288.746 220.612 289.004 220.724C289.268 220.835 289.566 220.891 289.9 220.891C290.305 220.891 290.703 220.814 291.096 220.662C291.488 220.51 291.825 220.258 292.106 219.906L293.451 221.506C293.258 221.781 292.982 222.048 292.625 222.306C292.273 222.563 291.852 222.774 291.359 222.938C290.867 223.097 290.316 223.176 289.707 223.176ZM295.104 221.611C295.104 221.189 295.256 220.838 295.561 220.557C295.865 220.27 296.258 220.126 296.738 220.126C297.225 220.126 297.617 220.27 297.916 220.557C298.221 220.838 298.373 221.189 298.373 221.611C298.373 222.033 298.221 222.388 297.916 222.675C297.617 222.956 297.225 223.097 296.738 223.097C296.258 223.097 295.865 222.956 295.561 222.675C295.256 222.388 295.104 222.033 295.104 221.611ZM300.579 213.49H303.55V223.308C303.55 224.069 303.403 224.711 303.11 225.232C302.817 225.76 302.398 226.158 301.854 226.428C301.309 226.703 300.658 226.841 299.902 226.841C299.65 226.841 299.419 226.829 299.208 226.806C298.991 226.788 298.754 226.75 298.496 226.691V224.45C298.648 224.474 298.789 224.491 298.918 224.503C299.047 224.521 299.188 224.529 299.34 224.529C299.609 224.529 299.835 224.485 300.017 224.397C300.198 224.31 300.336 224.175 300.43 223.993C300.529 223.812 300.579 223.583 300.579 223.308V213.49ZM300.359 211.038C300.359 210.616 300.512 210.271 300.816 210.001C301.121 209.731 301.517 209.597 302.003 209.597C302.489 209.597 302.885 209.731 303.189 210.001C303.494 210.271 303.646 210.616 303.646 211.038C303.646 211.46 303.494 211.806 303.189 212.075C302.885 212.345 302.489 212.479 302.003 212.479C301.517 212.479 301.121 212.345 300.816 212.075C300.512 211.806 300.359 211.46 300.359 211.038ZM310.212 220.328C310.212 220.164 310.156 220.023 310.045 219.906C309.939 219.783 309.752 219.672 309.482 219.572C309.213 219.467 308.835 219.361 308.349 219.256C307.886 219.156 307.449 219.024 307.039 218.86C306.635 218.696 306.28 218.497 305.976 218.263C305.671 218.028 305.431 217.75 305.255 217.428C305.085 217.105 305 216.736 305 216.32C305 215.916 305.085 215.535 305.255 215.178C305.431 214.814 305.686 214.495 306.02 214.22C306.359 213.938 306.772 213.719 307.259 213.561C307.745 213.396 308.299 213.314 308.92 213.314C309.775 213.314 310.514 213.446 311.135 213.71C311.756 213.968 312.233 214.331 312.567 214.8C312.907 215.263 313.077 215.799 313.077 216.408H310.115C310.115 216.168 310.074 215.963 309.992 215.793C309.916 215.623 309.79 215.494 309.614 215.406C309.438 215.312 309.204 215.266 308.911 215.266C308.706 215.266 308.519 215.304 308.349 215.38C308.185 215.456 308.053 215.562 307.953 215.696C307.854 215.831 307.804 215.989 307.804 216.171C307.804 216.3 307.833 216.417 307.892 216.522C307.956 216.622 308.053 216.716 308.182 216.804C308.311 216.886 308.475 216.962 308.674 217.032C308.873 217.097 309.113 217.155 309.395 217.208C310.033 217.325 310.631 217.492 311.188 217.709C311.744 217.926 312.195 218.233 312.541 218.632C312.893 219.03 313.068 219.566 313.068 220.24C313.068 220.662 312.972 221.052 312.778 221.409C312.585 221.761 312.307 222.071 311.943 222.341C311.58 222.604 311.144 222.81 310.634 222.956C310.124 223.103 309.55 223.176 308.911 223.176C308.003 223.176 307.235 223.015 306.608 222.692C305.981 222.364 305.507 221.954 305.185 221.462C304.868 220.964 304.71 220.46 304.71 219.95H307.47C307.481 220.243 307.552 220.483 307.681 220.671C307.815 220.858 307.994 220.996 308.217 221.084C308.439 221.172 308.697 221.216 308.99 221.216C309.26 221.216 309.482 221.178 309.658 221.102C309.84 221.025 309.978 220.923 310.071 220.794C310.165 220.659 310.212 220.504 310.212 220.328Z" fill="white"/>
<rect x="356" y="196" width="91" height="41" rx="3" fill="#424242"/>
<rect x="356" y="196" width="91" height="41" rx="3" stroke="#424242" stroke-width="4"/>
<path d="M379.141 210.203H384.177C385.161 210.203 386.017 210.35 386.743 210.643C387.47 210.936 388.029 211.369 388.422 211.943C388.82 212.518 389.02 213.227 389.02 214.07C389.02 214.803 388.905 215.415 388.677 215.907C388.448 216.399 388.129 216.807 387.719 217.129C387.314 217.445 386.843 217.706 386.304 217.911L385.293 218.482H381.065L381.048 216.101H384.177C384.569 216.101 384.895 216.03 385.152 215.89C385.41 215.749 385.604 215.55 385.732 215.292C385.867 215.028 385.935 214.715 385.935 214.352C385.935 213.982 385.867 213.666 385.732 213.402C385.598 213.139 385.398 212.937 385.135 212.796C384.877 212.655 384.558 212.585 384.177 212.585H382.226V223H379.141V210.203ZM386.146 223L383.315 217.34L386.585 217.322L389.45 222.868V223H386.146ZM395.348 223.176C394.574 223.176 393.883 223.056 393.273 222.815C392.664 222.569 392.148 222.232 391.727 221.805C391.311 221.377 390.991 220.885 390.769 220.328C390.552 219.771 390.443 219.183 390.443 218.562V218.228C390.443 217.53 390.54 216.886 390.733 216.294C390.927 215.696 391.214 215.175 391.595 214.729C391.976 214.284 392.453 213.938 393.027 213.692C393.602 213.44 394.27 213.314 395.031 213.314C395.705 213.314 396.309 213.423 396.842 213.64C397.375 213.856 397.826 214.167 398.195 214.571C398.57 214.976 398.854 215.465 399.048 216.039C399.247 216.613 399.347 217.258 399.347 217.973V219.177H391.577V217.322H396.455V217.094C396.461 216.777 396.405 216.508 396.288 216.285C396.177 216.062 396.013 215.893 395.796 215.775C395.579 215.658 395.315 215.6 395.005 215.6C394.683 215.6 394.416 215.67 394.205 215.811C394 215.951 393.839 216.145 393.722 216.391C393.61 216.631 393.531 216.909 393.484 217.226C393.438 217.542 393.414 217.876 393.414 218.228V218.562C393.414 218.913 393.461 219.232 393.555 219.52C393.654 219.807 393.795 220.053 393.977 220.258C394.164 220.457 394.387 220.612 394.645 220.724C394.908 220.835 395.207 220.891 395.541 220.891C395.945 220.891 396.344 220.814 396.736 220.662C397.129 220.51 397.466 220.258 397.747 219.906L399.092 221.506C398.898 221.781 398.623 222.048 398.266 222.306C397.914 222.563 397.492 222.774 397 222.938C396.508 223.097 395.957 223.176 395.348 223.176ZM405.49 220.609V216.689C405.49 216.42 405.452 216.188 405.376 215.995C405.3 215.802 405.18 215.652 405.016 215.547C404.852 215.436 404.632 215.38 404.356 215.38C404.134 215.38 403.943 215.418 403.785 215.494C403.627 215.57 403.507 215.685 403.425 215.837C403.343 215.989 403.302 216.183 403.302 216.417H400.34C400.34 215.978 400.437 215.57 400.63 215.195C400.829 214.814 401.11 214.483 401.474 214.202C401.843 213.921 402.282 213.704 402.792 213.552C403.308 213.394 403.882 213.314 404.515 213.314C405.271 213.314 405.944 213.44 406.536 213.692C407.134 213.944 407.605 214.322 407.951 214.826C408.297 215.324 408.47 215.951 408.47 216.707V220.601C408.47 221.222 408.505 221.693 408.575 222.016C408.646 222.332 408.745 222.61 408.874 222.851V223H405.903C405.763 222.707 405.657 222.35 405.587 221.928C405.522 221.5 405.49 221.061 405.49 220.609ZM405.851 217.19L405.868 218.772H404.559C404.283 218.772 404.049 218.811 403.855 218.887C403.668 218.963 403.516 219.068 403.398 219.203C403.287 219.332 403.205 219.479 403.152 219.643C403.105 219.807 403.082 219.979 403.082 220.161C403.082 220.337 403.123 220.495 403.205 220.636C403.293 220.771 403.41 220.876 403.557 220.952C403.703 221.028 403.867 221.066 404.049 221.066C404.377 221.066 404.655 221.005 404.884 220.882C405.118 220.753 405.297 220.598 405.42 220.416C405.543 220.234 405.604 220.064 405.604 219.906L406.255 221.119C406.138 221.354 406.003 221.591 405.851 221.831C405.704 222.071 405.52 222.294 405.297 222.499C405.08 222.698 404.813 222.862 404.497 222.991C404.181 223.114 403.797 223.176 403.346 223.176C402.76 223.176 402.221 223.056 401.729 222.815C401.242 222.575 400.853 222.241 400.56 221.813C400.267 221.38 400.12 220.882 400.12 220.319C400.12 219.827 400.208 219.388 400.384 219.001C400.565 218.614 400.838 218.286 401.201 218.017C401.564 217.747 402.027 217.542 402.59 217.401C403.152 217.261 403.814 217.19 404.576 217.19H405.851ZM414.13 220.891C414.405 220.891 414.64 220.841 414.833 220.741C415.032 220.636 415.182 220.489 415.281 220.302C415.387 220.108 415.437 219.877 415.431 219.607H418.217C418.223 220.322 418.047 220.949 417.689 221.488C417.338 222.021 416.857 222.438 416.248 222.736C415.645 223.029 414.962 223.176 414.2 223.176C413.456 223.176 412.806 223.056 412.249 222.815C411.692 222.569 411.227 222.229 410.852 221.796C410.482 221.356 410.204 220.844 410.017 220.258C409.835 219.672 409.744 219.036 409.744 218.351V218.148C409.744 217.463 409.835 216.827 410.017 216.241C410.204 215.649 410.482 215.137 410.852 214.703C411.227 214.264 411.689 213.924 412.24 213.684C412.797 213.438 413.444 213.314 414.183 213.314C414.974 213.314 415.671 213.464 416.274 213.763C416.884 214.062 417.361 214.495 417.707 215.063C418.053 215.632 418.223 216.32 418.217 217.129H415.431C415.437 216.842 415.393 216.584 415.299 216.355C415.205 216.127 415.059 215.945 414.859 215.811C414.666 215.67 414.417 215.6 414.112 215.6C413.808 215.6 413.562 215.667 413.374 215.802C413.187 215.937 413.043 216.124 412.943 216.364C412.85 216.599 412.785 216.868 412.75 217.173C412.721 217.478 412.706 217.803 412.706 218.148V218.351C412.706 218.702 412.721 219.033 412.75 219.344C412.785 219.648 412.853 219.918 412.952 220.152C413.052 220.381 413.195 220.562 413.383 220.697C413.57 220.826 413.819 220.891 414.13 220.891ZM424.492 213.49V215.547H418.762V213.49H424.492ZM419.966 211.126H422.928V219.897C422.928 220.149 422.957 220.346 423.016 220.486C423.074 220.621 423.174 220.718 423.314 220.776C423.461 220.829 423.654 220.855 423.895 220.855C424.064 220.855 424.205 220.853 424.316 220.847C424.428 220.835 424.533 220.82 424.633 220.803V222.921C424.381 223.003 424.117 223.064 423.842 223.105C423.566 223.152 423.273 223.176 422.963 223.176C422.33 223.176 421.788 223.076 421.337 222.877C420.892 222.678 420.552 222.364 420.317 221.937C420.083 221.509 419.966 220.952 419.966 220.267V211.126Z" fill="white"/>
<rect x="467" y="196" width="190" height="41" rx="3" fill="#424242"/>
<rect x="467" y="196" width="190" height="41" rx="3" stroke="#424242" stroke-width="4"/>
<path d="M491.564 210.203H494.078L496.935 219.106L499.791 210.203H502.305L497.954 223H495.915L491.564 210.203ZM490.035 210.203H492.637L493.12 220.012V223H490.035V210.203ZM501.232 210.203H503.843V223H500.749V220.012L501.232 210.203ZM510.619 220.609V216.689C510.619 216.42 510.581 216.188 510.505 215.995C510.429 215.802 510.309 215.652 510.145 215.547C509.98 215.436 509.761 215.38 509.485 215.38C509.263 215.38 509.072 215.418 508.914 215.494C508.756 215.57 508.636 215.685 508.554 215.837C508.472 215.989 508.431 216.183 508.431 216.417H505.469C505.469 215.978 505.565 215.57 505.759 215.195C505.958 214.814 506.239 214.483 506.603 214.202C506.972 213.921 507.411 213.704 507.921 213.552C508.437 213.394 509.011 213.314 509.644 213.314C510.399 213.314 511.073 213.44 511.665 213.692C512.263 213.944 512.734 214.322 513.08 214.826C513.426 215.324 513.599 215.951 513.599 216.707V220.601C513.599 221.222 513.634 221.693 513.704 222.016C513.774 222.332 513.874 222.61 514.003 222.851V223H511.032C510.892 222.707 510.786 222.35 510.716 221.928C510.651 221.5 510.619 221.061 510.619 220.609ZM510.979 217.19L510.997 218.772H509.688C509.412 218.772 509.178 218.811 508.984 218.887C508.797 218.963 508.645 219.068 508.527 219.203C508.416 219.332 508.334 219.479 508.281 219.643C508.234 219.807 508.211 219.979 508.211 220.161C508.211 220.337 508.252 220.495 508.334 220.636C508.422 220.771 508.539 220.876 508.686 220.952C508.832 221.028 508.996 221.066 509.178 221.066C509.506 221.066 509.784 221.005 510.013 220.882C510.247 220.753 510.426 220.598 510.549 220.416C510.672 220.234 510.733 220.064 510.733 219.906L511.384 221.119C511.267 221.354 511.132 221.591 510.979 221.831C510.833 222.071 510.648 222.294 510.426 222.499C510.209 222.698 509.942 222.862 509.626 222.991C509.31 223.114 508.926 223.176 508.475 223.176C507.889 223.176 507.35 223.056 506.857 222.815C506.371 222.575 505.981 222.241 505.688 221.813C505.396 221.38 505.249 220.882 505.249 220.319C505.249 219.827 505.337 219.388 505.513 219.001C505.694 218.614 505.967 218.286 506.33 218.017C506.693 217.747 507.156 217.542 507.719 217.401C508.281 217.261 508.943 217.19 509.705 217.19H510.979ZM519.259 220.891C519.534 220.891 519.769 220.841 519.962 220.741C520.161 220.636 520.311 220.489 520.41 220.302C520.516 220.108 520.565 219.877 520.56 219.607H523.346C523.352 220.322 523.176 220.949 522.818 221.488C522.467 222.021 521.986 222.438 521.377 222.736C520.773 223.029 520.091 223.176 519.329 223.176C518.585 223.176 517.935 223.056 517.378 222.815C516.821 222.569 516.355 222.229 515.98 221.796C515.611 221.356 515.333 220.844 515.146 220.258C514.964 219.672 514.873 219.036 514.873 218.351V218.148C514.873 217.463 514.964 216.827 515.146 216.241C515.333 215.649 515.611 215.137 515.98 214.703C516.355 214.264 516.818 213.924 517.369 213.684C517.926 213.438 518.573 213.314 519.312 213.314C520.103 213.314 520.8 213.464 521.403 213.763C522.013 214.062 522.49 214.495 522.836 215.063C523.182 215.632 523.352 216.32 523.346 217.129H520.56C520.565 216.842 520.521 216.584 520.428 216.355C520.334 216.127 520.188 215.945 519.988 215.811C519.795 215.67 519.546 215.6 519.241 215.6C518.937 215.6 518.69 215.667 518.503 215.802C518.315 215.937 518.172 216.124 518.072 216.364C517.979 216.599 517.914 216.868 517.879 217.173C517.85 217.478 517.835 217.803 517.835 218.148V218.351C517.835 218.702 517.85 219.033 517.879 219.344C517.914 219.648 517.981 219.918 518.081 220.152C518.181 220.381 518.324 220.562 518.512 220.697C518.699 220.826 518.948 220.891 519.259 220.891ZM527.512 209.5V223H524.55V209.5H527.512ZM527.16 217.92L526.466 217.938C526.466 217.27 526.548 216.654 526.712 216.092C526.876 215.529 527.11 215.04 527.415 214.624C527.72 214.208 528.086 213.886 528.514 213.657C528.941 213.429 529.416 213.314 529.938 213.314C530.406 213.314 530.834 213.382 531.221 213.517C531.613 213.651 531.95 213.868 532.231 214.167C532.519 214.466 532.738 214.855 532.891 215.336C533.049 215.816 533.128 216.402 533.128 217.094V223H530.148V217.076C530.148 216.689 530.093 216.391 529.981 216.18C529.876 215.963 529.724 215.813 529.524 215.731C529.325 215.644 529.082 215.6 528.795 215.6C528.449 215.6 528.168 215.658 527.951 215.775C527.734 215.893 527.567 216.057 527.45 216.268C527.339 216.473 527.263 216.716 527.222 216.997C527.181 217.278 527.16 217.586 527.16 217.92ZM537.9 213.49V223H534.93V213.49H537.9ZM534.754 211.038C534.754 210.616 534.906 210.271 535.211 210.001C535.516 209.731 535.911 209.597 536.397 209.597C536.884 209.597 537.279 209.731 537.584 210.001C537.889 210.271 538.041 210.616 538.041 211.038C538.041 211.46 537.889 211.806 537.584 212.075C537.279 212.345 536.884 212.479 536.397 212.479C535.911 212.479 535.516 212.345 535.211 212.075C534.906 211.806 534.754 211.46 534.754 211.038ZM542.638 215.521V223H539.676V213.49H542.453L542.638 215.521ZM542.286 217.92L541.592 217.938C541.592 217.211 541.68 216.563 541.855 215.995C542.031 215.421 542.28 214.935 542.603 214.536C542.925 214.138 543.309 213.836 543.754 213.631C544.205 213.42 544.706 213.314 545.257 213.314C545.696 213.314 546.098 213.379 546.461 213.508C546.83 213.637 547.146 213.845 547.41 214.132C547.68 214.419 547.885 214.8 548.025 215.274C548.172 215.743 548.245 216.323 548.245 217.015V223H545.266V217.006C545.266 216.625 545.213 216.335 545.107 216.136C545.002 215.931 544.85 215.79 544.65 215.714C544.451 215.638 544.208 215.6 543.921 215.6C543.616 215.6 543.358 215.658 543.147 215.775C542.937 215.893 542.767 216.057 542.638 216.268C542.515 216.473 542.424 216.716 542.365 216.997C542.312 217.278 542.286 217.586 542.286 217.92ZM554.494 223.176C553.721 223.176 553.029 223.056 552.42 222.815C551.811 222.569 551.295 222.232 550.873 221.805C550.457 221.377 550.138 220.885 549.915 220.328C549.698 219.771 549.59 219.183 549.59 218.562V218.228C549.59 217.53 549.687 216.886 549.88 216.294C550.073 215.696 550.36 215.175 550.741 214.729C551.122 214.284 551.6 213.938 552.174 213.692C552.748 213.44 553.416 213.314 554.178 213.314C554.852 213.314 555.455 213.423 555.988 213.64C556.521 213.856 556.973 214.167 557.342 214.571C557.717 214.976 558.001 215.465 558.194 216.039C558.394 216.613 558.493 217.258 558.493 217.973V219.177H550.724V217.322H555.602V217.094C555.607 216.777 555.552 216.508 555.435 216.285C555.323 216.062 555.159 215.893 554.942 215.775C554.726 215.658 554.462 215.6 554.151 215.6C553.829 215.6 553.562 215.67 553.352 215.811C553.146 215.951 552.985 216.145 552.868 216.391C552.757 216.631 552.678 216.909 552.631 217.226C552.584 217.542 552.561 217.876 552.561 218.228V218.562C552.561 218.913 552.607 219.232 552.701 219.52C552.801 219.807 552.941 220.053 553.123 220.258C553.311 220.457 553.533 220.612 553.791 220.724C554.055 220.835 554.354 220.891 554.688 220.891C555.092 220.891 555.49 220.814 555.883 220.662C556.275 220.51 556.612 220.258 556.894 219.906L558.238 221.506C558.045 221.781 557.77 222.048 557.412 222.306C557.061 222.563 556.639 222.774 556.146 222.938C555.654 223.097 555.104 223.176 554.494 223.176ZM572.775 220.627V223H566.307V220.627H572.775ZM567.405 210.203V223H564.32V210.203H567.405ZM578.541 223.176C577.768 223.176 577.076 223.056 576.467 222.815C575.857 222.569 575.342 222.232 574.92 221.805C574.504 221.377 574.185 220.885 573.962 220.328C573.745 219.771 573.637 219.183 573.637 218.562V218.228C573.637 217.53 573.733 216.886 573.927 216.294C574.12 215.696 574.407 215.175 574.788 214.729C575.169 214.284 575.646 213.938 576.221 213.692C576.795 213.44 577.463 213.314 578.225 213.314C578.898 213.314 579.502 213.423 580.035 213.64C580.568 213.856 581.02 214.167 581.389 214.571C581.764 214.976 582.048 215.465 582.241 216.039C582.44 216.613 582.54 217.258 582.54 217.973V219.177H574.771V217.322H579.648V217.094C579.654 216.777 579.599 216.508 579.481 216.285C579.37 216.062 579.206 215.893 578.989 215.775C578.772 215.658 578.509 215.6 578.198 215.6C577.876 215.6 577.609 215.67 577.398 215.811C577.193 215.951 577.032 216.145 576.915 216.391C576.804 216.631 576.725 216.909 576.678 217.226C576.631 217.542 576.607 217.876 576.607 218.228V218.562C576.607 218.913 576.654 219.232 576.748 219.52C576.848 219.807 576.988 220.053 577.17 220.258C577.357 220.457 577.58 220.612 577.838 220.724C578.102 220.835 578.4 220.891 578.734 220.891C579.139 220.891 579.537 220.814 579.93 220.662C580.322 220.51 580.659 220.258 580.94 219.906L582.285 221.506C582.092 221.781 581.816 222.048 581.459 222.306C581.107 222.563 580.686 222.774 580.193 222.938C579.701 223.097 579.15 223.176 578.541 223.176ZM588.684 220.609V216.689C588.684 216.42 588.646 216.188 588.569 215.995C588.493 215.802 588.373 215.652 588.209 215.547C588.045 215.436 587.825 215.38 587.55 215.38C587.327 215.38 587.137 215.418 586.979 215.494C586.82 215.57 586.7 215.685 586.618 215.837C586.536 215.989 586.495 216.183 586.495 216.417H583.533C583.533 215.978 583.63 215.57 583.823 215.195C584.022 214.814 584.304 214.483 584.667 214.202C585.036 213.921 585.476 213.704 585.985 213.552C586.501 213.394 587.075 213.314 587.708 213.314C588.464 213.314 589.138 213.44 589.729 213.692C590.327 213.944 590.799 214.322 591.145 214.826C591.49 215.324 591.663 215.951 591.663 216.707V220.601C591.663 221.222 591.698 221.693 591.769 222.016C591.839 222.332 591.938 222.61 592.067 222.851V223H589.097C588.956 222.707 588.851 222.35 588.78 221.928C588.716 221.5 588.684 221.061 588.684 220.609ZM589.044 217.19L589.062 218.772H587.752C587.477 218.772 587.242 218.811 587.049 218.887C586.861 218.963 586.709 219.068 586.592 219.203C586.48 219.332 586.398 219.479 586.346 219.643C586.299 219.807 586.275 219.979 586.275 220.161C586.275 220.337 586.316 220.495 586.398 220.636C586.486 220.771 586.604 220.876 586.75 220.952C586.896 221.028 587.061 221.066 587.242 221.066C587.57 221.066 587.849 221.005 588.077 220.882C588.312 220.753 588.49 220.598 588.613 220.416C588.736 220.234 588.798 220.064 588.798 219.906L589.448 221.119C589.331 221.354 589.196 221.591 589.044 221.831C588.897 222.071 588.713 222.294 588.49 222.499C588.273 222.698 588.007 222.862 587.69 222.991C587.374 223.114 586.99 223.176 586.539 223.176C585.953 223.176 585.414 223.056 584.922 222.815C584.436 222.575 584.046 222.241 583.753 221.813C583.46 221.38 583.313 220.882 583.313 220.319C583.313 219.827 583.401 219.388 583.577 219.001C583.759 218.614 584.031 218.286 584.395 218.017C584.758 217.747 585.221 217.542 585.783 217.401C586.346 217.261 587.008 217.19 587.77 217.19H589.044ZM596.295 215.846V223H593.333V213.49H596.102L596.295 215.846ZM599.107 213.42L599.055 216.171C598.938 216.159 598.779 216.145 598.58 216.127C598.381 216.109 598.214 216.101 598.079 216.101C597.733 216.101 597.435 216.142 597.183 216.224C596.937 216.3 596.731 216.417 596.567 216.575C596.409 216.728 596.292 216.921 596.216 217.155C596.146 217.39 596.113 217.662 596.119 217.973L595.583 217.621C595.583 216.982 595.645 216.402 595.768 215.881C595.896 215.354 596.078 214.899 596.312 214.519C596.547 214.132 596.831 213.836 597.165 213.631C597.499 213.42 597.874 213.314 598.29 213.314C598.437 213.314 598.58 213.323 598.721 213.341C598.867 213.358 598.996 213.385 599.107 213.42ZM603.036 215.521V223H600.074V213.49H602.852L603.036 215.521ZM602.685 217.92L601.99 217.938C601.99 217.211 602.078 216.563 602.254 215.995C602.43 215.421 602.679 214.935 603.001 214.536C603.323 214.138 603.707 213.836 604.152 213.631C604.604 213.42 605.104 213.314 605.655 213.314C606.095 213.314 606.496 213.379 606.859 213.508C607.229 213.637 607.545 213.845 607.809 214.132C608.078 214.419 608.283 214.8 608.424 215.274C608.57 215.743 608.644 216.323 608.644 217.015V223H605.664V217.006C605.664 216.625 605.611 216.335 605.506 216.136C605.4 215.931 605.248 215.79 605.049 215.714C604.85 215.638 604.606 215.6 604.319 215.6C604.015 215.6 603.757 215.658 603.546 215.775C603.335 215.893 603.165 216.057 603.036 216.268C602.913 216.473 602.822 216.716 602.764 216.997C602.711 217.278 602.685 217.586 602.685 217.92ZM613.416 213.49V223H610.445V213.49H613.416ZM610.27 211.038C610.27 210.616 610.422 210.271 610.727 210.001C611.031 209.731 611.427 209.597 611.913 209.597C612.399 209.597 612.795 209.731 613.1 210.001C613.404 210.271 613.557 210.616 613.557 211.038C613.557 211.46 613.404 211.806 613.1 212.075C612.795 212.345 612.399 212.479 611.913 212.479C611.427 212.479 611.031 212.345 610.727 212.075C610.422 211.806 610.27 211.46 610.27 211.038ZM618.153 215.521V223H615.191V213.49H617.969L618.153 215.521ZM617.802 217.92L617.107 217.938C617.107 217.211 617.195 216.563 617.371 215.995C617.547 215.421 617.796 214.935 618.118 214.536C618.44 214.138 618.824 213.836 619.27 213.631C619.721 213.42 620.222 213.314 620.772 213.314C621.212 213.314 621.613 213.379 621.977 213.508C622.346 213.637 622.662 213.845 622.926 214.132C623.195 214.419 623.4 214.8 623.541 215.274C623.688 215.743 623.761 216.323 623.761 217.015V223H620.781V217.006C620.781 216.625 620.729 216.335 620.623 216.136C620.518 215.931 620.365 215.79 620.166 215.714C619.967 215.638 619.724 215.6 619.437 215.6C619.132 215.6 618.874 215.658 618.663 215.775C618.452 215.893 618.282 216.057 618.153 216.268C618.03 216.473 617.939 216.716 617.881 216.997C617.828 217.278 617.802 217.586 617.802 217.92ZM631.381 213.49H634.07V222.631C634.07 223.51 633.868 224.254 633.464 224.863C633.06 225.479 632.494 225.944 631.768 226.261C631.047 226.583 630.203 226.744 629.236 226.744C628.809 226.744 628.372 226.688 627.927 226.577C627.481 226.472 627.065 226.313 626.679 226.103C626.292 225.892 625.967 225.631 625.703 225.32L626.942 223.58C627.183 223.85 627.484 224.078 627.848 224.266C628.211 224.459 628.639 224.556 629.131 224.556C629.559 224.556 629.916 224.479 630.203 224.327C630.496 224.175 630.719 223.952 630.871 223.659C631.023 223.372 631.1 223.023 631.1 222.613V215.74L631.381 213.49ZM625.062 218.359V218.175C625.062 217.454 625.149 216.798 625.325 216.206C625.507 215.608 625.765 215.096 626.099 214.668C626.438 214.234 626.849 213.9 627.329 213.666C627.81 213.432 628.352 213.314 628.955 213.314C629.605 213.314 630.139 213.44 630.555 213.692C630.977 213.938 631.313 214.284 631.565 214.729C631.823 215.175 632.022 215.696 632.163 216.294C632.31 216.886 632.433 217.524 632.532 218.21V218.43C632.433 219.074 632.295 219.684 632.119 220.258C631.949 220.826 631.727 221.33 631.451 221.77C631.176 222.209 630.83 222.555 630.414 222.807C630.004 223.053 629.512 223.176 628.938 223.176C628.34 223.176 627.801 223.056 627.32 222.815C626.846 222.575 626.438 222.238 626.099 221.805C625.765 221.371 625.507 220.861 625.325 220.275C625.149 219.689 625.062 219.051 625.062 218.359ZM628.023 218.175V218.359C628.023 218.717 628.056 219.048 628.12 219.353C628.19 219.657 628.296 219.927 628.437 220.161C628.577 220.39 628.75 220.568 628.955 220.697C629.166 220.826 629.412 220.891 629.693 220.891C630.121 220.891 630.467 220.8 630.73 220.618C630.994 220.437 631.185 220.179 631.302 219.845C631.419 219.511 631.469 219.118 631.451 218.667V217.973C631.463 217.586 631.437 217.246 631.372 216.953C631.308 216.654 631.205 216.405 631.064 216.206C630.93 216.007 630.748 215.857 630.52 215.758C630.297 215.652 630.027 215.6 629.711 215.6C629.436 215.6 629.192 215.664 628.981 215.793C628.771 215.922 628.595 216.104 628.454 216.338C628.313 216.566 628.205 216.839 628.129 217.155C628.059 217.466 628.023 217.806 628.023 218.175Z" fill="white"/>
<rect x="677" y="196" width="109" height="41" rx="3" fill="#424242"/>
<rect x="677" y="196" width="109" height="41" rx="3" stroke="#424242" stroke-width="4"/>
<path d="M705.678 212.893L702.558 223H699.244L703.946 210.203H706.047L705.678 212.893ZM708.262 223L705.133 212.893L704.729 210.203H706.855L711.584 223H708.262ZM708.139 218.228V220.609H701.573V218.228H708.139ZM715.372 215.846V223H712.41V213.49H715.179L715.372 215.846ZM718.185 213.42L718.132 216.171C718.015 216.159 717.856 216.145 717.657 216.127C717.458 216.109 717.291 216.101 717.156 216.101C716.811 216.101 716.512 216.142 716.26 216.224C716.014 216.3 715.809 216.417 715.645 216.575C715.486 216.728 715.369 216.921 715.293 217.155C715.223 217.39 715.19 217.662 715.196 217.973L714.66 217.621C714.66 216.982 714.722 216.402 714.845 215.881C714.974 215.354 715.155 214.899 715.39 214.519C715.624 214.132 715.908 213.836 716.242 213.631C716.576 213.42 716.951 213.314 717.367 213.314C717.514 213.314 717.657 213.323 717.798 213.341C717.944 213.358 718.073 213.385 718.185 213.42ZM724.495 220.82V209.5H727.475V223H724.803L724.495 220.82ZM718.659 218.359V218.175C718.659 217.454 718.738 216.798 718.896 216.206C719.055 215.608 719.289 215.096 719.6 214.668C719.91 214.234 720.297 213.9 720.76 213.666C721.223 213.432 721.756 213.314 722.359 213.314C722.898 213.314 723.37 213.44 723.774 213.692C724.179 213.938 724.524 214.284 724.812 214.729C725.099 215.175 725.333 215.696 725.515 216.294C725.696 216.886 725.834 217.524 725.928 218.21V218.43C725.834 219.074 725.696 219.684 725.515 220.258C725.333 220.826 725.099 221.33 724.812 221.77C724.524 222.209 724.176 222.555 723.766 222.807C723.361 223.053 722.887 223.176 722.342 223.176C721.738 223.176 721.205 223.056 720.742 222.815C720.285 222.575 719.901 222.238 719.591 221.805C719.286 221.371 719.055 220.861 718.896 220.275C718.738 219.689 718.659 219.051 718.659 218.359ZM721.621 218.175V218.359C721.621 218.717 721.645 219.048 721.691 219.353C721.738 219.657 721.817 219.927 721.929 220.161C722.046 220.39 722.198 220.568 722.386 220.697C722.579 220.826 722.816 220.891 723.098 220.891C723.479 220.891 723.792 220.8 724.038 220.618C724.29 220.437 724.475 220.179 724.592 219.845C724.715 219.511 724.768 219.118 724.75 218.667V217.973C724.762 217.586 724.735 217.246 724.671 216.953C724.606 216.654 724.504 216.405 724.363 216.206C724.229 216.007 724.056 215.857 723.845 215.758C723.64 215.652 723.396 215.6 723.115 215.6C722.84 215.6 722.605 215.664 722.412 215.793C722.225 215.922 722.072 216.104 721.955 216.338C721.838 216.566 721.753 216.839 721.7 217.155C721.647 217.466 721.621 217.806 721.621 218.175ZM734.708 220.688V213.49H737.679V223H734.901L734.708 220.688ZM734.989 218.755L735.763 218.737C735.763 219.376 735.687 219.968 735.534 220.513C735.382 221.052 735.156 221.521 734.857 221.919C734.564 222.317 734.201 222.628 733.768 222.851C733.34 223.067 732.845 223.176 732.282 223.176C731.813 223.176 731.383 223.111 730.99 222.982C730.604 222.848 730.27 222.64 729.988 222.358C729.707 222.071 729.487 221.705 729.329 221.26C729.177 220.809 729.101 220.27 729.101 219.643V213.49H732.062V219.66C732.062 219.871 732.089 220.053 732.142 220.205C732.194 220.357 732.271 220.486 732.37 220.592C732.47 220.691 732.593 220.768 732.739 220.82C732.892 220.867 733.064 220.891 733.258 220.891C733.703 220.891 734.052 220.797 734.304 220.609C734.556 220.422 734.731 220.167 734.831 219.845C734.937 219.522 734.989 219.159 734.989 218.755ZM742.442 213.49V223H739.472V213.49H742.442ZM739.296 211.038C739.296 210.616 739.448 210.271 739.753 210.001C740.058 209.731 740.453 209.597 740.939 209.597C741.426 209.597 741.821 209.731 742.126 210.001C742.431 210.271 742.583 210.616 742.583 211.038C742.583 211.46 742.431 211.806 742.126 212.075C741.821 212.345 741.426 212.479 740.939 212.479C740.453 212.479 740.058 212.345 739.753 212.075C739.448 211.806 739.296 211.46 739.296 211.038ZM747.18 215.521V223H744.218V213.49H746.995L747.18 215.521ZM746.828 217.92L746.134 217.938C746.134 217.211 746.222 216.563 746.397 215.995C746.573 215.421 746.822 214.935 747.145 214.536C747.467 214.138 747.851 213.836 748.296 213.631C748.747 213.42 749.248 213.314 749.799 213.314C750.238 213.314 750.64 213.379 751.003 213.508C751.372 213.637 751.688 213.845 751.952 214.132C752.222 214.419 752.427 214.8 752.567 215.274C752.714 215.743 752.787 216.323 752.787 217.015V223H749.808V217.006C749.808 216.625 749.755 216.335 749.649 216.136C749.544 215.931 749.392 215.79 749.192 215.714C748.993 215.638 748.75 215.6 748.463 215.6C748.158 215.6 747.9 215.658 747.689 215.775C747.479 215.893 747.309 216.057 747.18 216.268C747.057 216.473 746.966 216.716 746.907 216.997C746.854 217.278 746.828 217.586 746.828 217.92ZM754.062 218.342V218.157C754.062 217.46 754.161 216.818 754.36 216.232C754.56 215.641 754.853 215.128 755.239 214.694C755.626 214.261 756.104 213.924 756.672 213.684C757.24 213.438 757.896 213.314 758.641 213.314C759.391 213.314 760.05 213.438 760.618 213.684C761.192 213.924 761.673 214.261 762.06 214.694C762.446 215.128 762.739 215.641 762.938 216.232C763.138 216.818 763.237 217.46 763.237 218.157V218.342C763.237 219.033 763.138 219.675 762.938 220.267C762.739 220.853 762.446 221.365 762.06 221.805C761.673 222.238 761.195 222.575 760.627 222.815C760.059 223.056 759.402 223.176 758.658 223.176C757.914 223.176 757.255 223.056 756.681 222.815C756.106 222.575 755.626 222.238 755.239 221.805C754.853 221.365 754.56 220.853 754.36 220.267C754.161 219.675 754.062 219.033 754.062 218.342ZM757.023 218.157V218.342C757.023 218.699 757.05 219.033 757.103 219.344C757.155 219.654 757.243 219.927 757.366 220.161C757.489 220.39 757.656 220.568 757.867 220.697C758.078 220.826 758.342 220.891 758.658 220.891C758.969 220.891 759.227 220.826 759.432 220.697C759.643 220.568 759.81 220.39 759.933 220.161C760.056 219.927 760.144 219.654 760.196 219.344C760.249 219.033 760.275 218.699 760.275 218.342V218.157C760.275 217.812 760.249 217.486 760.196 217.182C760.144 216.871 760.056 216.599 759.933 216.364C759.81 216.124 759.643 215.937 759.432 215.802C759.221 215.667 758.957 215.6 758.641 215.6C758.33 215.6 758.069 215.667 757.858 215.802C757.653 215.937 757.489 216.124 757.366 216.364C757.243 216.599 757.155 216.871 757.103 217.182C757.05 217.486 757.023 217.812 757.023 218.157Z" fill="white"/>
<path d="M1066 0H1348C1356.28 0 1363 6.71573 1363 15V282C1363 290.284 1356.28 297 1348 297H1066V0Z" fill="white"/>
<path d="M1229.07 200.056V217.633C1229.07 219.186 1228.45 220.677 1227.35 221.777C1226.26 222.877 1224.77 223.497 1223.22 223.5H1211.5C1206.85 223.493 1202.38 221.637 1199.09 218.34C1195.8 215.042 1193.94 210.572 1193.94 205.911V202.97C1193.93 202.576 1193.81 202.194 1193.58 201.874C1193.35 201.554 1193.02 201.311 1192.65 201.178H1192.58C1192.22 201.021 1191.82 200.974 1191.44 201.043C1191.06 201.112 1190.7 201.294 1190.42 201.565L1188.34 203.654C1185.04 206.942 1180.57 208.788 1175.92 208.788C1171.27 208.788 1166.8 206.942 1163.51 203.654L1159.36 199.502C1156.07 196.206 1154.22 191.737 1154.22 187.077C1154.22 182.417 1156.07 177.948 1159.36 174.652L1161.44 172.563C1161.72 172.283 1161.9 171.929 1161.97 171.545C1162.03 171.162 1161.99 170.766 1161.83 170.409V170.293C1161.7 169.924 1161.46 169.604 1161.14 169.374C1160.82 169.143 1160.44 169.015 1160.05 169.004H1157.06C1152.41 169 1147.94 167.147 1144.65 163.852C1141.35 160.556 1139.5 156.088 1139.5 151.427V145.573C1139.5 140.911 1141.35 136.441 1144.65 133.143C1147.94 129.846 1152.4 127.99 1157.06 127.983H1160.01C1160.41 127.973 1160.79 127.845 1161.11 127.615C1161.43 127.385 1161.67 127.064 1161.8 126.694V126.591C1161.96 126.232 1162.01 125.834 1161.94 125.448C1161.88 125.062 1161.69 124.705 1161.42 124.424L1159.33 122.348C1156.04 119.05 1154.19 114.579 1154.19 109.917C1154.19 105.255 1156.04 100.784 1159.33 97.4856L1163.48 93.3461C1165.11 91.7105 1167.04 90.4127 1169.17 89.5271C1171.3 88.6416 1173.59 88.1857 1175.9 88.1857C1178.2 88.1857 1180.49 88.6416 1182.62 89.5271C1184.75 90.4127 1186.68 91.7105 1188.31 93.3461L1190.4 95.4223C1190.68 95.6951 1191.03 95.8778 1191.41 95.9468C1191.8 96.0158 1192.19 95.9678 1192.55 95.8091H1192.64C1193.01 95.6784 1193.33 95.4381 1193.56 95.1203C1193.79 94.8024 1193.92 94.422 1193.93 94.0296V91.0765C1193.94 86.4148 1195.79 81.9462 1199.08 78.651C1202.38 75.3559 1206.85 73.5034 1211.5 73.5H1223.22C1224.77 73.5 1226.26 74.1164 1227.36 75.214C1228.46 76.3115 1229.08 77.8006 1229.08 79.3545V96.9311C1229.12 97.7239 1228.99 98.516 1228.72 99.2595C1228.44 100.003 1228.01 100.682 1227.47 101.257C1226.92 101.831 1226.26 102.288 1225.53 102.6C1224.8 102.912 1224.02 103.073 1223.22 103.073C1222.43 103.073 1221.65 102.912 1220.92 102.6C1220.19 102.288 1219.53 101.831 1218.98 101.257C1218.43 100.682 1218.01 100.003 1217.73 99.2595C1217.45 98.516 1217.33 97.7239 1217.37 96.9311V85.222H1211.5C1209.95 85.222 1208.46 85.8388 1207.37 86.9367C1206.27 88.0347 1205.65 89.5238 1205.65 91.0765V94.0296C1205.65 96.7385 1204.85 99.3858 1203.34 101.634C1201.83 103.882 1199.68 105.63 1197.18 106.654H1197.07C1194.59 107.699 1191.85 107.982 1189.21 107.468C1186.56 106.954 1184.13 105.665 1182.22 103.766L1180.13 101.677C1179.03 100.578 1177.54 99.9611 1175.99 99.9611C1174.43 99.9611 1172.94 100.578 1171.84 101.677L1167.65 105.829C1166.56 106.927 1165.94 108.416 1165.94 109.968C1165.94 111.521 1166.56 113.01 1167.65 114.108L1169.74 116.197C1171.66 118.114 1172.96 120.559 1173.47 123.219C1173.99 125.879 1173.71 128.633 1172.65 131.13V131.207C1171.63 133.717 1169.89 135.866 1167.64 137.38C1165.39 138.894 1162.75 139.703 1160.04 139.705H1157.06C1155.51 139.705 1154.02 140.323 1152.92 141.424C1151.82 142.524 1151.2 144.017 1151.2 145.573V151.427C1151.2 152.981 1151.82 154.47 1152.92 155.568C1154.02 156.665 1155.51 157.282 1157.06 157.282H1160.01C1162.72 157.283 1165.36 158.089 1167.6 159.598C1169.85 161.107 1171.59 163.25 1172.62 165.754V165.857C1173.66 168.354 1173.94 171.106 1173.42 173.763C1172.9 176.42 1171.6 178.862 1169.69 180.777L1167.65 182.879C1166.56 183.979 1165.94 185.471 1165.94 187.025C1165.94 188.58 1166.56 190.071 1167.65 191.171L1171.79 195.311C1172.89 196.406 1174.38 197.021 1175.93 197.021C1177.49 197.021 1178.98 196.406 1180.08 195.311L1182.22 193.221C1184.12 191.311 1186.55 190.008 1189.19 189.48C1191.84 188.952 1194.58 189.222 1197.07 190.256H1197.15C1199.66 191.277 1201.81 193.024 1203.33 195.276C1204.84 197.527 1205.65 200.179 1205.65 202.893V205.833C1205.65 207.387 1206.27 208.878 1207.37 209.978C1208.46 211.078 1209.95 211.697 1211.5 211.701H1217.37V200.056C1217.37 198.503 1217.98 197.014 1219.08 195.916C1220.18 194.818 1221.67 194.202 1223.22 194.202C1224.77 194.202 1226.26 194.818 1227.35 195.916C1228.45 197.014 1229.07 198.503 1229.07 200.056ZM1279.13 138.248C1277.48 138.246 1275.85 138.643 1274.39 139.407C1272.92 140.17 1271.67 141.277 1270.73 142.633H1225.19C1223.94 140.822 1222.15 139.459 1220.07 138.741C1217.99 138.024 1215.74 137.99 1213.64 138.644C1211.54 139.299 1209.71 140.608 1208.4 142.38C1207.1 144.151 1206.4 146.294 1206.4 148.494C1206.4 150.693 1207.1 152.836 1208.4 154.608C1209.71 156.379 1211.54 157.688 1213.64 158.343C1215.74 158.997 1217.99 158.963 1220.07 158.246C1222.15 157.528 1223.94 156.165 1225.19 154.355H1270.73C1271.73 155.802 1273.09 156.965 1274.68 157.732C1276.27 158.499 1278.03 158.843 1279.78 158.731C1281.54 158.62 1283.24 158.056 1284.72 157.095C1286.2 156.134 1287.4 154.807 1288.22 153.244C1289.03 151.681 1289.43 149.934 1289.37 148.171C1289.32 146.409 1288.81 144.691 1287.89 143.183C1286.98 141.676 1285.69 140.429 1284.16 139.565C1282.62 138.7 1280.89 138.247 1279.13 138.248ZM1279.13 186.284C1278.41 186.282 1277.7 186.36 1277 186.516L1262.75 172.447C1261.65 171.365 1260.18 170.758 1258.64 170.758H1214.43C1211.46 170.829 1208.51 170.306 1205.75 169.219C1202.99 168.132 1200.47 166.504 1198.35 164.429C1196.23 162.355 1194.54 159.876 1193.39 157.14C1192.23 154.403 1191.64 151.463 1191.64 148.494C1191.64 145.524 1192.23 142.584 1193.39 139.847C1194.54 137.111 1196.23 134.632 1198.35 132.558C1200.47 130.483 1202.99 128.855 1205.75 127.768C1208.51 126.681 1211.46 126.158 1214.43 126.23H1258.63C1259.4 126.227 1260.16 126.072 1260.87 125.773C1261.59 125.474 1262.23 125.038 1262.78 124.489L1277.08 110.175C1277.75 110.315 1278.44 110.385 1279.13 110.381C1281.21 110.376 1283.25 109.732 1284.96 108.536C1286.67 107.341 1287.97 105.65 1288.69 103.692C1289.41 101.734 1289.52 99.6014 1288.99 97.5814C1288.47 95.5615 1287.34 93.7507 1285.75 92.3921C1284.17 91.0335 1282.21 90.1922 1280.13 89.9812C1278.06 89.7702 1275.97 90.1996 1274.15 91.2117C1272.32 92.2239 1270.85 93.7702 1269.93 95.6432C1269.01 97.5162 1268.69 99.626 1269 101.689L1256.22 114.482H1214.43C1205.41 114.482 1196.77 118.066 1190.39 124.445C1184.02 130.825 1180.44 139.478 1180.44 148.5C1180.44 157.522 1184.02 166.175 1190.39 172.555C1196.77 178.934 1205.41 182.518 1214.43 182.518H1256.24L1268.99 195.104C1268.92 195.591 1268.89 196.083 1268.88 196.574C1268.88 198.617 1269.49 200.615 1270.63 202.312C1271.76 204.01 1273.37 205.332 1275.26 206.111C1277.15 206.89 1279.23 207.091 1281.23 206.687C1283.23 206.284 1285.06 205.295 1286.5 203.846C1287.94 202.397 1288.92 200.553 1289.31 198.547C1289.7 196.542 1289.49 194.465 1288.7 192.581C1287.91 190.698 1286.58 189.091 1284.87 187.965C1283.17 186.839 1281.17 186.245 1279.13 186.258V186.284Z" fill="url(#paint0_linear_3_61)"/>
<defs>
<linearGradient id="paint0_linear_3_61" x1="1139.5" y1="148.487" x2="1289.37" y2="148.487" gradientUnits="userSpaceOnUse">
<stop stop-color="#00F2FE"/>
<stop offset="0.02" stop-color="#03EFFE"/>
<stop offset="0.29" stop-color="#24D2FE"/>
<stop offset="0.55" stop-color="#3CBDFE"/>
<stop offset="0.8" stop-color="#4AB0FE"/>
<stop offset="1" stop-color="#4FACFE"/>
</linearGradient>
</defs>
</svg>
