<svg width="1363" height="163" viewBox="0 0 1363 163" fill="none" xmlns="http://www.w3.org/2000/svg">
<path d="M0 15C0 6.71573 6.71573 0 15 0H37V163H15C6.71573 163 0 156.284 0 148V15Z" fill="#424242"/>
<rect width="1097" height="163" transform="translate(37)" fill="#F0F0F0"/>
<path d="M103.406 56.5352C103.406 56.2305 103.359 55.957 103.266 55.7148C103.18 55.4648 103.016 55.2383 102.773 55.0352C102.531 54.8242 102.191 54.6172 101.754 54.4141C101.316 54.2109 100.75 54 100.055 53.7812C99.2812 53.5312 98.5469 53.25 97.8516 52.9375C97.1641 52.625 96.5547 52.2617 96.0234 51.8477C95.5 51.4258 95.0859 50.9375 94.7812 50.3828C94.4844 49.8281 94.3359 49.1836 94.3359 48.4492C94.3359 47.7383 94.4922 47.0938 94.8047 46.5156C95.1172 45.9297 95.5547 45.4297 96.1172 45.0156C96.6797 44.5938 97.3438 44.2695 98.1094 44.043C98.8828 43.8164 99.7305 43.7031 100.652 43.7031C101.91 43.7031 103.008 43.9297 103.945 44.3828C104.883 44.8359 105.609 45.457 106.125 46.2461C106.648 47.0352 106.91 47.9375 106.91 48.9531H103.418C103.418 48.4531 103.312 48.0156 103.102 47.6406C102.898 47.2578 102.586 46.957 102.164 46.7383C101.75 46.5195 101.227 46.4102 100.594 46.4102C99.9844 46.4102 99.4766 46.5039 99.0703 46.6914C98.6641 46.8711 98.3594 47.1172 98.1562 47.4297C97.9531 47.7344 97.8516 48.0781 97.8516 48.4609C97.8516 48.75 97.9219 49.0117 98.0625 49.2461C98.2109 49.4805 98.4297 49.6992 98.7188 49.9023C99.0078 50.1055 99.3633 50.2969 99.7852 50.4766C100.207 50.6562 100.695 50.832 101.25 51.0039C102.18 51.2852 102.996 51.6016 103.699 51.9531C104.41 52.3047 105.004 52.6992 105.48 53.1367C105.957 53.5742 106.316 54.0703 106.559 54.625C106.801 55.1797 106.922 55.8086 106.922 56.5117C106.922 57.2539 106.777 57.918 106.488 58.5039C106.199 59.0898 105.781 59.5859 105.234 59.9922C104.688 60.3984 104.035 60.707 103.277 60.918C102.52 61.1289 101.672 61.2344 100.734 61.2344C99.8906 61.2344 99.0586 61.125 98.2383 60.9062C97.418 60.6797 96.6719 60.3398 96 59.8867C95.3359 59.4336 94.8047 58.8555 94.4062 58.1523C94.0078 57.4492 93.8086 56.6172 93.8086 55.6562H97.3359C97.3359 56.1875 97.418 56.6367 97.582 57.0039C97.7461 57.3711 97.9766 57.668 98.2734 57.8945C98.5781 58.1211 98.9375 58.2852 99.3516 58.3867C99.7734 58.4883 100.234 58.5391 100.734 58.5391C101.344 58.5391 101.844 58.4531 102.234 58.2812C102.633 58.1094 102.926 57.8711 103.113 57.5664C103.309 57.2617 103.406 56.918 103.406 56.5352ZM114.34 58.5977C114.754 58.5977 115.121 58.5195 115.441 58.3633C115.762 58.1992 116.012 57.9727 116.191 57.6836C116.379 57.3867 116.477 57.0391 116.484 56.6406H119.66C119.652 57.5312 119.414 58.3242 118.945 59.0195C118.477 59.707 117.848 60.25 117.059 60.6484C116.27 61.0391 115.387 61.2344 114.41 61.2344C113.426 61.2344 112.566 61.0703 111.832 60.7422C111.105 60.4141 110.5 59.9609 110.016 59.3828C109.531 58.7969 109.168 58.1172 108.926 57.3438C108.684 56.5625 108.562 55.7266 108.562 54.8359V54.4961C108.562 53.5977 108.684 52.7617 108.926 51.9883C109.168 51.207 109.531 50.5273 110.016 49.9492C110.5 49.3633 111.105 48.9062 111.832 48.5781C112.559 48.25 113.41 48.0859 114.387 48.0859C115.426 48.0859 116.336 48.2852 117.117 48.6836C117.906 49.082 118.523 49.6523 118.969 50.3945C119.422 51.1289 119.652 52 119.66 53.0078H116.484C116.477 52.5859 116.387 52.2031 116.215 51.8594C116.051 51.5156 115.809 51.2422 115.488 51.0391C115.176 50.8281 114.789 50.7227 114.328 50.7227C113.836 50.7227 113.434 50.8281 113.121 51.0391C112.809 51.2422 112.566 51.5234 112.395 51.8828C112.223 52.2344 112.102 52.6367 112.031 53.0898C111.969 53.5352 111.938 54.0039 111.938 54.4961V54.8359C111.938 55.3281 111.969 55.8008 112.031 56.2539C112.094 56.707 112.211 57.1094 112.383 57.4609C112.562 57.8125 112.809 58.0898 113.121 58.293C113.434 58.4961 113.84 58.5977 114.34 58.5977ZM121.078 54.7891V54.543C121.078 53.6133 121.211 52.7578 121.477 51.9766C121.742 51.1875 122.129 50.5039 122.637 49.9258C123.145 49.3477 123.77 48.8984 124.512 48.5781C125.254 48.25 126.105 48.0859 127.066 48.0859C128.027 48.0859 128.883 48.25 129.633 48.5781C130.383 48.8984 131.012 49.3477 131.52 49.9258C132.035 50.5039 132.426 51.1875 132.691 51.9766C132.957 52.7578 133.09 53.6133 133.09 54.543V54.7891C133.09 55.7109 132.957 56.5664 132.691 57.3555C132.426 58.1367 132.035 58.8203 131.52 59.4062C131.012 59.9844 130.387 60.4336 129.645 60.7539C128.902 61.0742 128.051 61.2344 127.09 61.2344C126.129 61.2344 125.273 61.0742 124.523 60.7539C123.781 60.4336 123.152 59.9844 122.637 59.4062C122.129 58.8203 121.742 58.1367 121.477 57.3555C121.211 56.5664 121.078 55.7109 121.078 54.7891ZM124.453 54.543V54.7891C124.453 55.3203 124.5 55.8164 124.594 56.2773C124.688 56.7383 124.836 57.1445 125.039 57.4961C125.25 57.8398 125.523 58.1094 125.859 58.3047C126.195 58.5 126.605 58.5977 127.09 58.5977C127.559 58.5977 127.961 58.5 128.297 58.3047C128.633 58.1094 128.902 57.8398 129.105 57.4961C129.309 57.1445 129.457 56.7383 129.551 56.2773C129.652 55.8164 129.703 55.3203 129.703 54.7891V54.543C129.703 54.0273 129.652 53.543 129.551 53.0898C129.457 52.6289 129.305 52.2227 129.094 51.8711C128.891 51.5117 128.621 51.2305 128.285 51.0273C127.949 50.8242 127.543 50.7227 127.066 50.7227C126.59 50.7227 126.184 50.8242 125.848 51.0273C125.52 51.2305 125.25 51.5117 125.039 51.8711C124.836 52.2227 124.688 52.6289 124.594 53.0898C124.5 53.543 124.453 54.0273 124.453 54.543ZM142.664 57.9648V48.3203H146.039V61H142.863L142.664 57.9648ZM143.039 55.3633L144.035 55.3398C144.035 56.1836 143.938 56.9688 143.742 57.6953C143.547 58.4141 143.254 59.0391 142.863 59.5703C142.473 60.0938 141.98 60.5039 141.387 60.8008C140.793 61.0898 140.094 61.2344 139.289 61.2344C138.672 61.2344 138.102 61.1484 137.578 60.9766C137.062 60.7969 136.617 60.5195 136.242 60.1445C135.875 59.7617 135.586 59.2734 135.375 58.6797C135.172 58.0781 135.07 57.3555 135.07 56.5117V48.3203H138.445V56.5352C138.445 56.9102 138.488 57.2266 138.574 57.4844C138.668 57.7422 138.797 57.9531 138.961 58.1172C139.125 58.2812 139.316 58.3984 139.535 58.4688C139.762 58.5391 140.012 58.5742 140.285 58.5742C140.98 58.5742 141.527 58.4336 141.926 58.1523C142.332 57.8711 142.617 57.4883 142.781 57.0039C142.953 56.5117 143.039 55.9648 143.039 55.3633ZM154.828 48.3203V50.7109H147.445V48.3203H154.828ZM149.273 45.1914H152.648V57.1797C152.648 57.5469 152.695 57.8281 152.789 58.0234C152.891 58.2188 153.039 58.3555 153.234 58.4336C153.43 58.5039 153.676 58.5391 153.973 58.5391C154.184 58.5391 154.371 58.5312 154.535 58.5156C154.707 58.4922 154.852 58.4688 154.969 58.4453L154.98 60.9297C154.691 61.0234 154.379 61.0977 154.043 61.1523C153.707 61.207 153.336 61.2344 152.93 61.2344C152.188 61.2344 151.539 61.1133 150.984 60.8711C150.438 60.6211 150.016 60.2227 149.719 59.6758C149.422 59.1289 149.273 58.4102 149.273 57.5195V45.1914ZM169.875 46.8555L165.234 61H161.496L167.836 43.9375H170.215L169.875 46.8555ZM173.73 61L169.078 46.8555L168.703 43.9375H171.105L177.48 61H173.73ZM173.52 54.6484V57.4023H164.508V54.6484H173.52ZM182.801 43.9375V61H179.297V43.9375H182.801Z" fill="#888888"/>
<path d="M114.117 84.875H122.344V107.164C122.344 109.82 121.789 112.07 120.68 113.914C119.57 115.742 118.016 117.125 116.016 118.062C114.016 119 111.664 119.469 108.961 119.469C106.289 119.469 103.938 119 101.906 118.062C99.8906 117.125 98.3125 115.742 97.1719 113.914C96.0469 112.07 95.4844 109.82 95.4844 107.164V84.875H103.734V107.164C103.734 108.57 103.938 109.719 104.344 110.609C104.75 111.484 105.344 112.125 106.125 112.531C106.906 112.938 107.852 113.141 108.961 113.141C110.086 113.141 111.031 112.938 111.797 112.531C112.562 112.125 113.141 111.484 113.531 110.609C113.922 109.719 114.117 108.57 114.117 107.164V84.875ZM136.266 84.875V119H128.062V84.875H136.266ZM172.523 84.875H180.75V107.164C180.75 109.82 180.195 112.07 179.086 113.914C177.977 115.742 176.422 117.125 174.422 118.062C172.422 119 170.07 119.469 167.367 119.469C164.695 119.469 162.344 119 160.312 118.062C158.297 117.125 156.719 115.742 155.578 113.914C154.453 112.07 153.891 109.82 153.891 107.164V84.875H162.141V107.164C162.141 108.57 162.344 109.719 162.75 110.609C163.156 111.484 163.75 112.125 164.531 112.531C165.312 112.938 166.258 113.141 167.367 113.141C168.492 113.141 169.438 112.938 170.203 112.531C170.969 112.125 171.547 111.484 171.938 110.609C172.328 109.719 172.523 108.57 172.523 107.164V84.875ZM193.078 84.875L198.656 96.2188L204.234 84.875H213.609L204.094 101.797L213.867 119H204.398L198.656 107.445L192.914 119H183.422L193.219 101.797L183.68 84.875H193.078Z" fill="black"/>
<path d="M1134 0H1348C1356.28 0 1363 6.71573 1363 15V148C1363 156.284 1356.28 163 1348 163H1134V0Z" fill="#3292E6"/>
<path d="M1248.5 111.917C1244.51 111.917 1240.55 111.13 1236.86 109.601C1233.17 108.073 1229.82 105.832 1226.99 103.008C1221.29 97.3036 1218.08 89.567 1218.08 81.5C1218.08 73.433 1221.29 65.6964 1226.99 59.9922C1232.7 54.2879 1240.43 51.0833 1248.5 51.0833C1265.23 51.0833 1278.92 63.25 1278.92 78.4583C1278.92 83.2985 1276.99 87.9405 1273.57 91.363C1270.15 94.7856 1265.51 96.7083 1260.67 96.7083H1255.19C1254.28 96.7083 1253.67 97.3167 1253.67 98.2292C1253.67 98.5333 1253.97 98.8375 1253.97 99.1417C1255.19 100.662 1255.8 102.487 1255.8 104.312C1256.1 108.571 1252.76 111.917 1248.5 111.917ZM1248.5 57.1667C1242.05 57.1667 1235.86 59.7303 1231.29 64.2937C1226.73 68.8571 1224.17 75.0464 1224.17 81.5C1224.17 87.9536 1226.73 94.1429 1231.29 98.7063C1235.86 103.27 1242.05 105.833 1248.5 105.833C1249.41 105.833 1250.02 105.225 1250.02 104.312C1250.02 103.704 1249.72 103.4 1249.72 103.096C1248.5 101.575 1247.89 100.054 1247.89 98.2292C1247.89 93.9708 1251.24 90.625 1255.5 90.625H1260.67C1263.89 90.625 1266.99 89.3432 1269.27 87.0615C1271.55 84.7798 1272.83 81.6851 1272.83 78.4583C1272.83 66.5958 1261.88 57.1667 1248.5 57.1667ZM1231.77 75.4167C1234.2 75.4167 1236.33 77.5458 1236.33 79.9792C1236.33 82.4125 1234.2 84.5417 1231.77 84.5417C1229.34 84.5417 1227.21 82.4125 1227.21 79.9792C1227.21 77.5458 1229.34 75.4167 1231.77 75.4167ZM1240.9 63.25C1243.33 63.25 1245.46 65.3792 1245.46 67.8125C1245.46 70.2458 1243.33 72.375 1240.9 72.375C1238.46 72.375 1236.33 70.2458 1236.33 67.8125C1236.33 65.3792 1238.46 63.25 1240.9 63.25ZM1256.1 63.25C1258.54 63.25 1260.67 65.3792 1260.67 67.8125C1260.67 70.2458 1258.54 72.375 1256.1 72.375C1253.67 72.375 1251.54 70.2458 1251.54 67.8125C1251.54 65.3792 1253.67 63.25 1256.1 63.25ZM1265.23 75.4167C1267.66 75.4167 1269.79 77.5458 1269.79 79.9792C1269.79 82.4125 1267.66 84.5417 1265.23 84.5417C1262.8 84.5417 1260.67 82.4125 1260.67 79.9792C1260.67 77.5458 1262.8 75.4167 1265.23 75.4167Z" fill="white"/>
</svg>
