<svg width="1363" height="163" viewBox="0 0 1363 163" fill="none" xmlns="http://www.w3.org/2000/svg">
<path d="M0 15C0 6.71573 6.71573 0 15 0H37V163H15C6.71573 163 0 156.284 0 148V15Z" fill="#424242"/>
<rect width="1097" height="163" transform="translate(37)" fill="#F0F0F0"/>
<path d="M103.406 56.5352C103.406 56.2305 103.359 55.957 103.266 55.7148C103.18 55.4648 103.016 55.2383 102.773 55.0352C102.531 54.8242 102.191 54.6172 101.754 54.4141C101.316 54.2109 100.75 54 100.055 53.7812C99.2812 53.5312 98.5469 53.25 97.8516 52.9375C97.1641 52.625 96.5547 52.2617 96.0234 51.8477C95.5 51.4258 95.0859 50.9375 94.7812 50.3828C94.4844 49.8281 94.3359 49.1836 94.3359 48.4492C94.3359 47.7383 94.4922 47.0938 94.8047 46.5156C95.1172 45.9297 95.5547 45.4297 96.1172 45.0156C96.6797 44.5938 97.3438 44.2695 98.1094 44.043C98.8828 43.8164 99.7305 43.7031 100.652 43.7031C101.91 43.7031 103.008 43.9297 103.945 44.3828C104.883 44.8359 105.609 45.457 106.125 46.2461C106.648 47.0352 106.91 47.9375 106.91 48.9531H103.418C103.418 48.4531 103.312 48.0156 103.102 47.6406C102.898 47.2578 102.586 46.957 102.164 46.7383C101.75 46.5195 101.227 46.4102 100.594 46.4102C99.9844 46.4102 99.4766 46.5039 99.0703 46.6914C98.6641 46.8711 98.3594 47.1172 98.1562 47.4297C97.9531 47.7344 97.8516 48.0781 97.8516 48.4609C97.8516 48.75 97.9219 49.0117 98.0625 49.2461C98.2109 49.4805 98.4297 49.6992 98.7188 49.9023C99.0078 50.1055 99.3633 50.2969 99.7852 50.4766C100.207 50.6562 100.695 50.832 101.25 51.0039C102.18 51.2852 102.996 51.6016 103.699 51.9531C104.41 52.3047 105.004 52.6992 105.48 53.1367C105.957 53.5742 106.316 54.0703 106.559 54.625C106.801 55.1797 106.922 55.8086 106.922 56.5117C106.922 57.2539 106.777 57.918 106.488 58.5039C106.199 59.0898 105.781 59.5859 105.234 59.9922C104.688 60.3984 104.035 60.707 103.277 60.918C102.52 61.1289 101.672 61.2344 100.734 61.2344C99.8906 61.2344 99.0586 61.125 98.2383 60.9062C97.418 60.6797 96.6719 60.3398 96 59.8867C95.3359 59.4336 94.8047 58.8555 94.4062 58.1523C94.0078 57.4492 93.8086 56.6172 93.8086 55.6562H97.3359C97.3359 56.1875 97.418 56.6367 97.582 57.0039C97.7461 57.3711 97.9766 57.668 98.2734 57.8945C98.5781 58.1211 98.9375 58.2852 99.3516 58.3867C99.7734 58.4883 100.234 58.5391 100.734 58.5391C101.344 58.5391 101.844 58.4531 102.234 58.2812C102.633 58.1094 102.926 57.8711 103.113 57.5664C103.309 57.2617 103.406 56.918 103.406 56.5352ZM114.34 58.5977C114.754 58.5977 115.121 58.5195 115.441 58.3633C115.762 58.1992 116.012 57.9727 116.191 57.6836C116.379 57.3867 116.477 57.0391 116.484 56.6406H119.66C119.652 57.5312 119.414 58.3242 118.945 59.0195C118.477 59.707 117.848 60.25 117.059 60.6484C116.27 61.0391 115.387 61.2344 114.41 61.2344C113.426 61.2344 112.566 61.0703 111.832 60.7422C111.105 60.4141 110.5 59.9609 110.016 59.3828C109.531 58.7969 109.168 58.1172 108.926 57.3438C108.684 56.5625 108.562 55.7266 108.562 54.8359V54.4961C108.562 53.5977 108.684 52.7617 108.926 51.9883C109.168 51.207 109.531 50.5273 110.016 49.9492C110.5 49.3633 111.105 48.9062 111.832 48.5781C112.559 48.25 113.41 48.0859 114.387 48.0859C115.426 48.0859 116.336 48.2852 117.117 48.6836C117.906 49.082 118.523 49.6523 118.969 50.3945C119.422 51.1289 119.652 52 119.66 53.0078H116.484C116.477 52.5859 116.387 52.2031 116.215 51.8594C116.051 51.5156 115.809 51.2422 115.488 51.0391C115.176 50.8281 114.789 50.7227 114.328 50.7227C113.836 50.7227 113.434 50.8281 113.121 51.0391C112.809 51.2422 112.566 51.5234 112.395 51.8828C112.223 52.2344 112.102 52.6367 112.031 53.0898C111.969 53.5352 111.938 54.0039 111.938 54.4961V54.8359C111.938 55.3281 111.969 55.8008 112.031 56.2539C112.094 56.707 112.211 57.1094 112.383 57.4609C112.562 57.8125 112.809 58.0898 113.121 58.293C113.434 58.4961 113.84 58.5977 114.34 58.5977ZM121.078 54.7891V54.543C121.078 53.6133 121.211 52.7578 121.477 51.9766C121.742 51.1875 122.129 50.5039 122.637 49.9258C123.145 49.3477 123.77 48.8984 124.512 48.5781C125.254 48.25 126.105 48.0859 127.066 48.0859C128.027 48.0859 128.883 48.25 129.633 48.5781C130.383 48.8984 131.012 49.3477 131.52 49.9258C132.035 50.5039 132.426 51.1875 132.691 51.9766C132.957 52.7578 133.09 53.6133 133.09 54.543V54.7891C133.09 55.7109 132.957 56.5664 132.691 57.3555C132.426 58.1367 132.035 58.8203 131.52 59.4062C131.012 59.9844 130.387 60.4336 129.645 60.7539C128.902 61.0742 128.051 61.2344 127.09 61.2344C126.129 61.2344 125.273 61.0742 124.523 60.7539C123.781 60.4336 123.152 59.9844 122.637 59.4062C122.129 58.8203 121.742 58.1367 121.477 57.3555C121.211 56.5664 121.078 55.7109 121.078 54.7891ZM124.453 54.543V54.7891C124.453 55.3203 124.5 55.8164 124.594 56.2773C124.688 56.7383 124.836 57.1445 125.039 57.4961C125.25 57.8398 125.523 58.1094 125.859 58.3047C126.195 58.5 126.605 58.5977 127.09 58.5977C127.559 58.5977 127.961 58.5 128.297 58.3047C128.633 58.1094 128.902 57.8398 129.105 57.4961C129.309 57.1445 129.457 56.7383 129.551 56.2773C129.652 55.8164 129.703 55.3203 129.703 54.7891V54.543C129.703 54.0273 129.652 53.543 129.551 53.0898C129.457 52.6289 129.305 52.2227 129.094 51.8711C128.891 51.5117 128.621 51.2305 128.285 51.0273C127.949 50.8242 127.543 50.7227 127.066 50.7227C126.59 50.7227 126.184 50.8242 125.848 51.0273C125.52 51.2305 125.25 51.5117 125.039 51.8711C124.836 52.2227 124.688 52.6289 124.594 53.0898C124.5 53.543 124.453 54.0273 124.453 54.543ZM142.664 57.9648V48.3203H146.039V61H142.863L142.664 57.9648ZM143.039 55.3633L144.035 55.3398C144.035 56.1836 143.938 56.9688 143.742 57.6953C143.547 58.4141 143.254 59.0391 142.863 59.5703C142.473 60.0938 141.98 60.5039 141.387 60.8008C140.793 61.0898 140.094 61.2344 139.289 61.2344C138.672 61.2344 138.102 61.1484 137.578 60.9766C137.062 60.7969 136.617 60.5195 136.242 60.1445C135.875 59.7617 135.586 59.2734 135.375 58.6797C135.172 58.0781 135.07 57.3555 135.07 56.5117V48.3203H138.445V56.5352C138.445 56.9102 138.488 57.2266 138.574 57.4844C138.668 57.7422 138.797 57.9531 138.961 58.1172C139.125 58.2812 139.316 58.3984 139.535 58.4688C139.762 58.5391 140.012 58.5742 140.285 58.5742C140.98 58.5742 141.527 58.4336 141.926 58.1523C142.332 57.8711 142.617 57.4883 142.781 57.0039C142.953 56.5117 143.039 55.9648 143.039 55.3633ZM154.828 48.3203V50.7109H147.445V48.3203H154.828ZM149.273 45.1914H152.648V57.1797C152.648 57.5469 152.695 57.8281 152.789 58.0234C152.891 58.2188 153.039 58.3555 153.234 58.4336C153.43 58.5039 153.676 58.5391 153.973 58.5391C154.184 58.5391 154.371 58.5312 154.535 58.5156C154.707 58.4922 154.852 58.4688 154.969 58.4453L154.98 60.9297C154.691 61.0234 154.379 61.0977 154.043 61.1523C153.707 61.207 153.336 61.2344 152.93 61.2344C152.188 61.2344 151.539 61.1133 150.984 60.8711C150.438 60.6211 150.016 60.2227 149.719 59.6758C149.422 59.1289 149.273 58.4102 149.273 57.5195V45.1914ZM169.875 46.8555L165.234 61H161.496L167.836 43.9375H170.215L169.875 46.8555ZM173.73 61L169.078 46.8555L168.703 43.9375H171.105L177.48 61H173.73ZM173.52 54.6484V57.4023H164.508V54.6484H173.52ZM182.801 43.9375V61H179.297V43.9375H182.801Z" fill="#888888"/>
<path d="M110.062 92.0469L101.742 119H92.9062L105.445 84.875H111.047L110.062 92.0469ZM116.953 119L108.609 92.0469L107.531 84.875H113.203L125.812 119H116.953ZM116.625 106.273V112.625H99.1172V106.273H116.625ZM135.258 115.906L142.055 84.875H146.109L148.312 87.5234L141.07 119H136.594L135.258 115.906ZM133.453 84.875L139.195 116.141L137.719 119H132.539L125.297 84.875H133.453ZM152.039 115.977L157.734 84.875H165.867L158.625 119H153.469L152.039 115.977ZM149.039 84.875L156 116.094L154.594 119H150.117L142.711 87.4766L145.008 84.875H149.039ZM186.68 109.93C186.68 109.398 186.602 108.922 186.445 108.5C186.289 108.062 186 107.656 185.578 107.281C185.156 106.906 184.547 106.531 183.75 106.156C182.969 105.766 181.938 105.359 180.656 104.938C179.156 104.438 177.711 103.875 176.32 103.25C174.93 102.609 173.688 101.867 172.594 101.023C171.5 100.164 170.633 99.1641 169.992 98.0234C169.352 96.8672 169.031 95.5234 169.031 93.9922C169.031 92.5234 169.359 91.2031 170.016 90.0312C170.672 88.8438 171.586 87.8359 172.758 87.0078C173.945 86.1641 175.336 85.5234 176.93 85.0859C178.523 84.6328 180.266 84.4062 182.156 84.4062C184.656 84.4062 186.859 84.8438 188.766 85.7188C190.688 86.5781 192.188 87.8047 193.266 89.3984C194.359 90.9766 194.906 92.8438 194.906 95H186.727C186.727 94.1406 186.547 93.3828 186.188 92.7266C185.844 92.0703 185.32 91.5547 184.617 91.1797C183.914 90.8047 183.031 90.6172 181.969 90.6172C180.938 90.6172 180.07 90.7734 179.367 91.0859C178.664 91.3984 178.133 91.8203 177.773 92.3516C177.414 92.8672 177.234 93.4375 177.234 94.0625C177.234 94.5781 177.375 95.0469 177.656 95.4688C177.953 95.875 178.367 96.2578 178.898 96.6172C179.445 96.9766 180.102 97.3203 180.867 97.6484C181.648 97.9766 182.523 98.2969 183.492 98.6094C185.305 99.1875 186.914 99.8359 188.32 100.555C189.742 101.258 190.938 102.062 191.906 102.969C192.891 103.859 193.633 104.875 194.133 106.016C194.648 107.156 194.906 108.445 194.906 109.883C194.906 111.414 194.609 112.773 194.016 113.961C193.422 115.148 192.57 116.156 191.461 116.984C190.352 117.797 189.023 118.414 187.477 118.836C185.93 119.258 184.203 119.469 182.297 119.469C180.547 119.469 178.82 119.25 177.117 118.812C175.43 118.359 173.898 117.672 172.523 116.75C171.148 115.812 170.047 114.617 169.219 113.164C168.406 111.695 168 109.953 168 107.938H176.25C176.25 108.938 176.383 109.781 176.648 110.469C176.914 111.156 177.305 111.711 177.82 112.133C178.336 112.539 178.969 112.836 179.719 113.023C180.469 113.195 181.328 113.281 182.297 113.281C183.344 113.281 184.188 113.133 184.828 112.836C185.469 112.523 185.938 112.117 186.234 111.617C186.531 111.102 186.68 110.539 186.68 109.93ZM222.188 119H214.617L214.664 112.672H222.188C223.75 112.672 225.07 112.297 226.148 111.547C227.242 110.797 228.07 109.68 228.633 108.195C229.211 106.695 229.5 104.852 229.5 102.664V101.188C229.5 99.5469 229.336 98.1094 229.008 96.875C228.695 95.625 228.227 94.5859 227.602 93.7578C226.977 92.9141 226.195 92.2812 225.258 91.8594C224.336 91.4375 223.273 91.2266 222.07 91.2266H214.477V84.875H222.07C224.383 84.875 226.5 85.2734 228.422 86.0703C230.359 86.8516 232.031 87.9766 233.438 89.4453C234.859 90.8984 235.953 92.625 236.719 94.625C237.5 96.6094 237.891 98.8125 237.891 101.234V102.664C237.891 105.07 237.5 107.273 236.719 109.273C235.953 111.273 234.867 113 233.461 114.453C232.055 115.906 230.391 117.031 228.469 117.828C226.562 118.609 224.469 119 222.188 119ZM219.328 84.875V119H211.102V84.875H219.328ZM254.086 119.469C252.023 119.469 250.18 119.148 248.555 118.508C246.93 117.852 245.555 116.953 244.43 115.812C243.32 114.672 242.469 113.359 241.875 111.875C241.297 110.391 241.008 108.82 241.008 107.164V106.273C241.008 104.414 241.266 102.695 241.781 101.117C242.297 99.5234 243.062 98.1328 244.078 96.9453C245.094 95.7578 246.367 94.8359 247.898 94.1797C249.43 93.5078 251.211 93.1719 253.242 93.1719C255.039 93.1719 256.648 93.4609 258.07 94.0391C259.492 94.6172 260.695 95.4453 261.68 96.5234C262.68 97.6016 263.438 98.9062 263.953 100.438C264.484 101.969 264.75 103.688 264.75 105.594V108.805H244.031V103.859H257.039V103.25C257.055 102.406 256.906 101.688 256.594 101.094C256.297 100.5 255.859 100.047 255.281 99.7344C254.703 99.4219 254 99.2656 253.172 99.2656C252.312 99.2656 251.602 99.4531 251.039 99.8281C250.492 100.203 250.062 100.719 249.75 101.375C249.453 102.016 249.242 102.758 249.117 103.602C248.992 104.445 248.93 105.336 248.93 106.273V107.164C248.93 108.102 249.055 108.953 249.305 109.719C249.57 110.484 249.945 111.141 250.43 111.688C250.93 112.219 251.523 112.633 252.211 112.93C252.914 113.227 253.711 113.375 254.602 113.375C255.68 113.375 256.742 113.172 257.789 112.766C258.836 112.359 259.734 111.688 260.484 110.75L264.07 115.016C263.555 115.75 262.82 116.461 261.867 117.148C260.93 117.836 259.805 118.398 258.492 118.836C257.18 119.258 255.711 119.469 254.086 119.469ZM275.93 98.5156V128.75H268.031V93.6406H275.391L275.93 98.5156ZM291.492 106.016V106.508C291.492 108.352 291.281 110.062 290.859 111.641C290.438 113.219 289.812 114.594 288.984 115.766C288.156 116.938 287.125 117.852 285.891 118.508C284.672 119.148 283.258 119.469 281.648 119.469C280.133 119.469 278.828 119.133 277.734 118.461C276.641 117.789 275.727 116.859 274.992 115.672C274.258 114.484 273.664 113.125 273.211 111.594C272.758 110.062 272.398 108.445 272.133 106.742V106.109C272.398 104.281 272.758 102.586 273.211 101.023C273.664 99.4453 274.258 98.0703 274.992 96.8984C275.727 95.7266 276.633 94.8125 277.711 94.1562C278.805 93.5 280.109 93.1719 281.625 93.1719C283.234 93.1719 284.648 93.4766 285.867 94.0859C287.102 94.6953 288.133 95.5703 288.961 96.7109C289.805 97.8359 290.438 99.1875 290.859 100.766C291.281 102.344 291.492 104.094 291.492 106.016ZM283.594 106.508V106.016C283.594 105.031 283.523 104.133 283.383 103.32C283.242 102.492 283.016 101.773 282.703 101.164C282.406 100.555 282.008 100.086 281.508 99.7578C281.008 99.4297 280.391 99.2656 279.656 99.2656C278.812 99.2656 278.102 99.3984 277.523 99.6641C276.961 99.9141 276.508 100.305 276.164 100.836C275.836 101.352 275.602 102 275.461 102.781C275.336 103.547 275.281 104.445 275.297 105.477V107.398C275.266 108.586 275.383 109.633 275.648 110.539C275.914 111.43 276.375 112.125 277.031 112.625C277.688 113.125 278.578 113.375 279.703 113.375C280.453 113.375 281.078 113.203 281.578 112.859C282.078 112.5 282.477 112.008 282.773 111.383C283.07 110.742 283.281 110.008 283.406 109.18C283.531 108.352 283.594 107.461 283.594 106.508ZM303.352 83V119H295.43V83H303.352ZM307.242 106.578V106.086C307.242 104.227 307.508 102.516 308.039 100.953C308.57 99.375 309.352 98.0078 310.383 96.8516C311.414 95.6953 312.688 94.7969 314.203 94.1562C315.719 93.5 317.469 93.1719 319.453 93.1719C321.453 93.1719 323.211 93.5 324.727 94.1562C326.258 94.7969 327.539 95.6953 328.57 96.8516C329.602 98.0078 330.383 99.375 330.914 100.953C331.445 102.516 331.711 104.227 331.711 106.086V106.578C331.711 108.422 331.445 110.133 330.914 111.711C330.383 113.273 329.602 114.641 328.57 115.812C327.539 116.969 326.266 117.867 324.75 118.508C323.234 119.148 321.484 119.469 319.5 119.469C317.516 119.469 315.758 119.148 314.227 118.508C312.695 117.867 311.414 116.969 310.383 115.812C309.352 114.641 308.57 113.273 308.039 111.711C307.508 110.133 307.242 108.422 307.242 106.578ZM315.141 106.086V106.578C315.141 107.531 315.211 108.422 315.352 109.25C315.492 110.078 315.727 110.805 316.055 111.43C316.383 112.039 316.828 112.516 317.391 112.859C317.953 113.203 318.656 113.375 319.5 113.375C320.328 113.375 321.016 113.203 321.562 112.859C322.125 112.516 322.57 112.039 322.898 111.43C323.227 110.805 323.461 110.078 323.602 109.25C323.742 108.422 323.812 107.531 323.812 106.578V106.086C323.812 105.164 323.742 104.297 323.602 103.484C323.461 102.656 323.227 101.93 322.898 101.305C322.57 100.664 322.125 100.164 321.562 99.8047C321 99.4453 320.297 99.2656 319.453 99.2656C318.625 99.2656 317.93 99.4453 317.367 99.8047C316.82 100.164 316.383 100.664 316.055 101.305C315.727 101.93 315.492 102.656 315.352 103.484C315.211 104.297 315.141 105.164 315.141 106.086ZM342.633 116.023L349.195 93.6406H357.68L347.484 122.773C347.266 123.414 346.977 124.102 346.617 124.836C346.258 125.586 345.766 126.297 345.141 126.969C344.516 127.641 343.711 128.188 342.727 128.609C341.758 129.031 340.555 129.242 339.117 129.242C338.352 129.242 337.789 129.203 337.43 129.125C337.086 129.062 336.555 128.945 335.836 128.773V123.125C336.039 123.125 336.211 123.125 336.352 123.125C336.508 123.125 336.68 123.125 336.867 123.125C337.711 123.125 338.383 123.039 338.883 122.867C339.398 122.695 339.789 122.445 340.055 122.117C340.336 121.789 340.555 121.391 340.711 120.922L342.633 116.023ZM340.969 93.6406L345.961 111.383L346.828 119.75H341.531L332.508 93.6406H340.969ZM367.711 99.0078V119H359.812V93.6406H367.219L367.711 99.0078ZM366.75 105.453L364.945 105.5C364.945 103.719 365.156 102.078 365.578 100.578C366 99.0781 366.625 97.7734 367.453 96.6641C368.281 95.5547 369.297 94.6953 370.5 94.0859C371.719 93.4766 373.125 93.1719 374.719 93.1719C375.828 93.1719 376.836 93.3438 377.742 93.6875C378.648 94.0156 379.43 94.5391 380.086 95.2578C380.742 95.9609 381.242 96.8828 381.586 98.0234C381.945 99.1484 382.125 100.5 382.125 102.078V119H374.227V103.086C374.227 102.008 374.102 101.195 373.852 100.648C373.617 100.102 373.273 99.7344 372.82 99.5469C372.367 99.3594 371.812 99.2656 371.156 99.2656C370.469 99.2656 369.852 99.4219 369.305 99.7344C368.758 100.047 368.289 100.484 367.898 101.047C367.523 101.594 367.234 102.242 367.031 102.992C366.844 103.742 366.75 104.562 366.75 105.453ZM381.234 105.453L379.031 105.5C379.031 103.719 379.227 102.078 379.617 100.578C380.023 99.0781 380.625 97.7734 381.422 96.6641C382.234 95.5547 383.242 94.6953 384.445 94.0859C385.648 93.4766 387.047 93.1719 388.641 93.1719C389.797 93.1719 390.859 93.3438 391.828 93.6875C392.797 94.0312 393.633 94.5859 394.336 95.3516C395.039 96.1172 395.586 97.1328 395.977 98.3984C396.367 99.6484 396.562 101.195 396.562 103.039V119H388.641V103.039C388.641 101.992 388.516 101.203 388.266 100.672C388.031 100.125 387.688 99.7578 387.234 99.5703C386.781 99.3672 386.242 99.2656 385.617 99.2656C384.867 99.2656 384.219 99.4219 383.672 99.7344C383.125 100.047 382.664 100.484 382.289 101.047C381.93 101.594 381.664 102.242 381.492 102.992C381.32 103.742 381.234 104.562 381.234 105.453ZM413.367 119.469C411.305 119.469 409.461 119.148 407.836 118.508C406.211 117.852 404.836 116.953 403.711 115.812C402.602 114.672 401.75 113.359 401.156 111.875C400.578 110.391 400.289 108.82 400.289 107.164V106.273C400.289 104.414 400.547 102.695 401.062 101.117C401.578 99.5234 402.344 98.1328 403.359 96.9453C404.375 95.7578 405.648 94.8359 407.18 94.1797C408.711 93.5078 410.492 93.1719 412.523 93.1719C414.32 93.1719 415.93 93.4609 417.352 94.0391C418.773 94.6172 419.977 95.4453 420.961 96.5234C421.961 97.6016 422.719 98.9062 423.234 100.438C423.766 101.969 424.031 103.688 424.031 105.594V108.805H403.312V103.859H416.32V103.25C416.336 102.406 416.188 101.688 415.875 101.094C415.578 100.5 415.141 100.047 414.562 99.7344C413.984 99.4219 413.281 99.2656 412.453 99.2656C411.594 99.2656 410.883 99.4531 410.32 99.8281C409.773 100.203 409.344 100.719 409.031 101.375C408.734 102.016 408.523 102.758 408.398 103.602C408.273 104.445 408.211 105.336 408.211 106.273V107.164C408.211 108.102 408.336 108.953 408.586 109.719C408.852 110.484 409.227 111.141 409.711 111.688C410.211 112.219 410.805 112.633 411.492 112.93C412.195 113.227 412.992 113.375 413.883 113.375C414.961 113.375 416.023 113.172 417.07 112.766C418.117 112.359 419.016 111.688 419.766 110.75L423.352 115.016C422.836 115.75 422.102 116.461 421.148 117.148C420.211 117.836 419.086 118.398 417.773 118.836C416.461 119.258 414.992 119.469 413.367 119.469ZM435 99.0547V119H427.102V93.6406H434.508L435 99.0547ZM434.062 105.453L432.211 105.5C432.211 103.562 432.445 101.836 432.914 100.32C433.383 98.7891 434.047 97.4922 434.906 96.4297C435.766 95.3672 436.789 94.5625 437.977 94.0156C439.18 93.4531 440.516 93.1719 441.984 93.1719C443.156 93.1719 444.227 93.3438 445.195 93.6875C446.18 94.0312 447.023 94.5859 447.727 95.3516C448.445 96.1172 448.992 97.1328 449.367 98.3984C449.758 99.6484 449.953 101.195 449.953 103.039V119H442.008V103.016C442.008 102 441.867 101.227 441.586 100.695C441.305 100.148 440.898 99.7734 440.367 99.5703C439.836 99.3672 439.188 99.2656 438.422 99.2656C437.609 99.2656 436.922 99.4219 436.359 99.7344C435.797 100.047 435.344 100.484 435 101.047C434.672 101.594 434.43 102.242 434.273 102.992C434.133 103.742 434.062 104.562 434.062 105.453ZM467.695 93.6406V99.125H452.414V93.6406H467.695ZM455.625 87.3359H463.523V110.727C463.523 111.398 463.602 111.922 463.758 112.297C463.914 112.656 464.18 112.914 464.555 113.07C464.945 113.211 465.461 113.281 466.102 113.281C466.555 113.281 466.93 113.273 467.227 113.258C467.523 113.227 467.805 113.188 468.07 113.141V118.789C467.398 119.008 466.695 119.172 465.961 119.281C465.227 119.406 464.445 119.469 463.617 119.469C461.93 119.469 460.484 119.203 459.281 118.672C458.094 118.141 457.188 117.305 456.562 116.164C455.938 115.023 455.625 113.539 455.625 111.711V87.3359Z" fill="black"/>
<path d="M1134 0H1348C1356.28 0 1363 6.71573 1363 15V148C1363 156.284 1356.28 163 1348 163H1134V0Z" fill="#3292E6"/>
<path d="M1212.5 117.5L1212.5 45.5L1284.5 45.5L1284.5 117.5L1212.5 117.5Z" fill="white" fill-opacity="0.01"/>
<path d="M1221.5 81.5125L1221.5 108.5L1275.5 108.5L1275.5 81.5" stroke="white" stroke-width="7.24" stroke-linecap="round" stroke-linejoin="round"/>
<path d="M1262 68L1248.5 54.5L1235 68" stroke="white" stroke-width="7.24" stroke-linecap="round" stroke-linejoin="round"/>
<path d="M1248.49 93.5L1248.49 54.5" stroke="white" stroke-width="7.24" stroke-linecap="round" stroke-linejoin="round"/>
</svg>
